<?xml version="1.0" encoding="iso-8859-1"?>
<!-- Generator: Adobe Illustrator 19.0.0, SVG Export Plug-In . SVG Version: 6.00 Build 0)  -->
<svg version="1.1" id="Capa_1" xmlns="http://www.w3.org/2000/svg" xmlns:xlink="http://www.w3.org/1999/xlink" x="0px" y="0px"
	 viewBox="0 0 512 512" style="enable-background:new 0 0 512 512;" xml:space="preserve">
<path style="fill:#FFC25F;" d="M512,256c0,96.778-53.697,181.008-132.932,224.528c-28.756,15.799-60.886,26.237-95.033,29.947
	C274.829,511.488,265.477,512,256,512s-18.829-0.512-28.035-1.526c-34.147-3.709-66.278-14.148-95.033-29.947
	C53.697,437.008,0,352.778,0,256C0,114.615,114.615,0,256,0S512,114.615,512,256z"/>
<g>
	<path style="fill:#A55032;" d="M227.965,510.474c-34.147-3.709-66.278-14.148-95.033-29.947
		c6.134-33.573,18.777-58.034,18.777-58.034l61.921,14.576C221.999,462.66,226.095,488.427,227.965,510.474z"/>
	<path style="fill:#A55032;" d="M379.068,480.528c-28.756,15.799-60.886,26.237-95.033,29.947
		c1.87-22.047,5.966-47.815,14.336-73.404l61.921-14.576C360.291,422.494,372.935,446.955,379.068,480.528z"/>
	<path style="fill:#A55032;" d="M332.187,265.981c9.98-9.98,61.422,24.815,100.855,97.093c8.262,15.144,2.811,34.131-12.132,42.751
		l-11.745,6.776c-14.431,8.326-32.839,4.137-42.246-9.613l-14.896-21.771"/>
	<path style="fill:#A55032;" d="M179.813,265.981c-9.98-9.98-61.422,24.815-100.855,97.093
		c-8.262,15.144-2.811,34.131,12.132,42.751l11.745,6.776c14.431,8.326,32.839,4.137,42.246-9.613l14.896-21.771"/>
</g>
<g>
	<circle style="fill:#BA6041;" cx="370.134" cy="47.47" r="47.47"/>
	<circle style="fill:#BA6041;" cx="141.866" cy="47.47" r="47.47"/>
</g>
<g>
	<circle style="fill:#A55032;" cx="361.023" cy="57.783" r="31.097"/>
	<circle style="fill:#A55032;" cx="150.977" cy="57.783" r="31.097"/>
</g>
<path style="fill:#BA6041;" d="M385.452,369.821c0,71.492-57.96,80.603-129.452,80.603s-129.452-9.112-129.452-80.603
	c0-46.571,24.597-87.395,61.503-110.195c19.749-12.204,43.029-19.247,67.95-19.247s48.201,7.043,67.95,19.247
	C360.855,282.425,385.452,323.25,385.452,369.821z"/>
<path style="fill:#A55032;" d="M173.446,322.632c9.314-34.726,41.075-58.708,77.028-58.468c1.806,0.013,3.647,0.018,5.526,0.018
	c24.534,0,47.658-0.951,67.95-4.556c-19.749-12.204-43.029-19.247-67.95-19.247c-0.807,0-1.587,0.028-2.379,0.043
	c0.792-0.03,1.586-0.048,2.383-0.048c-1.492,0-2.976,0.034-4.455,0.085c-0.105,0.003-0.209,0.008-0.313,0.011
	c-69.28,2.51-124.686,59.454-124.686,129.358c0,70.373,56.167,80.293,126.115,80.585c-47.413-0.437-85.295-10.733-85.295-80.585
	C167.371,353.173,169.523,337.254,173.446,322.632z"/>
<path style="fill:#BA6041;" d="M401.912,162.879c0-80.585-65.327-145.912-145.912-145.912S110.088,82.294,110.088,162.879
	S175.415,253.729,256,253.729S401.912,243.463,401.912,162.879z"/>
<path style="fill:#A55032;" d="M253.117,253.718c-79.261-0.242-143.029-11.219-143.029-90.844
	c0-80.585,65.322-145.906,145.906-145.906c-61.692,0-111.704,65.322-111.704,145.906
	C144.291,242.195,192.748,253.39,253.117,253.718z"/>
<circle style="fill:#FFFFFF;" cx="178.291" cy="150.528" r="26.712"/>
<circle style="fill:#53506D;" cx="178.291" cy="150.528" r="13.351"/>
<circle style="fill:#FFFFFF;" cx="333.709" cy="150.528" r="26.712"/>
<g>
	<circle style="fill:#53506D;" cx="333.709" cy="150.528" r="13.351"/>
	<path style="fill:#53506D;" d="M270.879,183.307h-29.759c-5.194,0-9.404-4.21-9.404-9.404v-3.047c0-5.194,4.21-9.404,9.404-9.404
		h29.759c5.194,0,9.404,4.21,9.404,9.404v3.047C280.283,179.098,276.072,183.307,270.879,183.307z"/>
	<path style="fill:#53506D;" d="M245.072,188.018v-17.161c0-5.194,4.21-9.404,9.404-9.404h3.047c5.194,0,9.404,4.21,9.404,9.404
		v17.161c0,5.194-4.21,9.404-9.404,9.404h-3.047C249.282,197.422,245.072,193.212,245.072,188.018z"/>
</g>
<g>
</g>
<g>
</g>
<g>
</g>
<g>
</g>
<g>
</g>
<g>
</g>
<g>
</g>
<g>
</g>
<g>
</g>
<g>
</g>
<g>
</g>
<g>
</g>
<g>
</g>
<g>
</g>
<g>
</g>
</svg>
