<?xml version="1.0" encoding="UTF-8"?>
<!DOCTYPE svg PUBLIC "-//W3C//DTD SVG 1.1//EN" "http://www.w3.org/Graphics/SVG/1.1/DTD/svg11.dtd">
<!-- Creator: CorelDRAW 2017 -->
<svg xmlns="http://www.w3.org/2000/svg" xml:space="preserve" width="233px" height="232px" version="1.1" style="shape-rendering:geometricPrecision; text-rendering:geometricPrecision; image-rendering:optimizeQuality; fill-rule:evenodd; clip-rule:evenodd"
viewBox="0 0 108.795 108.328"
 xmlns:xlink="http://www.w3.org/1999/xlink">
 <defs>
  <style type="text/css">
   <![CDATA[
    .fil3 {fill:#00C6D6}
    .fil15 {fill:#04CBDB}
    .fil12 {fill:#354258}
    .fil11 {fill:#37CDD5}
    .fil0 {fill:#4CB48A}
    .fil14 {fill:#5BD2D6}
    .fil8 {fill:#5ED4DA}
    .fil13 {fill:#72B26C}
    .fil10 {fill:#A33D69}
    .fil1 {fill:#ACDDDC}
    .fil6 {fill:#CE3968}
    .fil7 {fill:#E7495D}
    .fil4 {fill:#F4F4E2}
    .fil2 {fill:#F9C897}
    .fil5 {fill:#FAC468}
    .fil9 {fill:#FFC645}
   ]]>
  </style>
 </defs>
 <g id="Слой_x0020_1">
  <metadata id="CorelCorpID_0Corel-Layer"/>
  <g id="_2756593714240">
   <g>
    <polygon class="fil0" points="108.795,12.14 108.795,0 95.721,0 95.721,12.14 "/>
    <polygon class="fil0" points="36.888,83.581 36.888,70.974 24.747,70.974 24.747,84.048 36.421,84.048 36.421,83.581 "/>
   </g>
   <g>
    <polygon class="fil1" points="24.747,70.507 24.747,59.3 14.008,59.3 14.008,58.833 0,58.833 0,70.507 "/>
    <polygon class="fil1" points="95.721,108.328 95.721,84.048 84.048,84.048 84.048,108.328 "/>
   </g>
   <g>
    <polygon class="fil2" points="108.795,35.487 108.795,12.607 95.721,12.607 95.721,35.487 "/>
    <polygon class="fil2" points="60.234,84.048 60.234,70.974 37.355,70.974 37.355,84.048 "/>
   </g>
   <g>
    <polygon class="fil3" points="0,70.974 0,96.188 12.607,96.188 12.607,70.974 "/>
    <polygon class="fil3" points="108.795,96.188 108.795,84.048 95.721,84.048 95.721,96.188 "/>
   </g>
   <g>
    <polygon class="fil4" points="24.747,59.3 24.747,12.14 0,12.14 0,58.833 14.008,58.833 14.008,59.3 "/>
    <polygon class="fil4" points="84.048,108.328 84.048,84.048 37.355,84.048 37.355,108.328 "/>
   </g>
   <g>
    <polygon class="fil5" points="60.234,70.974 60.234,35.487 37.355,35.487 37.355,12.607 24.747,12.607 24.747,70.974 "/>
    <polygon class="fil5" points="60.701,35.487 95.721,35.487 95.721,12.607 108.795,12.607 108.795,12.14 95.721,12.14 95.721,0 37.355,0 37.355,12.14 60.234,12.14 60.234,35.02 60.701,35.02 "/>
   </g>
   <polygon class="fil6" points="60.234,70.974 60.234,84.048 84.048,84.048 84.048,59.3 108.795,59.3 108.795,47.627 108.328,47.627 108.328,47.16 72.374,47.16 72.374,70.507 71.908,70.507 71.908,70.974 "/>
   <polygon class="fil7" points="108.795,47.627 108.795,35.487 60.234,35.487 60.234,70.974 71.908,70.974 71.908,70.507 72.374,70.507 72.374,47.16 108.328,47.16 108.328,47.627 "/>
   <polygon class="fil8" points="0,96.188 0,108.328 37.355,108.328 37.355,70.974 36.888,70.974 36.888,96.188 24.747,96.188 24.747,93.853 25.214,93.853 25.214,92.92 24.747,92.92 24.747,70.507 0,70.507 0,70.974 12.607,70.974 12.607,96.188 "/>
   <polygon class="fil9" points="60.701,35.487 60.701,35.02 60.234,35.02 60.234,12.14 37.355,12.14 37.355,35.487 "/>
   <polygon class="fil10" points="95.721,84.048 95.721,70.974 108.795,70.974 108.795,59.3 84.048,59.3 84.048,84.048 "/>
   <polygon class="fil11" points="24.747,12.14 24.747,0 0,0 0,12.14 "/>
   <polygon class="fil12" points="108.795,84.048 108.795,70.974 95.721,70.974 95.721,84.048 "/>
   <polygon class="fil13" points="37.355,12.607 37.355,0 24.747,0 24.747,12.607 "/>
   <polygon class="fil14" points="108.795,108.328 108.795,96.188 95.721,96.188 95.721,108.328 "/>
   <polygon class="fil15" points="24.747,84.048 24.747,92.92 25.214,92.92 25.214,93.853 24.747,93.853 24.747,96.188 36.888,96.188 36.888,83.581 36.421,83.581 36.421,84.048 "/>
  </g>
 </g>
</svg>
