<?xml version="1.0" encoding="UTF-8"?>
<!DOCTYPE svg PUBLIC "-//W3C//DTD SVG 1.1//EN" "http://www.w3.org/Graphics/SVG/1.1/DTD/svg11.dtd">
<!-- Creator: CorelDRAW 2017 -->
<svg xmlns="http://www.w3.org/2000/svg" xml:space="preserve" width="2873px" height="561px" version="1.1" style="shape-rendering:geometricPrecision; text-rendering:geometricPrecision; image-rendering:optimizeQuality; fill-rule:evenodd; clip-rule:evenodd"
viewBox="0 0 197.442 38.544"
 xmlns:xlink="http://www.w3.org/1999/xlink">
 <defs>
  <style type="text/css">
   <![CDATA[
    .fil1 {fill:none}
    .fil0 {fill:#780707}
   ]]>
  </style>
 </defs>
 <g id="Слой_x0020_1">
  <metadata id="CorelCorpID_0Corel-Layer"/>
  <g id="_1806306178224">
   <g>
    <path class="fil0" d="M11.309 4.096c-4.486,6.6 -8.105,24.279 -8.228,32.358 0,0.851 -0.689,1.541 -1.54,1.541 -0.851,0 -1.541,-0.69 -1.541,-1.541 0.134,-8.867 3.867,-26.894 8.816,-34.169 0.501,-0.689 1.464,-0.841 2.152,-0.341 0.689,0.5 0.841,1.463 0.341,2.152z"/>
   </g>
   <path class="fil1" d="M10.063 3.19c-4.436,6.105 -8.522,25.258 -8.522,33.264"/>
   <g>
    <path class="fil0" d="M12.702 4.616c0.271,2.504 1.419,6.64 2.013,9.193 1.654,7.107 3.637,15.658 3.761,22.92 0,0.851 -0.69,1.541 -1.54,1.541 -0.851,0 -1.541,-0.69 -1.541,-1.541 -0.114,-6.639 -1.919,-14.581 -3.417,-21.081 -0.703,-3.051 -2.13,-8.152 -2.355,-11.135 0.028,-0.85 0.741,-1.517 1.591,-1.488 0.85,0.028 1.517,0.741 1.488,1.591z"/>
   </g>
   <path class="fil1" d="M11.162 4.565c-0.074,2.244 5.774,22.018 5.774,32.164"/>
   <g>
    <path class="fil0" d="M37.995 5.939c-0.017,9.069 -0.199,18.634 0.118,27.669 0.027,0.761 0.024,0.618 0.079,1.476l-0.08 -0.133c0.328,0.666 0.134,1.49 -0.49,1.934 -0.694,0.493 -1.656,0.33 -2.149,-0.363 -0.47,-1.542 -0.384,-1.246 -0.439,-2.807 -0.319,-9.072 -0.137,-18.67 -0.121,-27.776 0,-0.851 0.69,-1.54 1.541,-1.54 0.851,0 1.541,0.689 1.541,1.54z"/>
   </g>
   <path class="fil1" d="M36.454 5.939c0,2.812 -0.137,29.111 0.275,29.69"/>
   <g>
    <path class="fil0" d="M36.179 6.93c-1.778,0.021 -6.214,-0.113 -7.179,1.843 -0.586,1.19 -0.718,6.531 -0.951,8.287 -0.289,2.183 -0.845,3.932 -1.047,6.141 -0.355,3.885 -0.486,12.259 -5.111,13.554l-0.646 0.129c-0.845,0.102 -1.613,-0.499 -1.715,-1.344 -0.103,-0.845 0.499,-1.612 1.343,-1.715 2.62,-0.517 2.868,-8.796 3.06,-10.897 0.192,-2.108 0.622,-3.437 0.939,-5.429 0.422,-2.649 0.312,-5.328 0.7,-7.782 0.906,-5.737 5.917,-5.814 10.607,-5.868 0.851,0 1.541,0.689 1.541,1.54 0,0.851 -0.69,1.541 -1.541,1.541z"/>
   </g>
   <path class="fil1" d="M36.179 5.389c-12.6,0 -7.625,4.447 -10.376,15.215 -0.789,3.09 -0.137,14.191 -4.744,14.75"/>
   <g>
    <path class="fil0" d="M2.515 22.973c2.346,-0.809 3.591,-0.857 5.976,-0.854 1.894,0.002 3.798,0.112 5.695,0.149 0.851,0 1.541,0.689 1.541,1.54 0,0.851 -0.69,1.541 -1.541,1.541 -3.003,-0.057 -7.489,-0.549 -10.321,0.394 -0.765,0.373 -1.687,0.055 -2.06,-0.71 -0.373,-0.765 -0.055,-1.687 0.71,-2.06z"/>
   </g>
   <path class="fil1" d="M3.19 24.358c2.32,-1.13 8.145,-0.55 10.996,-0.55"/>
   <g>
    <path class="fil0" d="M47.067 4.84c-0.027,8.21 -0.89,17.872 0.681,25.864 0.311,1.582 0.163,3.03 0.143,4.65 0,0.851 -0.689,1.541 -1.54,1.541 -0.851,0 -1.541,-0.69 -1.541,-1.541l0.009 -0.729c0.019,-1.407 0.164,-2.013 -0.095,-3.328 -1.637,-8.33 -0.766,-17.939 -0.739,-26.457 0,-0.851 0.69,-1.541 1.541,-1.541 0.851,0 1.541,0.69 1.541,1.541z"/>
   </g>
   <path class="fil1" d="M45.526 4.84c0,8.763 -0.94,18.671 0.872,26.941 0.008,0.035 -0.047,3.21 -0.047,3.573"/>
   <g>
    <path class="fil0" d="M45.251 15.395c5.539,0.096 11.822,2.25 13.342,8.203 1.585,6.21 -3.573,10.542 -9.194,11.736 -1.626,0.345 -3.043,0.435 -4.698,0.461 -0.851,0 -1.54,-0.689 -1.54,-1.54 0,-0.851 0.689,-1.541 1.54,-1.541 0.984,-0.015 1.841,-0.048 2.819,-0.18 4.144,-0.562 9.35,-3.23 8.087,-8.173 -1.137,-4.455 -6.348,-5.815 -10.356,-5.885 -0.851,0 -1.541,-0.69 -1.541,-1.54 0,-0.851 0.69,-1.541 1.541,-1.541z"/>
   </g>
   <path class="fil1" d="M45.251 16.936c15.633,0 16.728,17.319 -0.55,17.319"/>
   <g>
    <path class="fil0" d="M72.633 1.541c0,11.821 0,23.642 0,35.463 0,0.851 -0.69,1.54 -1.54,1.54 -0.851,0 -1.541,-0.689 -1.541,-1.54 0,-11.821 0,-23.642 0,-35.463 0,-0.851 0.69,-1.541 1.541,-1.541 0.85,0 1.54,0.69 1.54,1.541z"/>
   </g>
   <path class="fil1" d="M71.093 1.541c0,11.888 0,23.787 0,35.463"/>
   <g>
    <path class="fil0" d="M69.809 8.51c-2.517,-0.52 -2.204,0.263 -3.98,1.459l-0.016 0.008c-0.404,1.416 -0.574,1.265 -1.218,2.748 -0.947,2.183 -0.96,8.607 -0.373,11.066 1.027,4.301 4.841,7.89 9.308,5.983 4.808,-2.053 4.684,-8.048 4.501,-12.384 -0.191,-4.538 -1.059,-6.851 -5.658,-8.206 -0.986,-0.291 -0.929,-0.265 -1.593,-0.692 -0.303,0.107 -0.641,0.12 -0.971,0.018zm1.008 -2.91c0.44,-0.168 0.95,-0.133 1.377,0.138l0.565 0.36c8.138,2.329 8.538,7.291 8.396,14.985 -0.087,4.745 -1.743,9.53 -6.415,11.525 -6.247,2.667 -12.03,-1.887 -13.515,-8.103 -0.738,-3.09 -0.689,-10.158 0.527,-12.969 0.651,-1.502 0.744,-1.112 1.224,-2.833 0.29,-1.039 0.546,-0.801 1.015,-1.196 0.543,-0.457 1.055,-0.964 1.658,-1.347 1.898,-1.204 3.022,-1.007 5.077,-0.592 0.031,0.01 0.062,0.02 0.091,0.032z"/>
   </g>
   <path class="fil1" d="M70.268 7.039c-3.481,-1.086 -4.662,1.539 -5.773,1.924 -0.59,3.439 -2.2,1.235 -2.2,11.319 0,15.154 17.32,15.287 17.32,0.801 0,-7.184 0.058,-11.64 -7.494,-13.565l-0.754 -0.479"/>
   <g>
    <path class="fil0" d="M87.753 4.565c-0.025,6.748 -0.794,20.472 1.273,26.402 0.498,1.429 0.413,1.893 0.377,3.288 0,0.851 -0.69,1.54 -1.541,1.54 -0.851,0 -1.541,-0.689 -1.541,-1.54 0.038,-1.442 0.186,-1.154 -0.206,-2.277 -2.277,-6.527 -1.47,-20.103 -1.443,-27.413 0,-0.851 0.69,-1.541 1.54,-1.541 0.851,0 1.541,0.69 1.541,1.541z"/>
   </g>
   <path class="fil1" d="M86.212 4.565c0,6.892 -0.876,21.538 1.579,27.49 0.174,0.421 0.071,1.677 0.071,2.2"/>
   <g>
    <path class="fil0" d="M86.555 31.515c2.133,-4.134 4.173,-8.979 6.092,-13.265 1.844,-4.121 3.756,-8.316 5.468,-12.491l0.034 0.036c0.08,-0.847 0.831,-1.469 1.678,-1.39 0.847,0.08 1.469,0.831 1.39,1.678 -0.309,1.062 -0.146,0.606 -0.605,1.709 -1.876,4.505 -3.952,9.048 -5.955,13.505 -1.684,3.749 -3.573,8.259 -5.488,11.849 -0.45,0.722 -1.4,0.942 -2.122,0.492 -0.722,-0.45 -0.943,-1.401 -0.492,-2.123z"/>
   </g>
   <path class="fil1" d="M87.862 32.33c0.805,-1.29 11.764,-25.782 11.821,-26.391"/>
   <g>
    <path class="fil0" d="M101.528 3.73c0.908,2.464 0.99,5.257 1.226,7.857 0.551,6.088 1.183,14.198 0.979,20.172 -0.048,1.438 0.002,1.965 -0.685,3.228 -0.556,0.644 -1.528,0.715 -2.173,0.159 -0.555,-0.479 -0.684,-1.269 -0.353,-1.89 0.406,-2.114 0.006,-8.998 -0.114,-11.252 -0.276,-5.185 -0.606,-11.552 -1.505,-16.563l0.035 -0.042c-0.461,-0.715 -0.255,-1.668 0.46,-2.129 0.716,-0.461 1.669,-0.255 2.13,0.46z"/>
   </g>
   <path class="fil1" d="M100.233 4.565c0.864,1.341 2.747,28.144 1.649,29.415"/>
   <g>
    <path class="fil0" d="M109.471 4.565c-0.017,9.907 -0.533,19.784 -0.55,29.69 0,0.851 -0.69,1.54 -1.541,1.54 -0.85,0 -1.54,-0.689 -1.54,-1.54 0.017,-9.907 0.533,-19.784 0.55,-29.69 0,-0.851 0.689,-1.541 1.54,-1.541 0.851,0 1.541,0.69 1.541,1.541z"/>
   </g>
   <path class="fil1" d="M107.93 4.565c0,10.165 -0.55,19.626 -0.55,29.69"/>
   <g>
    <path class="fil0" d="M114.253 20.95c-1.466,0 -2.932,0 -4.398,0 -0.851,0 -1.541,-0.689 -1.541,-1.54 0,-0.851 0.69,-1.541 1.541,-1.541 1.466,0 2.932,0 4.398,0 0.851,0 1.541,0.69 1.541,1.541 0,0.851 -0.69,1.54 -1.541,1.54z"/>
   </g>
   <path class="fil1" d="M114.253 19.41c-1.466,0 -2.932,0 -4.398,0"/>
   <g>
    <path class="fil0" d="M115.197 10.92c0.133,-3.219 1.167,-6.036 4.257,-7.579 5.068,-2.531 10.066,1.272 12.331,5.704 2.596,5.084 2.824,11.68 2.323,17.249 -0.184,2.038 -0.287,2.004 -1.602,3.539 -3.944,4.607 -11.172,10.319 -15.598,2.708 -2.356,-4.052 -2.935,-12.738 -2.821,-17.53 0.034,-1.402 0.301,-2.907 1.11,-4.091zm3.07 0.192c0.002,0.053 0.001,0.106 -0.003,0.159 -0.001,0.01 -0.001,0.02 -0.002,0.031l-0.001 0.004c-0.024,0.261 -0.113,0.504 -0.253,0.712 -0.433,1.031 -0.809,1.697 -0.84,2.993 -0.1,4.307 0.369,13.417 2.93,16.802 3.09,4.085 8.836,-2.417 10.855,-4.954 0.383,-3.96 0.488,-7.9 -0.345,-11.82 -0.823,-3.87 -3.407,-9.698 -8.134,-9.383 -3.025,0.202 -4.139,2.751 -4.207,5.456z"/>
   </g>
   <path class="fil1" d="M116.727 11.162c-0.328,-11.175 18.812,-11.34 15.717,16.267 -0.015,0.14 -16.816,22.708 -16.816,-12.418 0,-2.407 0.981,-3.156 1.099,-3.849"/>
   <g>
    <path class="fil0" d="M139.711 5.114c-0.123,7.194 -0.831,15.65 0.018,22.702 0.09,0.744 0.317,2.397 0.713,3.204 4.127,-0.538 15.603,-2.348 18.377,-0.111 0.748,0.603 0.949,1.18 0.955,2.092 -0.066,0.849 -0.808,1.482 -1.657,1.415 -0.677,-0.053 -1.218,-0.538 -1.374,-1.163 -2.356,-0.962 -11.853,0.287 -14.409,0.627 -1.81,0.24 -3.206,0.747 -4.387,-1.019 -2.631,-3.931 -1.413,-22.206 -1.317,-27.747 0,-0.85 0.689,-1.54 1.54,-1.54 0.851,0 1.541,0.69 1.541,1.54z"/>
   </g>
   <path class="fil1" d="M138.17 5.114c0,4.07 -1.572,27.491 1.925,27.491 0.911,0 18.4,-2.972 18.143,0.275"/>
   <g>
    <path class="fil0" d="M149.608 6.764c-0.009,7.975 -0.267,15.942 -0.275,23.917 0,0.851 -0.69,1.541 -1.541,1.541 -0.851,0 -1.541,-0.69 -1.541,-1.541 0.009,-7.975 0.267,-15.942 0.275,-23.917 0,-0.851 0.69,-1.541 1.541,-1.541 0.851,0 1.541,0.69 1.541,1.541z"/>
   </g>
   <path class="fil1" d="M148.067 6.764c0,8.075 -0.275,15.883 -0.275,23.917"/>
   <g>
    <path class="fil0" d="M160.539 6.655c-0.621,3.337 -0.787,8.92 -0.926,12.382 -0.145,3.623 -0.412,9.579 0.034,13.097 0.135,1.056 0.161,0.571 0.134,0.97 0.484,0.7 0.308,1.66 -0.392,2.143 -0.7,0.484 -1.659,0.309 -2.143,-0.391l-0.46 -1.141c-0.66,-2.365 -0.393,-10.892 -0.297,-13.592 0.139,-3.946 0.323,-10.569 1.098,-14.35 0.244,-0.815 1.102,-1.279 1.917,-1.035 0.816,0.244 1.279,1.102 1.035,1.917z"/>
   </g>
   <path class="fil1" d="M159.063 6.214c-0.657,2.198 -1.92,25.783 -0.55,27.766"/>
   <g>
    <path class="fil0" d="M167.751 4.29c0.115,9.904 3.68,22.193 -1.41,31.257l-0.161 0.287c-0.417,0.742 -1.356,1.005 -2.098,0.589 -0.742,-0.417 -1.006,-1.356 -0.589,-2.098l0.161 -0.287c4.454,-7.93 1.12,-20.746 1.016,-29.748 0,-0.851 0.69,-1.541 1.541,-1.541 0.851,0 1.54,0.69 1.54,1.541z"/>
   </g>
   <path class="fil1" d="M166.211 4.29c0,9.159 3.537,22.045 -1.053,30.216l-0.322 0.573"/>
   <g>
    <path class="fil0" d="M179.812 5.774c-1.333,1.304 -3.78,6.419 -4.935,8.332 -1.547,2.561 -2.681,4.098 -5.012,6 -0.688,0.5 -1.652,0.348 -2.152,-0.341 -0.5,-0.688 -0.347,-1.652 0.342,-2.152 1.598,-1.306 2.407,-2.327 3.535,-4.059 1.944,-2.987 3.967,-7.955 6.312,-10.198 0.667,-0.528 1.636,-0.414 2.164,0.254 0.527,0.667 0.413,1.636 -0.254,2.164z"/>
   </g>
   <path class="fil1" d="M178.857 4.565c-2.312,1.826 -5.176,10.866 -9.897,14.295"/>
   <g>
    <path class="fil0" d="M170.402 19.967c1.158,2.366 7.671,11.328 9.6,13.016 0.702,0.481 0.882,1.44 0.401,2.142 -0.48,0.702 -1.439,0.882 -2.141,0.401 -2.593,-2.156 -9.285,-11.353 -10.744,-14.474 -0.3,-0.796 0.103,-1.685 0.899,-1.985 0.797,-0.299 1.685,0.103 1.985,0.9z"/>
   </g>
   <path class="fil1" d="M168.96 20.509c0.664,1.764 8.455,12.571 10.172,13.746"/>
   <g>
    <path class="fil0" d="M191.554 6.071c-2.827,3.326 -7.767,23.474 -8.133,27.909 0,0.851 -0.689,1.54 -1.54,1.54 -0.851,0 -1.541,-0.689 -1.541,-1.54 0.442,-5.861 4.174,-19.299 6.417,-25.114 0.756,-1.961 2.114,-6.024 4.7,-5.825 0.841,0.127 1.421,0.912 1.294,1.753 -0.098,0.651 -0.59,1.145 -1.197,1.277z"/>
   </g>
   <path class="fil1" d="M191.228 4.565c-2.825,-0.426 -9.347,25.711 -9.347,29.415"/>
   <g>
    <path class="fil0" d="M192.711 4.439c2.214,2.113 2.75,6.1 3.201,8.999 1.037,6.662 1.469,14.589 1.53,21.367 0,0.85 -0.69,1.54 -1.541,1.54 -0.851,0 -1.541,-0.69 -1.541,-1.54 -0.042,-4.676 -0.833,-25.174 -3.516,-27.915 -0.677,-0.516 -0.808,-1.483 -0.292,-2.159 0.516,-0.677 1.482,-0.808 2.159,-0.292z"/>
   </g>
   <path class="fil1" d="M191.777 5.664c3.346,2.549 4.124,24.478 4.124,29.141"/>
   <g>
    <path class="fil0" d="M186.279 23.367c2.099,-0.056 7.408,-0.609 8.947,0.875l0.297 0.346c0.481,0.702 0.301,1.661 -0.402,2.141 -0.622,0.426 -1.445,0.333 -1.959,-0.182 -1.175,-0.409 -5.5,-0.134 -6.883,-0.098 -0.851,0 -1.54,-0.69 -1.54,-1.541 0,-0.851 0.689,-1.541 1.54,-1.541z"/>
   </g>
   <path class="fil1" d="M186.279 24.908c1.591,0 7.24,-0.521 7.973,0.55"/>
  </g>
 </g>
</svg>
