<?xml version="1.0" encoding="UTF-8"?>
<!DOCTYPE svg PUBLIC "-//W3C//DTD SVG 1.1//EN" "http://www.w3.org/Graphics/SVG/1.1/DTD/svg11.dtd">
<!-- Creator: CorelDRAW 2017 -->
<svg xmlns="http://www.w3.org/2000/svg" xml:space="preserve" width="2682px" height="866px" version="1.1" style="shape-rendering:geometricPrecision; text-rendering:geometricPrecision; image-rendering:optimizeQuality; fill-rule:evenodd; clip-rule:evenodd"
viewBox="0 0 452.366 146.126"
 xmlns:xlink="http://www.w3.org/1999/xlink">
 <defs>
  <style type="text/css">
   <![CDATA[
    .fil0 {fill:black;fill-rule:nonzero}
    .fil1 {fill:#3B3A3A;fill-rule:nonzero}
   ]]>
  </style>
    <clipPath id="id0" style="clip-rule:nonzero">
     <path d="M22.331 98.519l22.783 0 -11.09 -50.214 -11.693 50.214zm-22.331 47.607l0 -7.053 5.168 0c1.4,0 2.563,-0.808 3.467,-2.388 0.926,-1.579 1.874,-4.444 2.843,-8.595l28.855 -128.09 5.039 0 31.548 139.073 7.451 0 0 7.053 -40.7 0 0 -7.053 10.229 0 -7.386 -33.501 -25.561 0 -5.556 24.465c-0.129,0.404 -0.215,1.102 -0.28,1.983 -0.065,0.882 -0.108,1.947 -0.108,3.159 0,1.249 0.345,2.204 0.991,2.866 0.646,0.698 1.572,1.028 2.735,1.028l7.515 0 0 7.053 -26.25 0zm90.335 0l0 -7.053 8.657 0 0 -129.596 -8.657 0 0 -6.612 41.863 0 0 6.612 -11.629 0 0 129.596 12.253 0c6.913,0 12.339,-3.122 16.258,-9.367 3.92,-6.281 6.977,-16.75 9.217,-31.407l4.005 0 -0.947 47.827 -71.02 0zm77.265 0l0 -7.053 10.078 0 0 -129.596 -10.337 0 0 -6.612 71.472 0 0.754 41.656 -4.393 0c-2.068,-12.893 -4.824,-21.967 -8.269,-27.183 -3.446,-5.253 -8.442,-7.861 -15.01,-7.861l-12.899 0 0.065 58.847c0.302,0.074 0.668,0.111 1.098,0.147 0.453,0.037 1.034,0.074 1.809,0.074 4.479,0 7.903,-2.094 10.25,-6.245 2.369,-4.151 3.898,-10.8 4.609,-19.983l4.263 0 0 61.051 -4.263 0c-0.453,-9.918 -1.895,-17.007 -4.286,-21.305 -2.39,-4.298 -6.094,-6.465 -11.09,-6.465l-2.455 0 0 63.475 12.275 0 0 7.053 -43.671 0zm77.264 0l0 -7.053 10.336 0 0 -129.596 -10.336 0 0 -6.612 42.379 0 0 6.612 -10.336 0 0 129.596 10.336 0 0 7.053 -42.379 0zm68.586 0l0 -7.053 10.336 0 0 -61.014 -24.548 -68.582 -8.27 0 0 -6.612 42.293 0 0 6.612 -10.357 0 20.565 58.223 14.449 -46.284c0.668,-2.204 1.141,-3.894 1.421,-4.996 0.259,-1.102 0.409,-2.02 0.409,-2.755 0,-1.433 -0.366,-2.498 -1.076,-3.159 -0.711,-0.698 -1.788,-1.029 -3.231,-1.029l-7.235 0 0 -6.612 27.133 0 0 6.612 -3.467 0c-2.24,0 -4.048,0.955 -5.47,2.902 -1.399,1.947 -3.122,6.135 -5.146,12.6l-15.763 50.251 0 63.843 10.336 0 0 7.053 -42.379 0zm76.877 -47.607l22.783 0 -11.09 -50.214 -11.693 50.214zm-22.331 47.607l0 -7.053 5.168 0c1.4,0 2.563,-0.808 3.467,-2.388 0.926,-1.579 1.874,-4.444 2.843,-8.595l28.855 -128.09 5.039 0 31.548 139.073 7.45 0 0 7.053 -40.699 0 0 -7.053 10.229 0 -7.386 -33.501 -25.561 0 -5.556 24.465c-0.129,0.404 -0.216,1.102 -0.28,1.983 -0.065,0.882 -0.108,1.947 -0.108,3.159 0,1.249 0.345,2.204 0.991,2.866 0.646,0.698 1.572,1.028 2.735,1.028l7.515 0 0 7.053 -26.25 0z"/>
    </clipPath>
 </defs>
 <g id="Слой_x0020_1">
  <metadata id="CorelCorpID_0Corel-Layer"/>
  <g>
   <g style="clip-path:url(#id0)">
    <polygon class="fil0" points="18.095,143.203 -602.512,142.586 -602.371,138.882 "/>
    <polygon id="1" class="fil0" points="18.095,143.203 -602.394,139.499 -602.159,136.413 "/>
    <polygon id="2" class="fil0" points="18.095,143.203 -602.206,137.03 -601.853,133.945 "/>
    <polygon id="3" class="fil0" points="18.095,143.203 -601.924,134.562 -601.453,131.478 "/>
    <polygon id="4" class="fil0" points="18.095,143.203 -601.547,132.095 -600.959,129.014 "/>
    <polygon id="5" class="fil0" points="18.095,143.203 -601.076,129.63 -600.37,126.551 "/>
    <polygon id="6" class="fil0" points="18.095,143.203 -600.512,127.167 -599.688,124.091 "/>
    <polygon id="7" class="fil0" points="18.095,143.203 -599.853,124.707 -598.913,121.634 "/>
    <polygon id="8" class="fil0" points="18.095,143.203 -599.101,122.249 -598.043,119.181 "/>
    <polygon id="9" class="fil0" points="18.095,143.203 -598.255,119.794 -597.08,116.73 "/>
    <polygon id="10" class="fil0" points="18.095,143.203 -597.315,117.343 -596.024,114.284 "/>
    <polygon id="11" class="fil0" points="18.095,143.203 -596.282,114.896 -594.874,111.843 "/>
    <polygon id="12" class="fil0" points="18.095,143.203 -595.156,112.453 -593.632,109.406 "/>
    <polygon id="13" class="fil0" points="18.095,143.203 -593.937,110.015 -592.296,106.974 "/>
    <polygon id="14" class="fil0" points="18.095,143.203 -592.624,107.582 -590.868,104.547 "/>
    <polygon id="15" class="fil0" points="18.095,143.203 -591.22,105.154 -589.348,102.127 "/>
    <polygon id="16" class="fil0" points="18.095,143.203 -589.722,102.732 -587.735,99.713 "/>
    <polygon id="17" class="fil0" points="18.095,143.203 -588.133,100.317 -586.03,97.305 "/>
    <polygon id="18" class="fil0" points="18.095,143.203 -586.451,97.907 -584.234,94.904 "/>
    <polygon id="19" class="fil0" points="18.095,143.203 -584.678,95.505 -582.346,92.511 "/>
    <polygon id="20" class="fil0" points="18.095,143.203 -582.813,93.11 -580.367,90.125 "/>
    <polygon id="21" class="fil0" points="18.095,143.203 -580.857,90.722 -578.298,87.748 "/>
    <polygon id="22" class="fil0" points="18.095,143.203 -578.81,88.343 -576.138,85.379 "/>
    <polygon id="23" class="fil0" points="18.095,143.203 -576.672,85.971 -573.887,83.018 "/>
    <polygon id="24" class="fil0" points="18.095,143.203 -574.444,83.609 -571.547,80.667 "/>
    <polygon id="25" class="fil0" points="18.095,143.203 -572.126,81.255 -569.117,78.325 "/>
    <polygon id="26" class="fil0" points="18.095,143.203 -569.719,78.911 -566.598,75.993 "/>
    <polygon id="27" class="fil0" points="18.095,143.203 -567.222,76.577 -563.99,73.672 "/>
    <polygon id="28" class="fil0" points="18.095,143.203 -564.637,74.253 -561.294,71.36 "/>
    <polygon id="29" class="fil0" points="18.095,143.203 -561.963,71.939 -558.511,69.06 "/>
    <polygon id="30" class="fil0" points="18.095,143.203 -559.201,69.636 -555.639,66.771 "/>
    <polygon id="31" class="fil0" points="18.095,143.203 -556.351,67.344 -552.681,64.494 "/>
    <polygon id="32" class="fil0" points="18.095,143.203 -553.415,65.064 -549.635,62.228 "/>
    <polygon id="33" class="fil0" points="18.095,143.203 -550.391,62.795 -546.504,59.975 "/>
    <polygon id="34" class="fil0" points="18.095,143.203 -547.281,60.539 -543.287,57.735 "/>
    <polygon id="35" class="fil0" points="18.095,143.203 -544.086,58.295 -539.985,55.507 "/>
    <polygon id="36" class="fil0" points="18.095,143.203 -540.805,56.065 -536.598,53.293 "/>
    <polygon id="37" class="fil0" points="18.095,143.203 -537.439,53.847 -533.127,51.092 "/>
    <polygon id="38" class="fil0" points="18.095,143.203 -533.989,51.643 -529.572,48.905 "/>
    <polygon id="39" class="fil0" points="18.095,143.203 -530.455,49.453 -525.934,46.733 "/>
    <polygon id="40" class="fil0" points="18.095,143.203 -526.838,47.277 -522.213,44.575 "/>
    <polygon id="41" class="fil0" points="18.095,143.203 -523.138,45.116 -518.411,42.433 "/>
    <polygon id="42" class="fil0" points="18.095,143.203 -519.356,42.969 -514.527,40.305 "/>
    <polygon id="43" class="fil0" points="18.095,143.203 -515.493,40.838 -510.562,38.194 "/>
    <polygon id="44" class="fil0" points="18.095,143.203 -511.548,38.722 -506.517,36.098 "/>
    <polygon id="45" class="fil0" points="18.095,143.203 -507.523,36.623 -502.392,34.018 "/>
    <polygon id="46" class="fil0" points="18.095,143.203 -503.419,34.539 -498.189,31.955 "/>
    <polygon id="47" class="fil0" points="18.095,143.203 -499.235,32.472 -493.907,29.909 "/>
    <polygon id="48" class="fil0" points="18.095,143.203 -494.972,30.421 -489.547,27.88 "/>
    <polygon id="49" class="fil0" points="18.095,143.203 -490.632,28.388 -485.11,25.869 "/>
    <polygon id="50" class="fil0" points="18.095,143.203 -486.215,26.372 -480.597,23.875 "/>
    <polygon id="51" class="fil0" points="18.095,143.203 -481.721,24.374 -476.008,21.899 "/>
    <polygon id="52" class="fil0" points="18.095,143.203 -477.151,22.394 -471.344,19.942 "/>
    <polygon id="53" class="fil0" points="18.095,143.203 -472.506,20.433 -466.606,18.004 "/>
    <polygon id="54" class="fil0" points="18.095,143.203 -467.786,18.49 -461.795,16.084 "/>
    <polygon id="55" class="fil0" points="18.095,143.203 -462.993,16.565 -456.91,14.184 "/>
    <polygon id="56" class="fil0" points="18.095,143.203 -458.127,14.661 -451.954,12.304 "/>
    <polygon id="57" class="fil0" points="18.095,143.203 -453.188,12.775 -446.926,10.443 "/>
    <polygon id="58" class="fil0" points="18.095,143.203 -448.178,10.91 -441.827,8.603 "/>
    <polygon id="59" class="fil0" points="18.095,143.203 -443.097,9.064 -436.659,6.783 "/>
    <polygon id="60" class="fil0" points="18.095,143.203 -437.946,7.239 -431.421,4.983 "/>
    <polygon id="61" class="fil0" points="18.095,143.203 -432.726,5.434 -426.116,3.205 "/>
    <polygon id="62" class="fil0" points="18.095,143.203 -427.438,3.651 -420.743,1.448 "/>
    <polygon id="63" class="fil0" points="18.095,143.203 -422.082,1.888 -415.303,-0.288 "/>
    <polygon id="64" class="fil0" points="18.095,143.203 -416.659,0.147 -409.798,-2.002 "/>
    <polygon id="65" class="fil0" points="18.095,143.203 -411.17,-1.572 -404.227,-3.694 "/>
    <polygon id="66" class="fil0" points="18.095,143.203 -405.616,-3.269 -398.593,-5.363 "/>
    <polygon id="67" class="fil0" points="18.095,143.203 -399.998,-4.944 -392.895,-7.01 "/>
    <polygon id="68" class="fil0" points="18.095,143.203 -394.316,-6.597 -387.135,-8.634 "/>
    <polygon id="69" class="fil0" points="18.095,143.203 -388.571,-8.227 -381.313,-10.235 "/>
    <polygon id="70" class="fil0" points="18.095,143.203 -382.765,-9.834 -375.431,-11.813 "/>
    <polygon id="71" class="fil0" points="18.095,143.203 -376.898,-11.417 -369.489,-13.368 "/>
    <polygon id="72" class="fil0" points="18.095,143.203 -370.971,-12.977 -363.489,-14.898 "/>
    <polygon id="73" class="fil0" points="18.095,143.203 -364.985,-14.514 -357.43,-16.405 "/>
    <polygon id="74" class="fil0" points="18.095,143.203 -358.941,-16.026 -351.314,-17.887 "/>
    <polygon id="75" class="fil0" points="18.095,143.203 -352.84,-17.515 -345.142,-19.345 "/>
    <polygon id="76" class="fil0" points="18.095,143.203 -346.682,-18.979 -338.916,-20.778 "/>
    <polygon id="77" class="fil0" points="18.095,143.203 -340.469,-20.418 -332.635,-22.186 "/>
    <polygon id="78" class="fil0" points="18.095,143.203 -334.201,-21.833 -326.3,-23.569 "/>
    <polygon id="79" class="fil0" points="18.095,143.203 -327.881,-23.222 -319.914,-24.927 "/>
    <polygon id="80" class="fil0" points="18.095,143.203 -321.507,-24.586 -313.476,-26.26 "/>
    <polygon id="81" class="fil0" points="18.095,143.203 -315.082,-25.925 -306.988,-27.566 "/>
    <polygon id="82" class="fil0" points="18.095,143.203 -308.607,-27.238 -300.45,-28.847 "/>
    <polygon id="83" class="fil0" points="18.095,143.203 -302.081,-28.525 -293.864,-30.102 "/>
    <polygon id="84" class="fil0" points="18.095,143.203 -295.508,-29.786 -287.231,-31.33 "/>
    <polygon id="85" class="fil0" points="18.095,143.203 -288.886,-31.021 -280.551,-32.532 "/>
    <polygon id="86" class="fil0" points="18.095,143.203 -282.218,-32.23 -273.826,-33.707 "/>
    <polygon id="87" class="fil0" points="18.095,143.203 -275.505,-33.412 -267.057,-34.855 "/>
    <polygon id="88" class="fil0" points="18.095,143.203 -268.747,-34.566 -260.245,-35.976 "/>
    <polygon id="89" class="fil0" points="18.095,143.203 -261.945,-35.694 -253.39,-37.071 "/>
    <polygon id="90" class="fil0" points="18.095,143.203 -255.101,-36.795 -246.494,-38.137 "/>
    <polygon id="91" class="fil0" points="18.095,143.203 -248.215,-37.869 -239.558,-39.176 "/>
    <polygon id="92" class="fil0" points="18.095,143.203 -241.289,-38.915 -232.583,-40.188 "/>
    <polygon id="93" class="fil0" points="18.095,143.203 -234.324,-39.933 -225.569,-41.172 "/>
    <polygon id="94" class="fil0" points="18.095,143.203 -227.32,-40.924 -218.519,-42.127 "/>
    <polygon id="95" class="fil0" points="18.095,143.203 -220.279,-41.887 -211.433,-43.055 "/>
    <polygon id="96" class="fil0" points="18.095,143.203 -213.202,-42.821 -204.312,-43.954 "/>
    <polygon id="97" class="fil0" points="18.095,143.203 -206.09,-43.728 -197.157,-44.825 "/>
    <polygon id="98" class="fil0" points="18.095,143.203 -198.944,-44.606 -189.97,-45.667 "/>
    <polygon id="99" class="fil0" points="18.095,143.203 -191.765,-45.455 -182.751,-46.481 "/>
    <polygon id="100" class="fil0" points="18.095,143.203 -184.554,-46.276 -175.501,-47.266 "/>
    <polygon id="101" class="fil0" points="18.095,143.203 -177.312,-47.068 -168.222,-48.022 "/>
    <polygon id="102" class="fil0" points="18.095,143.203 -170.04,-47.831 -160.915,-48.749 "/>
    <polygon id="103" class="fil0" points="18.095,143.203 -162.74,-48.565 -153.581,-49.447 "/>
    <polygon id="104" class="fil0" points="18.095,143.203 -155.413,-49.27 -146.221,-50.115 "/>
    <polygon id="105" class="fil0" points="18.095,143.203 -148.059,-49.946 -138.835,-50.754 "/>
    <polygon id="106" class="fil0" points="18.095,143.203 -140.68,-50.593 -131.426,-51.364 "/>
    <polygon id="107" class="fil0" points="18.095,143.203 -133.277,-51.21 -123.994,-51.945 "/>
    <polygon id="108" class="fil0" points="18.095,143.203 -125.851,-51.798 -116.541,-52.495 "/>
    <polygon id="109" class="fil0" points="18.095,143.203 -118.403,-52.356 -109.067,-53.016 "/>
    <polygon id="110" class="fil0" points="18.095,143.203 -110.934,-52.884 -101.574,-53.507 "/>
    <polygon id="111" class="fil0" points="18.095,143.203 -103.446,-53.383 -94.063,-53.969 "/>
    <polygon id="112" class="fil0" points="18.095,143.203 -95.939,-53.851 -86.534,-54.4 "/>
    <polygon id="113" class="fil0" points="18.095,143.203 -88.415,-54.29 -78.99,-54.801 "/>
    <polygon id="114" class="fil0" points="18.095,143.203 -80.875,-54.699 -71.431,-55.173 "/>
    <polygon id="115" class="fil0" points="18.095,143.203 -73.32,-55.078 -63.859,-55.514 "/>
    <polygon id="116" class="fil0" points="18.095,143.203 -65.751,-55.427 -56.274,-55.825 "/>
    <polygon id="117" class="fil0" points="18.095,143.203 -58.169,-55.745 -48.677,-56.106 "/>
    <polygon id="118" class="fil0" points="18.095,143.203 -50.576,-56.034 -41.071,-56.356 "/>
    <polygon id="119" class="fil0" points="18.095,143.203 -42.972,-56.292 -33.456,-56.577 "/>
    <polygon id="120" class="fil0" points="18.095,143.203 -35.359,-56.52 -25.832,-56.767 "/>
    <polygon id="121" class="fil0" points="18.095,143.203 -27.738,-56.717 -18.203,-56.926 "/>
    <polygon id="122" class="fil0" points="18.095,143.203 -20.11,-56.885 -10.567,-57.056 "/>
    <polygon id="123" class="fil0" points="18.095,143.203 -12.476,-57.021 -2.927,-57.154 "/>
    <polygon id="124" class="fil0" points="18.095,143.203 -4.837,-57.128 4.715,-57.223 "/>
    <polygon id="125" class="fil0" points="18.095,143.203 2.805,-57.204 12.36,-57.261 "/>
    <polygon id="126" class="fil0" points="18.095,143.203 10.449,-57.25 20.006,-57.269 "/>
    <polygon id="127" class="fil0" points="18.095,143.203 18.095,-57.265 27.652,-57.246 "/>
    <polygon id="128" class="fil0" points="18.095,143.203 25.74,-57.25 35.296,-57.193 "/>
    <polygon id="129" class="fil0" points="18.095,143.203 33.385,-57.204 42.937,-57.109 "/>
    <polygon id="130" class="fil0" points="18.095,143.203 41.027,-57.128 50.575,-56.995 "/>
    <polygon id="131" class="fil0" points="18.095,143.203 48.665,-57.021 58.208,-56.85 "/>
    <polygon id="132" class="fil0" points="18.095,143.203 56.299,-56.885 65.834,-56.676 "/>
    <polygon id="133" class="fil0" points="18.095,143.203 63.927,-56.717 73.454,-56.47 "/>
    <polygon id="134" class="fil0" points="18.095,143.203 71.548,-56.52 81.065,-56.235 "/>
    <polygon id="135" class="fil0" points="18.095,143.203 79.161,-56.292 88.666,-55.969 "/>
    <polygon id="136" class="fil0" points="18.095,143.203 86.765,-56.034 96.257,-55.673 "/>
    <polygon id="137" class="fil0" points="18.095,143.203 94.359,-55.745 103.836,-55.347 "/>
    <polygon id="138" class="fil0" points="18.095,143.203 101.94,-55.427 111.402,-54.991 "/>
    <polygon id="139" class="fil0" points="18.095,143.203 109.509,-55.078 118.953,-54.604 "/>
    <polygon id="140" class="fil0" points="18.095,143.203 117.065,-54.699 126.49,-54.188 "/>
    <polygon id="141" class="fil0" points="18.095,143.203 124.605,-54.29 134.01,-53.742 "/>
    <polygon id="142" class="fil0" points="18.095,143.203 132.129,-53.851 141.512,-53.265 "/>
    <polygon id="143" class="fil0" points="18.095,143.203 139.635,-53.383 148.996,-52.759 "/>
    <polygon id="144" class="fil0" points="18.095,143.203 147.124,-52.884 156.46,-52.224 "/>
    <polygon id="145" class="fil0" points="18.095,143.203 154.592,-52.356 163.902,-51.658 "/>
    <polygon id="146" class="fil0" points="18.095,143.203 162.04,-51.798 171.323,-51.063 "/>
    <polygon id="147" class="fil0" points="18.095,143.203 169.466,-51.21 178.72,-50.439 "/>
    <polygon id="148" class="fil0" points="18.095,143.203 176.869,-50.593 186.093,-49.785 "/>
    <polygon id="149" class="fil0" points="18.095,143.203 184.248,-49.946 193.441,-49.101 "/>
    <polygon id="150" class="fil0" points="18.095,143.203 191.602,-49.27 200.762,-48.389 "/>
    <polygon id="151" class="fil0" points="18.095,143.203 198.93,-48.565 208.055,-47.648 "/>
    <polygon id="152" class="fil0" points="18.095,143.203 206.23,-47.831 215.319,-46.877 "/>
    <polygon id="153" class="fil0" points="18.095,143.203 213.501,-47.068 222.554,-46.078 "/>
    <polygon id="154" class="fil0" points="18.095,143.203 220.743,-46.276 229.757,-45.25 "/>
    <polygon id="155" class="fil0" points="18.095,143.203 227.954,-45.455 236.928,-44.393 "/>
    <polygon id="156" class="fil0" points="18.095,143.203 235.133,-44.606 244.066,-43.508 "/>
    <polygon id="157" class="fil0" points="18.095,143.203 242.279,-43.728 251.17,-42.595 "/>
    <polygon id="158" class="fil0" points="18.095,143.203 249.392,-42.821 258.238,-41.653 "/>
    <polygon id="159" class="fil0" points="18.095,143.203 256.469,-41.887 265.27,-40.683 "/>
    <polygon id="160" class="fil0" points="18.095,143.203 263.51,-40.924 272.264,-39.686 "/>
    <polygon id="161" class="fil0" points="18.095,143.203 270.513,-39.933 279.22,-38.66 "/>
    <polygon id="162" class="fil0" points="18.095,143.203 277.479,-38.915 286.136,-37.607 "/>
    <polygon id="163" class="fil0" points="18.095,143.203 284.405,-37.869 293.012,-36.527 "/>
    <polygon id="164" class="fil0" points="18.095,143.203 291.29,-36.795 299.846,-35.419 "/>
    <polygon id="165" class="fil0" points="18.095,143.203 298.134,-35.694 306.637,-34.284 "/>
    <polygon id="166" class="fil0" points="18.095,143.203 304.936,-34.566 313.384,-33.123 "/>
    <polygon id="167" class="fil0" points="18.095,143.203 311.694,-33.412 320.086,-31.934 "/>
    <polygon id="168" class="fil0" points="18.095,143.203 318.408,-32.23 326.743,-30.719 "/>
    <polygon id="169" class="fil0" points="18.095,143.203 325.076,-31.021 333.352,-29.478 "/>
    <polygon id="170" class="fil0" points="18.095,143.203 331.697,-29.786 339.914,-28.21 "/>
    <polygon id="171" class="fil0" points="18.095,143.203 338.271,-28.525 346.427,-26.916 "/>
    <polygon id="172" class="fil0" points="18.095,143.203 344.796,-27.238 352.89,-25.597 "/>
    <polygon id="173" class="fil0" points="18.095,143.203 351.271,-25.925 359.303,-24.252 "/>
    <polygon id="174" class="fil0" points="18.095,143.203 357.696,-24.586 365.663,-22.881 "/>
    <polygon id="175" class="fil0" points="18.095,143.203 364.07,-23.222 371.971,-21.485 "/>
    <polygon id="176" class="fil0" points="18.095,143.203 370.391,-21.833 378.225,-20.064 "/>
    <polygon id="177" class="fil0" points="18.095,143.203 376.658,-20.418 384.425,-18.619 "/>
    <polygon id="178" class="fil0" points="18.095,143.203 382.871,-18.979 390.568,-17.149 "/>
    <polygon id="179" class="fil0" points="18.095,143.203 389.029,-17.515 396.656,-15.654 "/>
    <polygon id="180" class="fil0" points="18.095,143.203 395.13,-16.026 402.686,-14.136 "/>
    <polygon id="181" class="fil0" points="18.095,143.203 401.175,-14.514 408.657,-12.593 "/>
    <polygon id="182" class="fil0" points="18.095,143.203 407.16,-12.977 414.569,-11.027 "/>
    <polygon id="183" class="fil0" points="18.095,143.203 413.087,-11.417 420.421,-9.438 "/>
    <polygon id="184" class="fil0" points="18.095,143.203 418.954,-9.834 426.212,-7.825 "/>
    <polygon id="185" class="fil0" points="18.095,143.203 424.761,-8.227 431.941,-6.189 "/>
    <polygon id="186" class="fil0" points="18.095,143.203 430.505,-6.597 437.607,-4.531 "/>
    <polygon id="187" class="fil0" points="18.095,143.203 436.187,-4.944 443.21,-2.85 "/>
    <polygon id="188" class="fil1" points="18.095,143.203 441.805,-3.269 448.748,-1.148 "/>
    <polygon id="189" class="fil1" points="18.095,143.203 447.359,-1.572 454.221,0.577 "/>
    <polygon id="190" class="fil1" points="18.095,143.203 452.848,0.147 459.627,2.324 "/>
    <polygon id="191" class="fil1" points="18.095,143.203 458.271,1.888 464.966,4.091 "/>
    <polygon id="192" class="fil1" points="18.095,143.203 463.627,3.651 470.238,5.88 "/>
    <polygon id="193" class="fil1" points="18.095,143.203 468.916,5.434 475.441,7.69 "/>
    <polygon id="194" class="fil1" points="18.095,143.203 474.136,7.239 480.574,9.52 "/>
    <polygon id="195" class="fil1" points="18.095,143.203 479.287,9.064 485.638,11.371 "/>
    <polygon id="196" class="fil1" points="18.095,143.203 484.368,10.91 490.63,13.242 "/>
    <polygon id="197" class="fil1" points="18.095,143.203 489.378,12.775 495.551,15.132 "/>
    <polygon id="198" class="fil1" points="18.095,143.203 494.316,14.661 500.399,17.042 "/>
    <polygon id="199" class="fil1" points="18.095,143.203 499.182,16.565 505.174,18.971 "/>
    <polygon id="200" class="fil1" points="18.095,143.203 503.976,18.49 509.875,20.918 "/>
    <polygon id="201" class="fil1" points="18.095,143.203 508.695,20.433 514.502,22.885 "/>
    <polygon id="202" class="fil1" points="18.095,143.203 513.34,22.394 519.053,24.869 "/>
    <polygon id="203" class="fil1" points="18.095,143.203 517.91,24.374 523.528,26.872 "/>
    <polygon id="204" class="fil1" points="18.095,143.203 522.404,26.372 527.926,28.892 "/>
    <polygon id="205" class="fil1" points="18.095,143.203 526.822,28.388 532.247,30.93 "/>
    <polygon id="206" class="fil1" points="18.095,143.203 531.162,30.421 536.49,32.984 "/>
    <polygon id="207" class="fil1" points="18.095,143.203 535.424,32.472 540.654,35.056 "/>
    <polygon id="208" class="fil1" points="18.095,143.203 539.608,34.539 544.739,37.144 "/>
    <polygon id="209" class="fil1" points="18.095,143.203 543.713,36.623 548.744,39.247 "/>
    <polygon id="210" class="fil1" points="18.095,143.203 547.738,38.722 552.668,41.367 "/>
    <polygon id="211" class="fil1" points="18.095,143.203 551.682,40.838 556.512,43.502 "/>
    <polygon id="212" class="fil1" points="18.095,143.203 555.546,42.969 560.273,45.652 "/>
    <polygon id="213" class="fil1" points="18.095,143.203 559.328,45.116 563.953,47.817 "/>
    <polygon id="214" class="fil1" points="18.095,143.203 563.028,47.277 567.549,49.997 "/>
    <polygon id="215" class="fil1" points="18.095,143.203 566.645,49.453 571.062,52.191 "/>
    <polygon id="216" class="fil1" points="18.095,143.203 570.179,51.643 574.491,54.398 "/>
    <polygon id="217" class="fil1" points="18.095,143.203 573.629,53.847 577.836,56.619 "/>
    <polygon id="218" class="fil1" points="18.095,143.203 576.994,56.065 581.096,58.853 "/>
    <polygon id="219" class="fil1" points="18.095,143.203 580.275,58.295 584.27,61.1 "/>
    <polygon id="220" class="fil1" points="18.095,143.203 583.471,60.539 587.358,63.359 "/>
    <polygon id="221" class="fil1" points="18.095,143.203 586.581,62.795 590.36,65.631 "/>
    <polygon id="222" class="fil1" points="18.095,143.203 589.604,65.064 593.275,67.914 "/>
    <polygon id="223" class="fil1" points="18.095,143.203 592.541,67.344 596.103,70.209 "/>
    <polygon id="224" class="fil1" points="18.095,143.203 595.39,69.636 598.843,72.515 "/>
    <polygon id="225" class="fil1" points="18.095,143.203 598.152,71.939 601.495,74.831 "/>
    <polygon id="226" class="fil1" points="18.095,143.203 600.826,74.253 604.058,77.158 "/>
    <polygon id="227" class="fil1" points="18.095,143.203 603.412,76.577 606.532,79.495 "/>
    <polygon id="228" class="fil1" points="18.095,143.203 605.908,78.911 608.918,81.841 "/>
    <polygon id="229" class="fil1" points="18.095,143.203 608.316,81.255 611.213,84.197 "/>
    <polygon id="230" class="fil1" points="18.095,143.203 610.633,83.609 613.418,86.562 "/>
    <polygon id="231" class="fil1" points="18.095,143.203 612.861,85.971 615.533,88.936 "/>
    <polygon id="232" class="fil1" points="18.095,143.203 614.999,88.343 617.558,91.317 "/>
    <polygon id="233" class="fil1" points="18.095,143.203 617.046,90.722 619.491,93.707 "/>
    <polygon id="234" class="fil1" points="18.095,143.203 619.002,93.11 621.333,96.104 "/>
    <polygon id="235" class="fil1" points="18.095,143.203 620.867,95.505 623.084,98.508 "/>
    <polygon id="236" class="fil1" points="18.095,143.203 622.64,97.907 624.742,100.919 "/>
    <polygon id="237" class="fil1" points="18.095,143.203 624.322,100.317 626.309,103.336 "/>
    <polygon id="238" class="fil1" points="18.095,143.203 625.912,102.732 627.783,105.76 "/>
    <polygon id="239" class="fil1" points="18.095,143.203 627.409,105.154 629.165,108.189 "/>
    <polygon id="240" class="fil1" points="18.095,143.203 628.814,107.582 630.454,110.623 "/>
    <polygon id="241" class="fil1" points="18.095,143.203 630.126,110.015 631.65,113.063 "/>
    <polygon id="242" class="fil1" points="18.095,143.203 631.345,112.453 632.753,115.507 "/>
    <polygon id="243" class="fil1" points="18.095,143.203 632.472,114.896 633.763,117.955 "/>
    <polygon id="244" class="fil1" points="18.095,143.203 633.504,117.343 634.679,120.407 "/>
    <polygon id="245" class="fil1" points="18.095,143.203 634.444,119.794 635.502,122.863 "/>
    <polygon id="246" class="fil1" points="18.095,143.203 635.29,122.249 636.23,125.321 "/>
    <polygon id="247" class="fil1" points="18.095,143.203 636.042,124.707 636.866,127.782 "/>
    <polygon id="248" class="fil1" points="18.095,143.203 636.701,127.167 637.407,130.246 "/>
    <polygon id="249" class="fil1" points="18.095,143.203 637.266,129.63 637.854,132.712 "/>
    <polygon id="250" class="fil1" points="18.095,143.203 637.736,132.095 638.207,135.179 "/>
    <polygon id="251" class="fil1" points="18.095,143.203 638.113,134.562 638.466,137.647 "/>
    <polygon id="252" class="fil1" points="18.095,143.203 638.395,137.03 638.631,140.116 "/>
    <polygon id="253" class="fil1" points="18.095,143.203 638.584,139.499 638.701,142.586 "/>
    <polygon id="254" class="fil1" points="18.095,143.203 638.678,141.969 638.678,145.056 "/>
    <polygon id="255" class="fil1" points="18.095,143.203 638.678,144.438 638.56,147.525 "/>
    <polygon id="256" class="fil1" points="18.095,143.203 638.584,146.908 638.348,149.994 "/>
    <polygon id="257" class="fil1" points="18.095,143.203 638.395,149.377 638.042,152.462 "/>
    <polygon id="258" class="fil1" points="18.095,143.203 638.113,151.845 637.642,154.928 "/>
    <polygon id="259" class="fil1" points="18.095,143.203 637.736,154.312 637.148,157.393 "/>
    <polygon id="260" class="fil1" points="18.095,143.203 637.266,156.777 636.56,159.856 "/>
    <polygon id="261" class="fil1" points="18.095,143.203 636.701,159.24 635.878,162.315 "/>
    <polygon id="262" class="fil1" points="18.095,143.203 636.042,161.7 635.102,164.773 "/>
    <polygon id="263" class="fil1" points="18.095,143.203 635.29,164.158 634.233,167.226 "/>
    <polygon id="264" class="fil1" points="18.095,143.203 634.444,166.613 633.27,169.676 "/>
    <polygon id="265" class="fil1" points="18.095,143.203 633.504,169.064 632.213,172.123 "/>
    <polygon id="266" class="fil1" points="18.095,143.203 632.472,171.511 631.064,174.564 "/>
    <polygon id="267" class="fil1" points="18.095,143.203 631.345,173.954 629.821,177.001 "/>
    <polygon id="268" class="fil1" points="18.095,143.203 630.126,176.392 628.486,179.433 "/>
    <polygon id="269" class="fil1" points="18.095,143.203 628.814,178.825 627.058,181.859 "/>
    <polygon id="270" class="fil1" points="18.095,143.203 627.409,181.253 625.537,184.28 "/>
    <polygon id="271" class="fil1" points="18.095,143.203 625.912,183.674 623.925,186.694 "/>
    <polygon id="272" class="fil1" points="18.095,143.203 624.322,186.09 622.22,189.102 "/>
    <polygon id="273" class="fil1" points="18.095,143.203 622.64,188.5 620.424,191.502 "/>
    <polygon id="274" class="fil1" points="18.095,143.203 620.867,190.902 618.536,193.896 "/>
    <polygon id="275" class="fil1" points="18.095,143.203 619.002,193.297 616.557,196.281 "/>
    <polygon id="276" class="fil1" points="18.095,143.203 617.046,195.685 614.487,198.659 "/>
    <polygon id="277" class="fil1" points="18.095,143.203 614.999,198.064 612.327,201.028 "/>
    <polygon id="278" class="fil1" points="18.095,143.203 612.861,200.435 610.076,203.389 "/>
    <polygon id="279" class="fil1" points="18.095,143.203 610.633,202.798 607.736,205.74 "/>
    <polygon id="280" class="fil1" points="18.095,143.203 608.316,205.152 605.306,208.082 "/>
    <polygon id="281" class="fil1" points="18.095,143.203 605.908,207.496 602.787,210.414 "/>
    <polygon id="282" class="fil1" points="18.095,143.203 603.412,209.83 600.18,212.735 "/>
    <polygon id="283" class="fil1" points="18.095,143.203 600.826,212.154 597.484,215.047 "/>
    <polygon id="284" class="fil1" points="18.095,143.203 598.152,214.468 594.7,217.347 "/>
    <polygon id="285" class="fil1" points="18.095,143.203 595.39,216.771 591.828,219.636 "/>
    <polygon id="286" class="fil1" points="18.095,143.203 592.541,219.063 588.87,221.913 "/>
    <polygon id="287" class="fil1" points="18.095,143.203 589.604,221.343 585.825,224.179 "/>
    <polygon id="288" class="fil1" points="18.095,143.203 586.581,223.612 582.693,226.432 "/>
    <polygon id="289" class="fil1" points="18.095,143.203 583.471,225.868 579.476,228.672 "/>
    <polygon id="290" class="fil1" points="18.095,143.203 580.275,228.111 576.174,230.9 "/>
    <polygon id="291" class="fil1" points="18.095,143.203 576.994,230.342 572.787,233.114 "/>
    <polygon id="292" class="fil1" points="18.095,143.203 573.629,232.56 569.316,235.315 "/>
    <polygon id="293" class="fil1" points="18.095,143.203 570.179,234.764 565.761,237.501 "/>
    <polygon id="294" class="fil1" points="18.095,143.203 566.645,236.954 562.123,239.674 "/>
    <polygon id="295" class="fil1" points="18.095,143.203 563.028,239.13 558.403,241.831 "/>
    <polygon id="296" class="fil1" points="18.095,143.203 559.328,241.291 554.6,243.974 "/>
    <polygon id="297" class="fil1" points="18.095,143.203 555.546,243.438 550.716,246.102 "/>
    <polygon id="298" class="fil1" points="18.095,143.203 551.682,245.569 546.751,248.213 "/>
    <polygon id="299" class="fil1" points="18.095,143.203 547.738,247.684 542.706,250.309 "/>
    <polygon id="300" class="fil1" points="18.095,143.203 543.713,249.784 538.582,252.389 "/>
    <polygon id="301" class="fil1" points="18.095,143.203 539.608,251.868 534.378,254.452 "/>
    <polygon id="302" class="fil1" points="18.095,143.203 535.424,253.935 530.096,256.498 "/>
    <polygon id="303" class="fil1" points="18.095,143.203 531.162,255.985 525.736,258.527 "/>
    <polygon id="304" class="fil1" points="18.095,143.203 526.822,258.019 521.3,260.538 "/>
    <polygon id="305" class="fil1" points="18.095,143.203 522.404,260.034 516.787,262.532 "/>
    <polygon id="306" class="fil1" points="18.095,143.203 517.91,262.032 512.198,264.508 "/>
    <polygon id="307" class="fil1" points="18.095,143.203 513.34,264.013 507.534,266.465 "/>
    <polygon id="308" class="fil1" points="18.095,143.203 508.695,265.974 502.796,268.403 "/>
    <polygon id="309" class="fil1" points="18.095,143.203 503.976,267.917 497.984,270.322 "/>
    <polygon id="310" class="fil1" points="18.095,143.203 499.182,269.841 493.1,272.223 "/>
    <polygon id="311" class="fil1" points="18.095,143.203 494.316,271.746 488.143,274.103 "/>
    <polygon id="312" class="fil1" points="18.095,143.203 489.378,273.632 483.115,275.964 "/>
    <polygon id="313" class="fil1" points="18.095,143.203 484.368,275.497 478.016,277.804 "/>
    <polygon id="314" class="fil1" points="18.095,143.203 479.287,277.343 472.848,279.624 "/>
    <polygon id="315" class="fil1" points="18.095,143.203 474.136,279.168 467.611,281.424 "/>
    <polygon id="316" class="fil1" points="18.095,143.203 468.916,280.973 462.305,283.202 "/>
    <polygon id="317" class="fil1" points="18.095,143.203 463.627,282.756 456.932,284.959 "/>
    <polygon id="318" class="fil1" points="18.095,143.203 458.271,284.519 451.492,286.695 "/>
    <polygon id="319" class="fil1" points="18.095,143.203 452.848,286.26 445.987,288.409 "/>
    <polygon id="320" class="fil1" points="18.095,143.203 447.359,287.979 440.417,290.1 "/>
    <polygon id="321" class="fil0" points="18.095,143.203 441.805,289.676 434.782,291.77 "/>
    <polygon id="322" class="fil0" points="18.095,143.203 436.187,291.351 429.084,293.417 "/>
    <polygon id="323" class="fil0" points="18.095,143.203 430.505,293.004 423.324,295.041 "/>
    <polygon id="324" class="fil0" points="18.095,143.203 424.761,294.634 417.503,296.642 "/>
    <polygon id="325" class="fil0" points="18.095,143.203 418.954,296.241 411.621,298.22 "/>
    <polygon id="326" class="fil0" points="18.095,143.203 413.087,297.824 405.679,299.774 "/>
    <polygon id="327" class="fil0" points="18.095,143.203 407.16,299.384 399.678,301.305 "/>
    <polygon id="328" class="fil0" points="18.095,143.203 401.175,300.921 393.619,302.811 "/>
    <polygon id="329" class="fil0" points="18.095,143.203 395.13,302.433 387.504,304.294 "/>
    <polygon id="330" class="fil0" points="18.095,143.203 389.029,303.922 381.332,305.752 "/>
    <polygon id="331" class="fil0" points="18.095,143.203 382.871,305.386 375.105,307.185 "/>
    <polygon id="332" class="fil0" points="18.095,143.203 376.658,306.825 368.824,308.593 "/>
    <polygon id="333" class="fil0" points="18.095,143.203 370.391,308.239 362.49,309.976 "/>
    <polygon id="334" class="fil0" points="18.095,143.203 364.07,309.629 356.103,311.334 "/>
    <polygon id="335" class="fil0" points="18.095,143.203 357.696,310.993 349.665,312.667 "/>
    <polygon id="336" class="fil0" points="18.095,143.203 351.271,312.332 343.177,313.973 "/>
    <polygon id="337" class="fil0" points="18.095,143.203 344.796,313.645 336.639,315.254 "/>
    <polygon id="338" class="fil0" points="18.095,143.203 338.271,314.932 330.053,316.509 "/>
    <polygon id="339" class="fil0" points="18.095,143.203 331.697,316.193 323.42,317.737 "/>
    <polygon id="340" class="fil0" points="18.095,143.203 325.076,317.428 316.741,318.939 "/>
    <polygon id="341" class="fil0" points="18.095,143.203 318.408,318.637 310.016,320.114 "/>
    <polygon id="342" class="fil0" points="18.095,143.203 311.694,319.818 303.247,321.262 "/>
    <polygon id="343" class="fil0" points="18.095,143.203 304.936,320.973 296.434,322.383 "/>
    <polygon id="344" class="fil0" points="18.095,143.203 298.134,322.101 289.579,323.477 "/>
    <polygon id="345" class="fil0" points="18.095,143.203 291.29,323.202 282.683,324.544 "/>
    <polygon id="346" class="fil0" points="18.095,143.203 284.405,324.276 275.747,325.583 "/>
    <polygon id="347" class="fil0" points="18.095,143.203 277.479,325.322 268.772,326.595 "/>
    <polygon id="348" class="fil0" points="18.095,143.203 270.513,326.34 261.759,327.579 "/>
    <polygon id="349" class="fil0" points="18.095,143.203 263.51,327.331 254.709,328.534 "/>
    <polygon id="350" class="fil0" points="18.095,143.203 256.469,328.294 247.622,329.462 "/>
    <polygon id="351" class="fil0" points="18.095,143.203 249.392,329.228 240.501,330.361 "/>
    <polygon id="352" class="fil0" points="18.095,143.203 242.279,330.134 233.347,331.232 "/>
    <polygon id="353" class="fil0" points="18.095,143.203 235.133,331.012 226.159,332.074 "/>
    <polygon id="354" class="fil0" points="18.095,143.203 227.954,331.862 218.94,332.888 "/>
    <polygon id="355" class="fil0" points="18.095,143.203 220.743,332.683 211.691,333.673 "/>
    <polygon id="356" class="fil0" points="18.095,143.203 213.501,333.475 204.412,334.429 "/>
    <polygon id="357" class="fil0" points="18.095,143.203 206.23,334.238 197.105,335.156 "/>
    <polygon id="358" class="fil0" points="18.095,143.203 198.93,334.972 189.77,335.854 "/>
    <polygon id="359" class="fil0" points="18.095,143.203 191.602,335.677 182.41,336.522 "/>
    <polygon id="360" class="fil0" points="18.095,143.203 184.248,336.353 175.025,337.161 "/>
    <polygon id="361" class="fil0" points="18.095,143.203 176.869,337 167.615,337.771 "/>
    <polygon id="362" class="fil0" points="18.095,143.203 169.466,337.617 160.184,338.351 "/>
    <polygon id="363" class="fil0" points="18.095,143.203 162.04,338.205 152.73,338.902 "/>
    <polygon id="364" class="fil0" points="18.095,143.203 154.592,338.763 145.256,339.423 "/>
    <polygon id="365" class="fil0" points="18.095,143.203 147.124,339.291 137.763,339.914 "/>
    <polygon id="366" class="fil0" points="18.095,143.203 139.635,339.79 130.252,340.376 "/>
    <polygon id="367" class="fil0" points="18.095,143.203 132.129,340.258 122.724,340.807 "/>
    <polygon id="368" class="fil0" points="18.095,143.203 124.605,340.697 115.179,341.208 "/>
    <polygon id="369" class="fil0" points="18.095,143.203 117.065,341.106 107.621,341.58 "/>
    <polygon id="370" class="fil0" points="18.095,143.203 109.509,341.485 100.048,341.921 "/>
    <polygon id="371" class="fil0" points="18.095,143.203 101.94,341.834 92.463,342.232 "/>
    <polygon id="372" class="fil0" points="18.095,143.203 94.359,342.152 84.867,342.513 "/>
    <polygon id="373" class="fil0" points="18.095,143.203 86.765,342.441 77.26,342.763 "/>
    <polygon id="374" class="fil0" points="18.095,143.203 79.161,342.699 69.645,342.984 "/>
    <polygon id="375" class="fil0" points="18.095,143.203 71.548,342.927 62.022,343.174 "/>
    <polygon id="376" class="fil0" points="18.095,143.203 63.927,343.124 54.392,343.333 "/>
    <polygon id="377" class="fil0" points="18.095,143.203 56.299,343.291 46.757,343.462 "/>
    <polygon id="378" class="fil0" points="18.095,143.203 48.665,343.428 39.117,343.561 "/>
    <polygon id="379" class="fil0" points="18.095,143.203 41.027,343.535 31.474,343.63 "/>
    <polygon id="380" class="fil0" points="18.095,143.203 33.385,343.611 23.829,343.668 "/>
    <polygon id="381" class="fil0" points="18.095,143.203 25.74,343.656 16.183,343.675 "/>
    <polygon id="382" class="fil0" points="18.095,143.203 18.095,343.672 8.538,343.653 "/>
    <polygon id="383" class="fil0" points="18.095,143.203 10.449,343.656 0.894,343.599 "/>
    <polygon id="384" class="fil0" points="18.095,143.203 2.805,343.611 -6.748,343.516 "/>
    <polygon id="385" class="fil0" points="18.095,143.203 -4.837,343.535 -14.386,343.402 "/>
    <polygon id="386" class="fil0" points="18.095,143.203 -12.476,343.428 -22.018,343.257 "/>
    <polygon id="387" class="fil0" points="18.095,143.203 -20.11,343.291 -29.645,343.082 "/>
    <polygon id="388" class="fil0" points="18.095,143.203 -27.738,343.124 -37.264,342.877 "/>
    <polygon id="389" class="fil0" points="18.095,143.203 -35.359,342.927 -44.875,342.642 "/>
    <polygon id="390" class="fil0" points="18.095,143.203 -42.972,342.699 -52.477,342.376 "/>
    <polygon id="391" class="fil0" points="18.095,143.203 -50.576,342.441 -60.068,342.08 "/>
    <polygon id="392" class="fil0" points="18.095,143.203 -58.169,342.152 -67.646,341.754 "/>
    <polygon id="393" class="fil0" points="18.095,143.203 -65.751,341.834 -75.212,341.398 "/>
    <polygon id="394" class="fil0" points="18.095,143.203 -73.32,341.485 -82.764,341.011 "/>
    <polygon id="395" class="fil0" points="18.095,143.203 -80.875,341.106 -90.3,340.595 "/>
    <polygon id="396" class="fil0" points="18.095,143.203 -88.415,340.697 -97.82,340.149 "/>
    <polygon id="397" class="fil0" points="18.095,143.203 -95.939,340.258 -105.323,339.672 "/>
    <polygon id="398" class="fil0" points="18.095,143.203 -103.446,339.79 -112.806,339.166 "/>
    <polygon id="399" class="fil0" points="18.095,143.203 -110.934,339.291 -120.27,338.631 "/>
    <polygon id="400" class="fil0" points="18.095,143.203 -118.403,338.763 -127.713,338.065 "/>
    <polygon id="401" class="fil0" points="18.095,143.203 -125.851,338.205 -135.134,337.47 "/>
    <polygon id="402" class="fil0" points="18.095,143.203 -133.277,337.617 -142.531,336.845 "/>
    <polygon id="403" class="fil0" points="18.095,143.203 -140.68,337 -149.904,336.192 "/>
    <polygon id="404" class="fil0" points="18.095,143.203 -148.059,336.353 -157.251,335.508 "/>
    <polygon id="405" class="fil0" points="18.095,143.203 -155.413,335.677 -164.572,334.796 "/>
    <polygon id="406" class="fil0" points="18.095,143.203 -162.74,334.972 -171.865,334.054 "/>
    <polygon id="407" class="fil0" points="18.095,143.203 -170.04,334.238 -179.13,333.284 "/>
    <polygon id="408" class="fil0" points="18.095,143.203 -177.312,333.475 -186.364,332.485 "/>
    <polygon id="409" class="fil0" points="18.095,143.203 -184.554,332.683 -193.568,331.657 "/>
    <polygon id="410" class="fil0" points="18.095,143.203 -191.765,331.862 -200.739,330.8 "/>
    <polygon id="411" class="fil0" points="18.095,143.203 -198.944,331.012 -207.877,329.915 "/>
    <polygon id="412" class="fil0" points="18.095,143.203 -206.09,330.134 -214.98,329.002 "/>
    <polygon id="413" class="fil0" points="18.095,143.203 -213.202,329.228 -222.049,328.06 "/>
    <polygon id="414" class="fil0" points="18.095,143.203 -220.279,328.294 -229.081,327.09 "/>
    <polygon id="415" class="fil0" points="18.095,143.203 -227.32,327.331 -236.075,326.093 "/>
    <polygon id="416" class="fil0" points="18.095,143.203 -234.324,326.34 -243.031,325.067 "/>
    <polygon id="417" class="fil0" points="18.095,143.203 -241.289,325.322 -249.947,324.014 "/>
    <polygon id="418" class="fil0" points="18.095,143.203 -248.215,324.276 -256.823,322.934 "/>
    <polygon id="419" class="fil0" points="18.095,143.203 -255.101,323.202 -263.656,321.826 "/>
    <polygon id="420" class="fil0" points="18.095,143.203 -261.945,322.101 -270.447,320.691 "/>
    <polygon id="421" class="fil0" points="18.095,143.203 -268.747,320.973 -277.194,319.53 "/>
    <polygon id="422" class="fil0" points="18.095,143.203 -275.505,319.818 -283.897,318.341 "/>
    <polygon id="423" class="fil0" points="18.095,143.203 -282.218,318.637 -290.553,317.126 "/>
    <polygon id="424" class="fil0" points="18.095,143.203 -288.886,317.428 -297.163,315.885 "/>
    <polygon id="425" class="fil0" points="18.095,143.203 -295.508,316.193 -303.725,314.617 "/>
    <polygon id="426" class="fil0" points="18.095,143.203 -302.081,314.932 -310.238,313.323 "/>
    <polygon id="427" class="fil0" points="18.095,143.203 -308.607,313.645 -316.701,312.004 "/>
    <polygon id="428" class="fil0" points="18.095,143.203 -315.082,312.332 -323.113,310.658 "/>
    <polygon id="429" class="fil0" points="18.095,143.203 -321.507,310.993 -329.474,309.288 "/>
    <polygon id="430" class="fil0" points="18.095,143.203 -327.881,309.629 -335.782,307.892 "/>
    <polygon id="431" class="fil0" points="18.095,143.203 -334.201,308.239 -342.036,306.471 "/>
    <polygon id="432" class="fil0" points="18.095,143.203 -340.469,306.825 -348.235,305.026 "/>
    <polygon id="433" class="fil0" points="18.095,143.203 -346.682,305.386 -354.379,303.556 "/>
    <polygon id="434" class="fil0" points="18.095,143.203 -352.84,303.922 -360.466,302.061 "/>
    <polygon id="435" class="fil0" points="18.095,143.203 -358.941,302.433 -366.496,300.543 "/>
    <polygon id="436" class="fil0" points="18.095,143.203 -364.985,300.921 -372.468,299 "/>
    <polygon id="437" class="fil0" points="18.095,143.203 -370.971,299.384 -378.38,297.434 "/>
    <polygon id="438" class="fil0" points="18.095,143.203 -376.898,297.824 -384.232,295.845 "/>
    <polygon id="439" class="fil0" points="18.095,143.203 -382.765,296.241 -390.023,294.232 "/>
    <polygon id="440" class="fil0" points="18.095,143.203 -388.571,294.634 -395.752,292.596 "/>
    <polygon id="441" class="fil0" points="18.095,143.203 -394.316,293.004 -401.418,290.938 "/>
    <polygon id="442" class="fil0" points="18.095,143.203 -399.998,291.351 -407.021,289.257 "/>
    <polygon id="443" class="fil0" points="18.095,143.203 -405.616,289.676 -412.559,287.554 "/>
    <polygon id="444" class="fil0" points="18.095,143.203 -411.17,287.979 -418.031,285.83 "/>
    <polygon id="445" class="fil0" points="18.095,143.203 -416.659,286.26 -423.438,284.083 "/>
    <polygon id="446" class="fil0" points="18.095,143.203 -422.082,284.519 -428.777,282.316 "/>
    <polygon id="447" class="fil0" points="18.095,143.203 -427.438,282.756 -434.049,280.527 "/>
    <polygon id="448" class="fil0" points="18.095,143.203 -432.726,280.973 -439.252,278.717 "/>
    <polygon id="449" class="fil0" points="18.095,143.203 -437.946,279.168 -444.385,276.887 "/>
    <polygon id="450" class="fil0" points="18.095,143.203 -443.097,277.343 -449.448,275.036 "/>
    <polygon id="451" class="fil0" points="18.095,143.203 -448.178,275.497 -454.441,273.165 "/>
    <polygon id="452" class="fil0" points="18.095,143.203 -453.188,273.632 -459.361,271.275 "/>
    <polygon id="453" class="fil0" points="18.095,143.203 -458.127,271.746 -464.21,269.365 "/>
    <polygon id="454" class="fil0" points="18.095,143.203 -462.993,269.841 -468.985,267.436 "/>
    <polygon id="455" class="fil0" points="18.095,143.203 -467.786,267.917 -473.686,265.488 "/>
    <polygon id="456" class="fil0" points="18.095,143.203 -472.506,265.974 -478.312,263.522 "/>
    <polygon id="457" class="fil0" points="18.095,143.203 -477.151,264.013 -482.863,261.537 "/>
    <polygon id="458" class="fil0" points="18.095,143.203 -481.721,262.032 -487.338,259.535 "/>
    <polygon id="459" class="fil0" points="18.095,143.203 -486.215,260.034 -491.737,257.515 "/>
    <polygon id="460" class="fil0" points="18.095,143.203 -490.632,258.019 -496.058,255.477 "/>
    <polygon id="461" class="fil0" points="18.095,143.203 -494.972,255.985 -500.3,253.422 "/>
    <polygon id="462" class="fil0" points="18.095,143.203 -499.235,253.935 -504.465,251.351 "/>
    <polygon id="463" class="fil0" points="18.095,143.203 -503.419,251.868 -508.55,249.263 "/>
    <polygon id="464" class="fil0" points="18.095,143.203 -507.523,249.784 -512.555,247.159 "/>
    <polygon id="465" class="fil0" points="18.095,143.203 -511.548,247.684 -516.479,245.04 "/>
    <polygon id="466" class="fil0" points="18.095,143.203 -515.493,245.569 -520.322,242.905 "/>
    <polygon id="467" class="fil0" points="18.095,143.203 -519.356,243.438 -524.084,240.755 "/>
    <polygon id="468" class="fil0" points="18.095,143.203 -523.138,241.291 -527.763,238.589 "/>
    <polygon id="469" class="fil0" points="18.095,143.203 -526.838,239.13 -531.36,236.41 "/>
    <polygon id="470" class="fil0" points="18.095,143.203 -530.455,236.954 -534.873,234.216 "/>
    <polygon id="471" class="fil0" points="18.095,143.203 -533.989,234.764 -538.302,232.009 "/>
    <polygon id="472" class="fil0" points="18.095,143.203 -537.439,232.56 -541.646,229.788 "/>
    <polygon id="473" class="fil0" points="18.095,143.203 -540.805,230.342 -544.906,227.554 "/>
    <polygon id="474" class="fil0" points="18.095,143.203 -544.086,228.111 -548.08,225.307 "/>
    <polygon id="475" class="fil0" points="18.095,143.203 -547.281,225.868 -551.169,223.047 "/>
    <polygon id="476" class="fil0" points="18.095,143.203 -550.391,223.612 -554.171,220.776 "/>
    <polygon id="477" class="fil0" points="18.095,143.203 -553.415,221.343 -557.086,218.493 "/>
    <polygon id="478" class="fil0" points="18.095,143.203 -556.351,219.063 -559.913,216.198 "/>
    <polygon id="479" class="fil0" points="18.095,143.203 -559.201,216.771 -562.653,213.892 "/>
    <polygon id="480" class="fil0" points="18.095,143.203 -561.963,214.468 -565.305,211.576 "/>
    <polygon id="481" class="fil0" points="18.095,143.203 -564.637,212.154 -567.869,209.249 "/>
    <polygon id="482" class="fil0" points="18.095,143.203 -567.222,209.83 -570.343,206.912 "/>
    <polygon id="483" class="fil0" points="18.095,143.203 -569.719,207.496 -572.728,204.565 "/>
    <polygon id="484" class="fil0" points="18.095,143.203 -572.126,205.152 -575.024,202.21 "/>
    <polygon id="485" class="fil0" points="18.095,143.203 -574.444,202.798 -577.229,199.845 "/>
    <polygon id="486" class="fil0" points="18.095,143.203 -576.672,200.435 -579.344,197.471 "/>
    <polygon id="487" class="fil0" points="18.095,143.203 -578.81,198.064 -581.368,195.09 "/>
    <polygon id="488" class="fil0" points="18.095,143.203 -580.857,195.685 -583.302,192.7 "/>
    <polygon id="489" class="fil0" points="18.095,143.203 -582.813,193.297 -585.144,190.303 "/>
    <polygon id="490" class="fil0" points="18.095,143.203 -584.678,190.902 -586.894,187.899 "/>
    <polygon id="491" class="fil0" points="18.095,143.203 -586.451,188.5 -588.553,185.488 "/>
    <polygon id="492" class="fil0" points="18.095,143.203 -588.133,186.09 -590.12,183.07 "/>
    <polygon id="493" class="fil0" points="18.095,143.203 -589.722,183.674 -591.594,180.647 "/>
    <polygon id="494" class="fil0" points="18.095,143.203 -591.22,181.253 -592.976,178.218 "/>
    <polygon id="495" class="fil0" points="18.095,143.203 -592.624,178.825 -594.265,175.783 "/>
    <polygon id="496" class="fil0" points="18.095,143.203 -593.937,176.392 -595.461,173.344 "/>
    <polygon id="497" class="fil0" points="18.095,143.203 -595.156,173.954 -596.564,170.9 "/>
    <polygon id="498" class="fil0" points="18.095,143.203 -596.282,171.511 -597.573,168.452 "/>
    <polygon id="499" class="fil0" points="18.095,143.203 -597.315,169.064 -598.49,166 "/>
    <polygon id="500" class="fil0" points="18.095,143.203 -598.255,166.613 -599.312,163.544 "/>
    <polygon id="501" class="fil0" points="18.095,143.203 -599.101,164.158 -600.041,161.086 "/>
    <polygon id="502" class="fil0" points="18.095,143.203 -599.853,161.7 -600.676,158.625 "/>
    <polygon id="503" class="fil0" points="18.095,143.203 -600.512,159.24 -601.217,156.161 "/>
    <polygon id="504" class="fil0" points="18.095,143.203 -601.076,156.777 -601.665,153.695 "/>
    <polygon id="505" class="fil0" points="18.095,143.203 -601.547,154.312 -602.018,151.228 "/>
    <polygon id="506" class="fil0" points="18.095,143.203 -601.924,151.845 -602.277,148.76 "/>
    <polygon id="507" class="fil0" points="18.095,143.203 -602.206,149.377 -602.441,146.291 "/>
    <polygon id="508" class="fil0" points="18.095,143.203 -602.394,146.908 -602.512,143.821 "/>
    <polygon id="509" class="fil0" points="18.095,143.203 -602.489,144.438 -602.489,141.969 "/>
   </g>
  </g>
 </g>
</svg>
