<?xml version="1.0" encoding="UTF-8"?>
<!DOCTYPE svg PUBLIC "-//W3C//DTD SVG 1.1//EN" "http://www.w3.org/Graphics/SVG/1.1/DTD/svg11.dtd">
<!-- Creator: CorelDRAW 2017 -->
<svg xmlns="http://www.w3.org/2000/svg" xml:space="preserve" width="2136px" height="528px" version="1.1" style="shape-rendering:geometricPrecision; text-rendering:geometricPrecision; image-rendering:optimizeQuality; fill-rule:evenodd; clip-rule:evenodd"
viewBox="0 0 101.221 25.021"
 xmlns:xlink="http://www.w3.org/1999/xlink">
 <defs>
  <style type="text/css">
   <![CDATA[
    .fil1 {fill:none}
    .fil0 {fill:#780707}
   ]]>
  </style>
 </defs>
 <g id="Слой_x0020_1">
  <metadata id="CorelCorpID_0Corel-Layer"/>
  <g id="_2701783875760">
   <g>
    <path class="fil0" d="M8.561 8.03c-1.705,3.184 -2.68,6.719 -4.459,9.862 -1.213,2.141 -2.419,4.344 -3.675,6.456 -0.306,0.515 -0.198,0.355 -0.427,0.673 0.296,-0.738 0.591,-1.917 0.814,-2.705 0.657,-2.321 1.391,-5.5 2.281,-7.63 1.008,-2.411 2.268,-5.683 3.508,-7.931l1.958 1.275z"/>
   </g>
   <path class="fil1" d="M7.582 7.393c-0.92,1.413 -7.404,17.587 -7.582,17.628"/>
   <g>
    <path class="fil0" d="M11.212 8.794c-0.148,2.112 -0.457,4.192 -0.608,6.289 -0.171,2.377 -0.659,3.587 -0.461,6.09 0.055,0.688 0.152,1.277 0.282,1.952 -1.338,-2.4 -2.35,-5.448 -2.151,-8.213 0.15,-2.092 0.459,-4.165 0.606,-6.268l2.332 0.15z"/>
   </g>
   <path class="fil1" d="M10.046 8.719c-0.319,4.966 -1.568,9.317 0.379,14.406"/>
   <g>
    <path class="fil0" d="M2.275 15.891c1.279,-0.014 2.384,-0.102 3.653,-0.225 1.047,-0.101 2.691,0.307 3.747,0.545 0.522,0.117 0.609,0.145 1.13,0.28 -0.56,0.16 -1.078,0.315 -1.629,0.504 -0.589,0.203 -2.049,0.827 -2.497,0.937 -0.733,0.181 -3.552,0.287 -4.404,0.296l0 -2.337z"/>
   </g>
   <path class="fil1" d="M2.275 17.06c3.105,0 5.474,-0.569 8.53,-0.569"/>
   <g>
    <path class="fil0" d="M18.796 1.866c0.023,2.055 -0.12,6.063 -0.937,7.991 -0.713,1.684 -1.943,3.964 -3.684,4.711l-0.717 0.217c0.767,-0.546 1.003,-0.713 1.455,-1.6 0.878,-1.724 0.698,-3.079 0.997,-4.809 0.402,-2.325 0.577,-4.048 0.55,-6.451l2.336 -0.059z"/>
   </g>
   <path class="fil1" d="M17.628 1.896c0.085,3.31 -0.504,11.62 -4.17,12.889"/>
   <g>
    <path class="fil0" d="M19.745 1.706c0.087,2.581 0.555,3.84 1.078,6.185 0.302,1.351 0.44,5.247 0.315,6.53l-0.098 0.743c-0.428,-2.038 -1.104,-3.538 -1.952,-5.414 -1.048,-2.319 -1.597,-5.546 -1.68,-8.044l2.337 0z"/>
   </g>
   <path class="fil1" d="M18.576 1.706c0,4.336 2.464,9.632 2.464,13.458"/>
   <g>
    <path class="fil0" d="M25.426 7.855c0.171,1.919 0.632,6.921 0.431,8.635 -0.298,2.534 -0.66,5.059 -1.026,7.583 -0.177,-1.219 -0.354,-2.439 -0.539,-3.657 -0.198,-1.303 -0.681,-3.632 -0.726,-4.817 -0.094,-2.542 -0.241,-4.997 -0.467,-7.532l2.327 -0.212z"/>
   </g>
   <path class="fil1" d="M24.263 7.961c0.538,5.926 0.568,10.246 0.568,16.112"/>
   <g>
    <path class="fil0" d="M24.642 13.238c3.872,0.019 8.562,0.428 8.8,5.402 0.088,1.842 -0.456,2.406 -2.342,2.723 -2.409,0.405 -6.774,0.119 -9.301,-0.133 1.355,-0.158 7.869,-1.1 9.298,-1.983l0.011 -0.502c-0.153,-3.281 -4.003,-3.158 -6.466,-3.171l0 -2.336zm6.539 5.952c0.07,-0.051 0.123,-0.101 0.155,-0.152 -0.071,0.036 -0.12,0.089 -0.155,0.152z"/>
   </g>
   <path class="fil1" d="M24.642 14.406c3.414,0 8.018,0.178 7.614,5.167 -0.111,1.371 -8.514,1.657 -10.457,1.657"/>
   <g>
    <path class="fil0" d="M37.942 0c-0.011,3.247 -0.139,6.545 -0.257,9.793 -0.057,1.567 -0.429,3.615 -0.596,5.259 -0.193,1.897 -0.307,3.702 -0.316,5.609l-0.131 -0.585c-0.534,-2.466 -1.342,-7.933 -1.293,-10.35 0.067,-3.25 0.245,-6.464 0.256,-9.726l2.337 0z"/>
   </g>
   <path class="fil1" d="M36.773 0c0,6.529 -0.731,14.393 0,20.661"/>
   <g>
    <path class="fil0" d="M35.703 9.886c-3.135,0.16 -9.57,0.071 -8.728,-4.688 0.336,-1.897 1.485,-2.353 3.223,-2.935 3.769,-1.261 11.127,-2.29 14.55,0.155 1.886,1.347 1.79,3.396 0.637,5.221 -1.602,2.533 -7.067,2.53 -9.749,2.407 2.18,-0.144 7.711,-0.755 8.762,-2.932 2.184,-4.524 -4.004,-4.006 -6.6,-3.852 -1.674,0.099 -7.044,0.802 -8.389,1.898l-0.136 0.462c-0.426,2.332 4.981,1.998 6.296,1.931l0.134 2.333z"/>
   </g>
   <path class="fil1" d="M35.636 8.719c-2.265,0.13 -9.009,0.354 -7.284,-4.088 0.831,-2.142 20.99,-5.621 16.539,2.745 -1.209,2.275 -6.816,2.67 -9.255,2.67"/>
   <g>
    <path class="fil0" d="M47.564 10.176c-0.181,1.608 -0.216,4.086 -0.611,5.531 -0.401,1.462 -0.897,2.903 -1.271,4.386 -0.284,-1.397 -0.578,-3.129 -0.757,-4.528 -0.192,-1.498 0.153,-4.494 0.392,-6.028l2.247 0.639z"/>
   </g>
   <path class="fil1" d="M46.44 9.857c-0.159,0.562 -0.758,9.092 -0.758,10.236"/>
   <g>
    <path class="fil0" d="M44.851 17.817c1.236,-1.834 6.27,-8.511 8.099,-9.017 1.159,-0.321 2.022,0.405 1.929,1.577 -0.19,2.385 -0.982,5.477 -1.361,7.954 -0.1,0.657 -0.178,1.291 -0.254,1.951l-0.064 -0.666c-0.078,-0.884 -0.214,-5.589 -0.328,-7.954 -1.371,1.3 -3.257,3.708 -4.184,4.907 -0.502,0.65 -1.329,1.88 -1.796,2.387l-2.041 -1.139zm7.955 -7.268c-0.012,-0.131 -0.023,-0.215 -0.033,-0.239 -0.037,0.079 -0.02,0.161 0.033,0.239z"/>
   </g>
   <path class="fil1" d="M45.872 18.387c0.081,-0.145 8.009,-11.036 7.961,-8.027 -0.054,3.32 -0.569,6.341 -0.569,9.922"/>
   <g>
    <path class="fil0" d="M56.897 3.791c0,1.797 0,3.594 0,5.39 0,1.094 -0.093,1.26 -0.292,2.311 -0.292,1.54 -0.584,3.08 -0.877,4.62 -0.292,-1.54 -0.584,-3.08 -0.876,-4.62 -0.199,-1.051 -0.292,-1.217 -0.292,-2.311 0,-1.796 0,-3.593 0,-5.39l2.337 0z"/>
   </g>
   <path class="fil1" d="M55.728 3.791c0,4.107 0,8.214 0,12.321"/>
   <g>
    <path class="fil0" d="M56.866 8.309c2.375,0 1.367,-0.232 3.412,1.169 -2.045,1.4 -1.037,1.168 -3.412,1.168l0 -2.337z"/>
   </g>
   <path class="fil1" d="M56.866 9.478c1.137,0 2.274,0 3.412,0"/>
   <g>
    <path class="fil0" d="M66.502 9.478c-0.08,-2.086 -0.821,-3.945 -3.269,-2.77 -2.096,1.006 -3.066,3.402 -3.185,5.607 0.752,0.713 3.157,0.708 4.047,0.504 1.788,-0.409 2.795,-1.389 3.575,-2.962 -0.45,1.535 -1.128,2.591 -2.569,3.435 -1.573,0.922 -4.938,1.468 -6.393,0.179 -0.746,-0.661 -0.68,-2.15 -0.606,-3.04 0.278,-3.376 3.798,-7.023 7.305,-6.311 2.659,0.539 3.34,2.996 3.432,5.358l-2.337 0zm-6.486 2.805c-0.013,-0.033 -0.031,-0.063 -0.064,-0.098l-0.015 0.003c0.023,0.033 0.05,0.064 0.079,0.095z"/>
   </g>
   <path class="fil1" d="M67.67 9.478c0,-7.663 -9.228,-4.003 -8.546,3 0.125,1.28 6.802,2.417 8.546,-2.621"/>
   <g>
    <path class="fil0" d="M71.682 10.804c-0.007,2.129 -0.158,4.165 -0.203,6.258 -0.007,0.325 -0.012,0.452 -0.01,0.55 0.968,-0.093 1.891,-0.218 2.914,-0.27 2.329,-0.119 4.441,0.012 6.746,0.286 -1.998,0.264 -3.84,0.595 -5.781,1.152 -0.934,0.267 -3.102,1.117 -3.905,1.181 -2.087,0.165 -2.335,-1.223 -2.299,-2.973 0.041,-2.066 0.194,-4.081 0.201,-6.184l2.337 0z"/>
   </g>
   <path class="fil1" d="M70.514 10.804c0,12.218 -2.618,6.824 10.615,6.824"/>
   <g>
    <path class="fil0" d="M76.933 10.636c0.227,1.053 0.495,3.007 0.158,4.065 -0.296,0.929 -0.741,2 -1.08,2.927 -0.321,-0.951 -0.688,-1.989 -0.983,-2.945 -0.269,-0.871 -0.1,-2.239 -0.319,-3.331l2.224 -0.716z"/>
   </g>
   <path class="fil1" d="M75.821 10.994c0.389,1.208 0.19,5.122 0.19,6.634"/>
   <g>
    <path class="fil0" d="M82.866 10.236c0,1.41 0,2.819 0,4.229 0,1.194 -0.449,2.461 -0.731,3.625 -0.146,0.605 -0.292,1.209 -0.438,1.813 -0.146,-0.604 -0.292,-1.208 -0.438,-1.813 -0.282,-1.164 -0.73,-2.431 -0.73,-3.625 0,-1.41 0,-2.819 0,-4.229l2.337 0z"/>
   </g>
   <path class="fil1" d="M81.697 10.236c0,3.222 0,6.445 0,9.667"/>
   <g>
    <path class="fil0" d="M86.278 3.791c0.005,1.733 0.036,3.455 0.076,5.187 0.035,1.488 -0.372,3.052 -0.637,4.52 -0.135,0.747 -0.275,1.49 -0.418,2.235 -0.148,-0.743 -0.297,-1.481 -0.454,-2.222 -0.308,-1.461 -0.792,-2.99 -0.827,-4.478 -0.04,-1.75 -0.072,-3.491 -0.077,-5.242l2.337 0z"/>
   </g>
   <path class="fil1" d="M85.109 3.791c0,3.923 0.19,8.003 0.19,11.942"/>
   <g>
    <path class="fil0" d="M92.312 4.391c-2.264,0.16 -2.811,0.895 -4.691,1.835 -1.432,0.715 -2.443,1.461 -3.649,2.493 0.433,-0.974 0.846,-1.811 1.421,-2.711 0.702,-1.099 1.168,-1.809 2.288,-2.506 1.65,-1.026 2.717,-1.313 4.631,-1.448l0 2.337z"/>
   </g>
   <path class="fil1" d="M92.312 3.222c-4.714,0 -8.286,5.476 -8.34,5.497"/>
   <g>
    <path class="fil0" d="M86.246 6.603c1.734,0.163 2.968,0.887 4.291,1.996 1.117,0.937 1.817,2.401 2.118,3.818 0.165,0.773 0.143,1.045 0.036,1.799 -0.518,-1.508 -1.372,-2.199 -2.668,-3.065 -1.184,-0.792 -2.269,-2.058 -3.777,-2.211l0 -2.337z"/>
   </g>
   <path class="fil1" d="M86.246 7.772c2.211,0 6.445,3.662 6.445,6.444"/>
   <g>
    <path class="fil0" d="M92.438 9.069c2.975,-0.144 8.724,-0.385 7.882,4.212 -0.436,2.376 -1.158,3.186 -0.225,5.679l-0.004 0.007c0.151,0.206 0.907,0.328 1.13,0.367 -0.358,0.042 -0.753,0.091 -1.113,0.024 -0.509,-0.096 -1.016,-1.137 -1.209,-1.557 -0.999,-2.186 -0.396,-3.779 -0.856,-5.542 -0.305,-1.171 -4.491,-0.904 -5.478,-0.856l-0.127 -2.334z"/>
   </g>
   <path class="fil1" d="M92.502 10.236c11.18,-0.606 4.356,3.845 7.425,8.828 0.15,0.244 1.053,0.27 1.294,0.27"/>
   <g>
    <path class="fil0" d="M98.757 14.437c-1.597,0.018 -6.208,0.252 -6.874,1.981 -0.385,0.996 1.244,1.829 2.002,2.033 1.866,0.504 3.639,0.013 5.375,-0.674l0.445 -0.338 -0.183 0.221c-0.959,1.161 -3.649,2.134 -5.18,2.234 -2.246,0.147 -5.255,-1.053 -4.799,-3.739 0.605,-3.567 6.342,-4.023 9.214,-4.055l0 2.337z"/>
   </g>
   <path class="fil1" d="M98.757 13.269c-13.501,0 -7.815,9.443 0.536,4.565l0.412 -0.395"/>
  </g>
 </g>
</svg>
