<?xml version="1.0" encoding="UTF-8"?>
<!DOCTYPE svg PUBLIC "-//W3C//DTD SVG 1.1//EN" "http://www.w3.org/Graphics/SVG/1.1/DTD/svg11.dtd">
<!-- Creator: CorelDRAW 2017 -->
<svg xmlns="http://www.w3.org/2000/svg" xml:space="preserve" width="639px" height="221px" version="1.1" style="shape-rendering:geometricPrecision; text-rendering:geometricPrecision; image-rendering:optimizeQuality; fill-rule:evenodd; clip-rule:evenodd"
viewBox="0 0 452.781 156.911"
 xmlns:xlink="http://www.w3.org/1999/xlink">
 <defs>
  <style type="text/css">
   <![CDATA[
    .fil2 {fill:#FFC445;fill-rule:nonzero}
    .fil3 {fill:#F4F4E2;fill-rule:nonzero}
    .fil1 {fill:#4CB488;fill-rule:nonzero}
    .fil4 {fill:#37CAD5;fill-rule:nonzero}
    .fil0 {fill:#E7495B;fill-rule:nonzero}
   ]]>
  </style>
 </defs>
 <g id="Слой_x0020_1">
  <metadata id="CorelCorpID_0Corel-Layer"/>
  <path class="fil0" d="M22.351 105.791l22.804 0 -11.1 -53.921 -11.704 53.921zm-22.351 51.12l0 -7.573 5.173 0c1.401,0 2.565,-0.868 3.47,-2.564 0.927,-1.696 1.875,-4.773 2.845,-9.23l28.882 -137.544 5.044 0 31.576 149.338 7.458 0 0 7.573 -40.737 0 0 -7.573 10.238 0 -7.393 -35.974 -25.584 0 -5.561 26.27c-0.129,0.435 -0.215,1.184 -0.28,2.131 -0.065,0.946 -0.108,2.09 -0.108,3.392 0,1.341 0.345,2.367 0.991,3.077 0.647,0.749 1.574,1.104 2.738,1.104l7.522 0 0 7.573 -26.274 0z"/>
  <path id="1" class="fil1" d="M90.418 156.911l0 -7.573 8.665 0 0 -139.161 -8.665 0 0 -7.1 41.901 0 0 7.1 -11.639 0 0 139.161 12.264 0c6.919,0 12.35,-3.353 16.273,-10.058 3.923,-6.746 6.984,-17.987 9.225,-33.726l4.009 0 -0.948 51.357 -71.085 0z"/>
  <path id="2" class="fil1" d="M390.685 105.791l22.803 0 -11.1 -53.921 -11.703 53.921zm-22.352 51.12l0 -7.573 5.173 0c1.401,0 2.565,-0.868 3.47,-2.564 0.927,-1.696 1.876,-4.773 2.845,-9.23l28.882 -137.544 5.044 0 31.576 149.338 7.458 0 0 7.573 -40.737 0 0 -7.573 10.238 0 -7.392 -35.974 -25.585 0 -5.561 26.27c-0.129,0.435 -0.215,1.184 -0.28,2.131 -0.065,0.946 -0.108,2.09 -0.108,3.392 0,1.341 0.345,2.367 0.992,3.077 0.646,0.749 1.573,1.104 2.737,1.104l7.522 0 0 7.573 -26.274 0z"/>
  <path id="3" class="fil2" d="M167.753 156.911l0 -7.573 10.087 0 0 -139.161 -10.345 0 0 -7.1 71.537 0 0.754 44.73 -4.397 0c-2.069,-13.845 -4.828,-23.588 -8.276,-29.189 -3.449,-5.641 -8.449,-8.441 -15.023,-8.441l-12.911 0 0.064 63.19c0.302,0.079 0.669,0.119 1.1,0.158 0.452,0.039 1.034,0.079 1.81,0.079 4.484,0 7.91,-2.248 10.26,-6.706 2.371,-4.457 3.901,-11.596 4.612,-21.457l4.268 0 0 65.557 -4.268 0c-0.452,-10.65 -1.896,-18.263 -4.289,-22.878 -2.392,-4.615 -6.099,-6.943 -11.1,-6.943l-2.457 0 0 68.161 12.285 0 0 7.573 -43.711 0z"/>
  <polygon id="4" class="fil3" points="245.089,156.911 245.089,149.338 255.434,149.338 255.434,10.177 245.089,10.177 245.089,3.077 287.506,3.077 287.506,10.177 277.161,10.177 277.161,149.338 287.506,149.338 287.506,156.911 "/>
  <path id="5" class="fil4" d="M313.737 156.911l0 -7.573 10.346 0 0 -65.518 -24.571 -73.643 -8.277 0 0 -7.1 42.332 0 0 7.1 -10.367 0 20.583 62.52 14.463 -49.7c0.668,-2.367 1.142,-4.182 1.422,-5.365 0.259,-1.184 0.41,-2.17 0.41,-2.958 0,-1.539 -0.366,-2.683 -1.078,-3.393 -0.711,-0.749 -1.789,-1.104 -3.233,-1.104l-7.242 0 0 -7.1 27.158 0 0 7.1 -3.47 0c-2.242,0 -4.052,1.025 -5.475,3.116 -1.401,2.091 -3.125,6.587 -5.151,13.53l-15.778 53.96 0 68.555 10.346 0 0 7.573 -42.418 0z"/>
 </g>
</svg>
