<?xml version="1.0" encoding="UTF-8"?>
<!DOCTYPE svg PUBLIC "-//W3C//DTD SVG 1.1//EN" "http://www.w3.org/Graphics/SVG/1.1/DTD/svg11.dtd">
<!-- Creator: CorelDRAW 2017 -->
<svg xmlns="http://www.w3.org/2000/svg" xml:space="preserve" width="2873px" height="561px" version="1.1" style="shape-rendering:geometricPrecision; text-rendering:geometricPrecision; image-rendering:optimizeQuality; fill-rule:evenodd; clip-rule:evenodd"
viewBox="0 0 191.132 37.313"
 xmlns:xlink="http://www.w3.org/1999/xlink">
 <defs>
  <style type="text/css">
   <![CDATA[
    .fil1 {fill:none}
    .fil0 {fill:#000040}
   ]]>
  </style>
 </defs>
 <g id="Слой_x0020_1">
  <metadata id="CorelCorpID_0Corel-Layer"/>
  <g id="_1806318111616">
   <g>
    <path class="fil0" d="M10.948 3.965c-4.343,6.39 -7.846,23.504 -7.965,31.324 0,0.824 -0.668,1.491 -1.492,1.491 -0.823,0 -1.491,-0.667 -1.491,-1.491 0.13,-8.584 3.744,-26.034 8.535,-33.077 0.484,-0.667 1.416,-0.815 2.083,-0.33 0.666,0.484 0.814,1.416 0.33,2.083z"/>
   </g>
   <path class="fil1" d="M9.741 3.088c-4.293,5.91 -8.25,24.451 -8.25,32.201"/>
   <g>
    <path class="fil0" d="M12.296 4.469c0.262,2.423 1.374,6.428 1.949,8.899 1.601,6.88 3.52,15.158 3.641,22.187 0,0.824 -0.668,1.492 -1.492,1.492 -0.823,0 -1.491,-0.668 -1.491,-1.492 -0.111,-6.426 -1.858,-14.114 -3.308,-20.407 -0.68,-2.954 -2.062,-7.891 -2.28,-10.779 0.028,-0.823 0.717,-1.468 1.541,-1.441 0.823,0.028 1.468,0.717 1.44,1.541z"/>
   </g>
   <path class="fil1" d="M10.806 4.419c-0.073,2.173 5.588,21.314 5.588,31.136"/>
   <g>
    <path class="fil0" d="M36.78 5.749c-0.016,8.78 -0.192,18.038 0.115,26.785 0.026,0.736 0.024,0.599 0.076,1.429l-0.076 -0.129c0.316,0.645 0.129,1.442 -0.476,1.872 -0.671,0.477 -1.602,0.32 -2.079,-0.351 -0.456,-1.493 -0.373,-1.206 -0.426,-2.717 -0.309,-8.782 -0.132,-18.074 -0.116,-26.889 0,-0.823 0.667,-1.491 1.491,-1.491 0.824,0 1.491,0.668 1.491,1.491z"/>
   </g>
   <path class="fil1" d="M35.289 5.749c0,2.723 -0.133,28.181 0.266,28.742"/>
   <g>
    <path class="fil0" d="M35.023 6.709c-1.721,0.019 -6.016,-0.11 -6.949,1.784 -0.568,1.151 -0.696,6.322 -0.921,8.021 -0.28,2.114 -0.819,3.807 -1.014,5.946 -0.344,3.76 -0.47,11.867 -4.947,13.121l-0.626 0.124c-0.818,0.099 -1.561,-0.483 -1.66,-1.301 -0.1,-0.817 0.483,-1.561 1.3,-1.66 2.537,-0.501 2.776,-8.515 2.962,-10.549 0.186,-2.04 0.602,-3.327 0.91,-5.256 0.408,-2.564 0.301,-5.157 0.677,-7.533 0.877,-5.553 5.727,-5.628 10.268,-5.68 0.824,0 1.491,0.667 1.491,1.491 0,0.824 -0.667,1.492 -1.491,1.492z"/>
   </g>
   <path class="fil1" d="M35.023 5.217c-12.198,0 -7.382,4.304 -10.044,14.728 -0.764,2.992 -0.133,13.738 -4.593,14.28"/>
   <g>
    <path class="fil0" d="M2.435 22.239c2.271,-0.783 3.476,-0.83 5.785,-0.827 1.833,0.002 3.677,0.109 5.513,0.144 0.824,0 1.491,0.668 1.491,1.491 0,0.824 -0.667,1.492 -1.491,1.492 -2.908,-0.055 -7.25,-0.532 -9.991,0.381 -0.741,0.361 -1.634,0.053 -1.994,-0.687 -0.361,-0.74 -0.054,-1.633 0.687,-1.994z"/>
   </g>
   <path class="fil1" d="M3.088 23.58c2.245,-1.095 7.885,-0.533 10.645,-0.533"/>
   <g>
    <path class="fil0" d="M45.563 4.685c-0.026,7.948 -0.862,17.301 0.659,25.038 0.301,1.531 0.158,2.933 0.139,4.502 0,0.823 -0.668,1.491 -1.492,1.491 -0.823,0 -1.491,-0.668 -1.491,-1.491l0.008 -0.706c0.019,-1.362 0.159,-1.949 -0.091,-3.222 -1.585,-8.064 -0.742,-17.366 -0.715,-25.612 0,-0.824 0.667,-1.492 1.491,-1.492 0.824,0 1.492,0.668 1.492,1.492z"/>
   </g>
   <path class="fil1" d="M44.071 4.685c0,8.483 -0.91,18.075 0.844,26.08 0.008,0.034 -0.046,3.107 -0.046,3.46"/>
   <g>
    <path class="fil0" d="M43.805 14.903c5.362,0.093 11.444,2.178 12.915,7.941 1.535,6.011 -3.458,10.205 -8.899,11.361 -1.574,0.334 -2.947,0.421 -4.548,0.446 -0.824,0 -1.492,-0.667 -1.492,-1.491 0,-0.824 0.668,-1.491 1.492,-1.491 0.952,-0.015 1.781,-0.047 2.728,-0.175 4.012,-0.543 9.051,-3.126 7.829,-7.911 -1.101,-4.313 -6.145,-5.63 -10.025,-5.697 -0.824,0 -1.491,-0.668 -1.491,-1.492 0,-0.823 0.667,-1.491 1.491,-1.491z"/>
   </g>
   <path class="fil1" d="M43.805 16.394c15.133,0 16.193,16.766 -0.532,16.766"/>
   <g>
    <path class="fil0" d="M70.312 1.491c0,11.444 0,22.887 0,34.33 0,0.824 -0.668,1.492 -1.491,1.492 -0.824,0 -1.492,-0.668 -1.492,-1.492 0,-11.443 0,-22.886 0,-34.33 0,-0.823 0.668,-1.491 1.492,-1.491 0.823,0 1.491,0.668 1.491,1.491z"/>
   </g>
   <path class="fil1" d="M68.821 1.491c0,11.509 0,23.028 0,34.33"/>
   <g>
    <path class="fil0" d="M67.578 8.238c-2.437,-0.503 -2.133,0.254 -3.853,1.412l-0.015 0.009c-0.392,1.37 -0.556,1.224 -1.179,2.659 -0.917,2.114 -0.929,8.332 -0.361,10.712 0.994,4.164 4.686,7.639 9.01,5.793 4.655,-1.988 4.534,-7.791 4.357,-11.989 -0.185,-4.393 -1.025,-6.632 -5.477,-7.944 -0.955,-0.281 -0.899,-0.256 -1.542,-0.669 -0.293,0.103 -0.62,0.116 -0.94,0.017zm0.976 -2.817c0.425,-0.162 0.919,-0.129 1.333,0.134l0.547 0.348c7.877,2.255 8.265,7.058 8.128,14.506 -0.085,4.594 -1.688,9.226 -6.211,11.157 -6.047,2.582 -11.645,-1.827 -13.083,-7.844 -0.714,-2.992 -0.666,-9.833 0.511,-12.554 0.629,-1.455 0.719,-1.077 1.185,-2.743 0.28,-1.005 0.528,-0.776 0.982,-1.158 0.525,-0.442 1.021,-0.933 1.605,-1.303 1.838,-1.166 2.926,-0.976 4.915,-0.574 0.03,0.009 0.059,0.02 0.088,0.031z"/>
   </g>
   <path class="fil1" d="M68.022 6.814c-3.369,-1.051 -4.512,1.49 -5.588,1.863 -0.571,3.329 -2.129,1.195 -2.129,10.956 0,14.67 16.765,14.8 16.765,0.776 0,-6.954 0.057,-11.268 -7.253,-13.131l-0.73 -0.464"/>
   <g>
    <path class="fil0" d="M84.949 4.419c-0.024,6.533 -0.769,19.818 1.232,25.558 0.482,1.384 0.4,1.833 0.364,3.183 0,0.824 -0.667,1.491 -1.491,1.491 -0.824,0 -1.491,-0.667 -1.491,-1.491 0.036,-1.395 0.18,-1.117 -0.2,-2.204 -2.204,-6.319 -1.423,-19.461 -1.397,-26.537 0,-0.824 0.668,-1.492 1.491,-1.492 0.824,0 1.492,0.668 1.492,1.492z"/>
   </g>
   <path class="fil1" d="M83.457 4.419c0,6.671 -0.848,20.85 1.529,26.612 0.168,0.407 0.068,1.623 0.068,2.129"/>
   <g>
    <path class="fil0" d="M83.789 30.508c2.065,-4.002 4.04,-8.692 5.897,-12.842 1.785,-3.989 3.637,-8.05 5.294,-12.091l0.033 0.035c0.076,-0.82 0.804,-1.422 1.624,-1.345 0.82,0.077 1.422,0.804 1.345,1.624 -0.299,1.028 -0.141,0.587 -0.585,1.654 -1.817,4.361 -3.826,8.759 -5.765,13.073 -1.631,3.629 -3.458,7.995 -5.312,11.47 -0.436,0.699 -1.356,0.913 -2.055,0.477 -0.699,-0.436 -0.912,-1.356 -0.476,-2.055z"/>
   </g>
   <path class="fil1" d="M85.054 31.297c0.779,-1.249 11.388,-24.958 11.443,-25.548"/>
   <g>
    <path class="fil0" d="M98.283 3.611c0.88,2.385 0.959,5.089 1.187,7.605 0.534,5.895 1.145,13.745 0.948,19.528 -0.047,1.392 0.002,1.902 -0.663,3.125 -0.538,0.623 -1.48,0.692 -2.103,0.154 -0.538,-0.464 -0.663,-1.228 -0.342,-1.83 0.392,-2.046 0.005,-8.71 -0.111,-10.892 -0.267,-5.02 -0.587,-11.183 -1.457,-16.034l0.034 -0.04c-0.446,-0.693 -0.247,-1.616 0.446,-2.062 0.692,-0.446 1.615,-0.246 2.061,0.446z"/>
   </g>
   <path class="fil1" d="M97.03 4.419c0.836,1.298 2.659,27.245 1.596,28.475"/>
   <g>
    <path class="fil0" d="M105.972 4.419c-0.015,9.59 -0.516,19.152 -0.532,28.741 0,0.824 -0.667,1.491 -1.491,1.491 -0.824,0 -1.492,-0.667 -1.492,-1.491 0.017,-9.59 0.517,-19.151 0.533,-28.741 0,-0.824 0.667,-1.492 1.491,-1.492 0.824,0 1.491,0.668 1.491,1.492z"/>
   </g>
   <path class="fil1" d="M104.481 4.419c0,9.84 -0.532,18.999 -0.532,28.741"/>
   <g>
    <path class="fil0" d="M110.602 20.281c-1.419,0 -2.839,0 -4.258,0 -0.824,0 -1.491,-0.668 -1.491,-1.492 0,-0.823 0.667,-1.491 1.491,-1.491 1.419,0 2.839,0 4.258,0 0.824,0 1.491,0.668 1.491,1.491 0,0.824 -0.667,1.492 -1.491,1.492z"/>
   </g>
   <path class="fil1" d="M110.602 18.789c-1.419,0 -2.839,0 -4.258,0"/>
   <g>
    <path class="fil0" d="M111.516 10.571c0.128,-3.116 1.129,-5.843 4.121,-7.337 4.906,-2.45 9.744,1.231 11.936,5.522 2.514,4.922 2.734,11.307 2.249,16.697 -0.178,1.973 -0.278,1.94 -1.55,3.427 -3.818,4.459 -10.816,9.989 -15.1,2.621 -2.281,-3.922 -2.842,-12.331 -2.731,-16.97 0.033,-1.357 0.292,-2.814 1.075,-3.96zm2.972 0.186c0.002,0.051 0,0.102 -0.003,0.154 -0.001,0.01 -0.002,0.02 -0.003,0.029l0 0.004c-0.023,0.253 -0.11,0.489 -0.245,0.69 -0.42,0.998 -0.784,1.642 -0.813,2.897 -0.098,4.17 0.357,12.989 2.836,16.265 2.992,3.955 8.554,-2.34 10.508,-4.795 0.37,-3.833 0.472,-7.648 -0.334,-11.443 -0.796,-3.746 -3.298,-9.387 -7.874,-9.082 -2.929,0.195 -4.007,2.662 -4.072,5.281z"/>
   </g>
   <path class="fil1" d="M112.997 10.806c-0.318,-10.818 18.21,-10.978 15.215,15.747 -0.016,0.135 -16.279,21.982 -16.279,-12.022 0,-2.33 0.949,-3.055 1.064,-3.725"/>
   <g>
    <path class="fil0" d="M135.246 4.951c-0.118,6.964 -0.804,15.149 0.018,21.976 0.087,0.721 0.306,2.321 0.69,3.102 3.995,-0.521 15.104,-2.274 17.79,-0.108 0.723,0.584 0.918,1.143 0.924,2.026 -0.064,0.821 -0.782,1.434 -1.604,1.369 -0.656,-0.051 -1.179,-0.52 -1.33,-1.125 -2.281,-0.932 -11.474,0.277 -13.949,0.606 -1.752,0.232 -3.103,0.723 -4.247,-0.986 -2.546,-3.806 -1.368,-21.496 -1.275,-26.86 0,-0.824 0.668,-1.491 1.492,-1.491 0.823,0 1.491,0.667 1.491,1.491z"/>
   </g>
   <path class="fil1" d="M133.755 4.951c0,3.94 -1.522,26.612 1.862,26.612 0.883,0 17.813,-2.877 17.565,0.266"/>
   <g>
    <path class="fil0" d="M144.826 6.548c-0.008,7.72 -0.257,15.432 -0.266,23.152 0,0.824 -0.667,1.492 -1.491,1.492 -0.824,0 -1.491,-0.668 -1.491,-1.492 0.008,-7.72 0.258,-15.432 0.266,-23.152 0,-0.824 0.667,-1.492 1.491,-1.492 0.824,0 1.491,0.668 1.491,1.492z"/>
   </g>
   <path class="fil1" d="M143.335 6.548c0,7.817 -0.266,15.375 -0.266,23.152"/>
   <g>
    <path class="fil0" d="M155.409 6.443c-0.601,3.23 -0.763,8.635 -0.897,11.985 -0.14,3.508 -0.399,9.274 0.034,12.679 0.13,1.023 0.155,0.553 0.129,0.939 0.468,0.678 0.298,1.607 -0.379,2.075 -0.678,0.468 -1.607,0.298 -2.075,-0.379l-0.445 -1.104c-0.639,-2.29 -0.381,-10.545 -0.288,-13.158 0.134,-3.82 0.313,-10.231 1.063,-13.892 0.236,-0.789 1.067,-1.237 1.856,-1.001 0.789,0.235 1.238,1.066 1.002,1.856z"/>
   </g>
   <path class="fil1" d="M153.98 6.016c-0.636,2.127 -1.859,24.958 -0.532,26.878"/>
   <g>
    <path class="fil0" d="M162.391 4.153c0.11,9.587 3.562,21.484 -1.366,30.258l-0.156 0.278c-0.403,0.718 -1.313,0.973 -2.031,0.57 -0.718,-0.404 -0.973,-1.313 -0.57,-2.031l0.156 -0.277c4.312,-7.677 1.084,-20.084 0.984,-28.798 0,-0.824 0.667,-1.492 1.491,-1.492 0.824,0 1.492,0.668 1.492,1.492z"/>
   </g>
   <path class="fil1" d="M160.899 4.153c0,8.866 3.424,21.34 -1.019,29.25l-0.311 0.555"/>
   <g>
    <path class="fil0" d="M174.065 5.589c-1.29,1.263 -3.658,6.214 -4.777,8.066 -1.498,2.48 -2.595,3.967 -4.851,5.809 -0.667,0.484 -1.599,0.336 -2.083,-0.33 -0.484,-0.667 -0.336,-1.6 0.33,-2.084 1.548,-1.265 2.331,-2.253 3.422,-3.929 1.883,-2.891 3.841,-7.701 6.11,-9.873 0.647,-0.51 1.585,-0.4 2.095,0.246 0.511,0.647 0.401,1.584 -0.246,2.095z"/>
   </g>
   <path class="fil1" d="M173.141 4.419c-2.238,1.768 -5.01,10.519 -9.581,13.838"/>
   <g>
    <path class="fil0" d="M164.956 19.329c1.121,2.29 7.427,10.966 9.293,12.6 0.68,0.465 0.854,1.394 0.389,2.073 -0.465,0.68 -1.393,0.854 -2.073,0.389 -2.51,-2.087 -8.988,-10.991 -10.4,-14.012 -0.291,-0.771 0.099,-1.631 0.87,-1.921 0.771,-0.29 1.631,0.1 1.921,0.871z"/>
   </g>
   <path class="fil1" d="M163.56 19.854c0.643,1.708 8.185,12.169 9.847,13.306"/>
   <g>
    <path class="fil0" d="M185.432 5.877c-2.737,3.22 -7.518,22.723 -7.872,27.017 0,0.824 -0.668,1.491 -1.492,1.491 -0.823,0 -1.491,-0.667 -1.491,-1.491 0.428,-5.674 4.04,-18.682 6.211,-24.312 0.732,-1.898 2.047,-5.831 4.551,-5.638 0.814,0.123 1.375,0.882 1.252,1.697 -0.095,0.63 -0.571,1.108 -1.159,1.236z"/>
   </g>
   <path class="fil1" d="M185.116 4.419c-2.734,-0.412 -9.048,24.889 -9.048,28.475"/>
   <g>
    <path class="fil0" d="M186.553 4.297c2.142,2.046 2.662,5.905 3.099,8.712 1.003,6.448 1.421,14.122 1.48,20.683 0,0.824 -0.668,1.492 -1.492,1.492 -0.823,0 -1.491,-0.668 -1.491,-1.492 -0.041,-4.525 -0.807,-24.369 -3.404,-27.022 -0.655,-0.5 -0.782,-1.435 -0.283,-2.091 0.5,-0.655 1.435,-0.781 2.091,-0.282z"/>
   </g>
   <path class="fil1" d="M185.649 5.483c3.238,2.468 3.991,23.696 3.991,28.209"/>
   <g>
    <path class="fil0" d="M180.326 22.62c2.032,-0.054 7.171,-0.59 8.661,0.847l0.288 0.335c0.465,0.68 0.291,1.608 -0.389,2.073 -0.602,0.412 -1.4,0.322 -1.897,-0.176 -1.138,-0.396 -5.324,-0.13 -6.663,-0.096 -0.824,0 -1.491,-0.667 -1.491,-1.491 0,-0.824 0.667,-1.492 1.491,-1.492z"/>
   </g>
   <path class="fil1" d="M180.326 24.112c1.54,0 7.009,-0.504 7.718,0.532"/>
  </g>
 </g>
</svg>
