<?xml version="1.0" encoding="UTF-8"?>
<!DOCTYPE svg PUBLIC "-//W3C//DTD SVG 1.1//EN" "http://www.w3.org/Graphics/SVG/1.1/DTD/svg11.dtd">
<!-- Creator: CorelDRAW 2017 -->
<svg xmlns="http://www.w3.org/2000/svg" xml:space="preserve" width="1697px" height="672px" version="1.1" style="shape-rendering:geometricPrecision; text-rendering:geometricPrecision; image-rendering:optimizeQuality; fill-rule:evenodd; clip-rule:evenodd"
viewBox="0 0 124.373 49.264"
 xmlns:xlink="http://www.w3.org/1999/xlink">
 <defs>
  <style type="text/css">
   <![CDATA[
    .fil14 {fill:#0C0A1B}
    .fil8 {fill:#121026}
    .fil6 {fill:#13102D}
    .fil5 {fill:#14112C}
    .fil2 {fill:#14112E}
    .fil4 {fill:#161231}
    .fil3 {fill:#161532}
    .fil1 {fill:#191532}
    .fil7 {fill:#191636}
    .fil9 {fill:#1D1A3D}
    .fil0 {fill:#292546}
    .fil13 {fill:#292549}
    .fil10 {fill:#2D2B52}
    .fil11 {fill:#363257}
    .fil12 {fill:#3A3454}
   ]]>
  </style>
 </defs>
 <g id="Слой_x0020_1">
  <metadata id="CorelCorpID_0Corel-Layer"/>
  <g id="_2834758215840">
   <g>
    <path class="fil0" d="M117.285 13.092c-0.02,-0.172 0.443,-1.794 0.53,-2.097 0.195,-0.682 0.352,-1.417 0.535,-2.047 0.566,-1.945 0.316,-2.546 1.027,-4.108 0.382,0.015 0.351,-0.007 0.495,0.293 0.361,0.755 0.198,0.916 0.377,1.561 0.272,0.977 0.162,1.077 0.362,2.29 0.049,0.297 -0.016,0.359 0.012,0.576 0.031,0.246 0.079,0.262 0.096,0.538 0.017,0.275 -0.014,0.337 0.051,0.588 0.078,0.298 0.074,0.195 0.092,0.556 0.029,0.579 0.571,1.268 0.323,2.184 -0.298,0.007 -2.732,-0.02 -3.027,-0.137 -0.571,-0.228 -0.562,-0.076 -0.873,-0.197zm3.601 -7.864c-0.106,-0.063 -0.2,-0.04 -0.305,-0.155l-0.183 -0.391c-0.183,-0.39 -0.005,-0.917 -0.352,-1.221 -0.009,-0.007 -0.106,-0.073 -0.126,-0.087l-0.09 -0.057c-0.193,0.105 0.016,0.004 -0.131,0.114 -0.011,0.008 -0.03,0.019 -0.041,0.028l-0.086 0.056c-0.149,0.127 -0.13,-0.101 -0.136,0.367 -0.636,-0.096 -0.499,0.094 -0.528,0.773 -0.006,0.146 -0.038,0.498 -0.079,0.631 -0.111,0.354 -0.023,0.115 -0.305,0.3 -0.024,0.321 -0.086,0.514 0.009,0.788 -0.318,0.219 -0.106,-0.123 -0.257,0.286 -0.445,1.202 -0.301,0.385 -0.278,1.365 0.014,0.605 -0.286,0.433 -0.24,0.926 0.033,0.363 0.253,0.24 -0.107,0.659 -0.847,0.988 -0.289,0.257 -0.733,1.761 -0.038,0.129 -0.026,0.074 -0.052,0.232 -0.16,1.011 -0.455,0.939 -0.505,1.143 -0.027,0.109 0.003,0.577 0.24,0.82 0.058,0.059 0.115,0.1 0.173,0.149 0.304,-0.089 -0.224,0.122 0.109,-0.082 0.174,-0.106 -0.129,-0.024 0.11,-0.055 0.389,-0.05 -0.082,0.229 0.783,0.209 0.047,-0.097 0.073,-0.18 0.121,-0.271 0.402,0.028 0.878,-0.011 1.24,0.028 0.301,0.034 1.176,0.216 1.409,0.171 1.062,-0.203 0.803,-0.337 0.766,-0.898 0.015,-0.013 0.038,-0.027 0.048,-0.036 0.009,-0.009 0.033,-0.026 0.043,-0.037 0.322,-0.352 -0.04,0.192 0.089,-0.124l0.099 -0.877 -0.412 -0.249c0.059,-0.345 0.035,-0.11 0.066,-0.197l0.242 -1.2c-0.157,-0.388 -0.181,0.138 -0.198,-0.467 -0.022,-0.797 -0.27,-0.685 -0.238,-1.681 0.019,-0.597 -0.294,-1.69 -0.557,-2.148 0.196,-0.173 0.334,-0.251 0.392,-0.573z"/>
    <path class="fil0" d="M58.497 20.211l0.618 -0.436c0.657,-0.537 0.664,-0.995 0.75,-1.178 0.035,-0.074 0.065,-0.109 0.112,-0.176 0.217,-0.311 0.163,-0.233 0.421,-0.241l0 0.417c0.172,-0.132 0.158,-0.621 0.134,-0.843 -0.187,-0.048 -0.274,-0.024 -0.428,-0.053 -0.401,-0.077 -0.067,-0.026 -0.357,-0.157 -0.068,0.192 -0.007,0.319 -0.134,0.516 -0.276,0.425 -0.031,-0.209 -0.232,0.391 -0.068,0.205 -0.114,0.336 -0.293,0.453l-0.101 0.051c-0.442,0.254 -0.202,0.265 -0.317,0.715 -0.072,0.281 -0.154,0.169 -0.173,0.541z"/>
   </g>
   <g>
    <path class="fil1" d="M47.523 22.211c-0.507,1.375 -0.76,1.522 -0.928,2.014 -0.237,0.691 -0.409,0.355 -1.005,0.93 -0.832,0.802 -0.188,1.022 -1.81,0.611 -0.345,-0.087 -0.385,-0.224 -0.392,-0.631 -0.004,-0.296 0.222,-1.243 0.222,-2.653 0,-0.655 0.234,-1.878 0.214,-2.721 -0.012,-0.499 0.072,-0.472 0.133,-0.81 0.057,-0.314 -0.019,-0.654 0.056,-0.959 0.054,-0.218 0.071,-0.059 0.057,-0.319l0.024 -1.315c-0.138,-1.256 -0.373,-2.97 0.341,-4.102 0.533,-0.045 0.376,0.084 0.786,0.129 0.351,0.039 0.407,-0.04 0.71,0.147 0.405,0.251 0.571,0.49 1.096,0.628 0.66,0.172 1.278,0.507 1.414,1.171 0.1,0.486 -0.019,0.265 0.306,0.53l0.009 0.82c-0.001,0.406 -0.047,0.606 -0.066,0.937 -0.044,0.748 -0.033,0.313 -0.184,0.765 -0.087,0.262 -0.323,3.035 -0.983,4.828zm-6.043 3.493c-0.881,0.384 -1.327,-0.018 -1.674,-0.159 -0.899,-0.366 -1.045,-1.917 -1.137,-2.237 -0.121,-0.424 -0.308,-0.53 -0.335,-1.04 -0.021,-0.385 -0.558,-1.47 -0.184,-2.347 0.331,-0.775 0.108,-0.245 0.276,-1.083 0.066,-0.329 0.098,-0.291 0.201,-0.511 0.058,-0.126 0.154,-1.021 0.369,-1.714 0.176,-0.571 0.501,-1.363 0.856,-1.863 0.237,-0.332 0.251,-0.579 0.441,-0.918 0.178,-0.318 0.313,-0.517 0.498,-0.852 0.456,-0.825 0.689,-0.914 1.876,-0.876 0.004,0.517 0.069,1.56 -0.072,2.015 -0.044,0.142 -0.202,1.668 -0.376,2.206 -0.152,0.472 -0.068,0.192 -0.054,0.642l-0.257 1.474c-0.049,0.275 -0.008,0.535 -0.038,0.818 -0.051,0.475 -0.22,1.03 -0.319,1.48 -0.291,1.33 0.083,3.61 -0.071,4.965zm3.102 -15.679c-0.104,-1.345 0.412,-1.518 0.25,-2.479 -0.125,-0.745 -0.104,-1.755 0.036,-2.518 0.049,-0.263 0.113,-0.195 0.136,-0.583 0.04,-0.656 -0.048,-1.122 0.042,-2.041 0.053,-0.549 -0.442,-1.58 -0.915,-1.822 -1.116,-0.571 -1.172,1.224 -1.226,1.413l-0.221 1.229c0.003,0.387 0.125,0.792 0.059,1.265 -0.143,1.025 -0.159,1.513 -0.057,2.613 0.038,0.407 -0.127,0.777 -0.147,1.204 -0.023,0.511 -0.026,0.842 -0.007,1.323 -0.686,-0.002 -1.071,0.154 -1.648,0.301 -1.435,0.366 -1.894,1.943 -2.576,3.063 -0.377,0.618 -0.582,1.38 -0.785,2.088l-0.849 1.935c-0.164,0.309 -0.135,0.428 -0.186,0.766 -0.045,0.304 -0.141,0.488 -0.174,0.707 -0.048,0.323 0.029,0.661 -0.03,0.98 -0.072,0.392 -0.179,0.249 -0.148,0.791 0.079,1.352 -0.042,0.908 -0.117,1.741 -0.019,0.223 0.168,1.487 0.235,1.646 0.45,1.054 -0.036,1.159 0.269,1.595l0.439 0.553c0.166,0.14 0.372,0.155 0.589,0.344 0.673,0.59 1.477,1.057 2.352,1.359 0.445,0.154 0.917,0.384 1.291,0.582 0.041,0.423 0.008,0.371 -0.068,0.697 -0.115,0.489 0.091,-0.021 0.081,0.57 -0.006,0.399 -0.27,0.844 -0.37,1.205 -0.223,0.813 -0.313,1.811 -0.403,2.68 -0.117,1.123 0.058,1.487 -0.149,2.796 -0.076,0.476 -0.041,1.025 -0.121,1.459 -0.04,0.217 -0.115,0.404 -0.159,0.63 -0.04,0.203 -0.032,0.395 -0.087,0.634l-0.302 1.247c-0.093,0.231 0.012,0.928 -0.129,1.326l-0.129 0.287c-0.208,0.587 -0.135,1.787 -0.126,2.493 0.009,0.799 -0.663,3.161 -0.654,4.01 0.006,0.659 0.105,0.661 0.412,1.055 0.439,0.058 1.065,-0.075 1.278,-0.046 0.408,0.055 0.012,0.185 0.499,0.126 0.207,-0.025 0.297,-0.14 0.409,-0.233 -0.101,-1.5 -0.12,-0.697 0.065,-1.997 0.035,-0.242 0.002,-0.458 0.027,-0.694 0.028,-0.259 0.099,-0.365 0.142,-0.65 0.034,-0.22 0.056,-0.371 0.098,-0.616 0.166,-0.968 0.201,-3.453 0.307,-4.065l0.4 -4.049c-0.013,-0.621 0.027,-0.785 0.115,-1.318 0.079,-0.478 0.006,-0.987 0.034,-1.476 0.026,-0.452 0.198,-0.659 0.216,-1.214 0.023,-0.712 0.304,-2.325 0.309,-2.577 0.013,-0.602 -0.002,-0.807 0.088,-1.357 0.111,-0.686 -0.061,-0.595 0.364,-1.079 0.979,-0.044 1.431,0.12 2.239,-0.21 0.291,-0.119 0.689,-0.178 0.917,-0.302 0.46,-0.249 0.873,-0.55 1.188,-0.957 0.701,-0.908 0.567,-0.663 0.963,-1.766 0.19,-0.529 0.147,-0.389 0.178,-1.038 0.031,-0.025 0.201,-0.126 0.208,-0.134 0.289,-0.273 0.926,-3.671 0.976,-4.029 0.028,-0.197 0.034,-0.434 0.069,-0.647 0.034,-0.207 0.082,-0.258 0.144,-0.507 0.179,-0.719 0.071,-0.355 0,-1.008 -0.102,-0.93 0.289,-1.218 0.088,-2.458 -0.188,-1.16 0.068,-1.207 -0.682,-1.957 -0.213,-0.213 -0.318,-0.503 -0.543,-0.816 -0.332,-0.462 -0.264,-0.287 -0.803,-0.483 -0.627,-0.226 0.04,-0.242 -0.897,-0.469 -0.423,-0.103 -0.407,-0.318 -0.864,-0.428 -1.155,-0.277 -0.648,-0.05 -1.94,-0.69z"/>
    <path class="fil1" d="M12.029 18.115c-0.763,-0.117 0.027,-0.378 -0.822,-0.548 0.004,-0.388 -0.128,-0.624 -0.063,-0.941l0.187 -0.802c-0.112,-0.268 -0.344,0.117 -0.174,-0.551 0.071,-0.276 0.177,-0.128 0.02,-0.47 -0.286,-0.623 -0.089,-0.698 0.012,-1.286 0.199,-1.164 -0.025,-0.697 -0.061,-1.271 -0.043,-0.686 0.329,-0.698 0.29,-1.192l-0.599 0.004 0.033 -0.439c-0.156,0.155 -0.066,0.122 -0.346,0.128 -0.32,-0.673 -0.164,-0.505 -0.313,-0.909 -0.204,0.01 -0.292,0.051 -0.577,0.056l0.003 0.483c0.009,0.155 0.089,0.648 0.131,0.9 0.409,2.442 -0.081,1.729 0.063,2.655 0.1,0.641 -0.005,3.057 -0.048,3.945 -0.447,0.285 -1.732,0.138 -2.392,0.256 -0.4,0.072 -0.822,0.069 -1.3,0.071 -0.582,0.002 -0.738,0.09 -1.045,-0.257 -0.288,-0.361 0.02,-0.717 0.29,-1.456 0.085,-0.231 0.174,-0.49 0.163,-0.721 -0.011,-0.251 -0.103,-0.085 0.032,-0.361 0.156,-0.318 0.265,-0.262 0.402,-0.972l0.449 -1.414c0.061,-0.256 0.091,-0.559 0.111,-0.85l0.526 -0.43c0.027,-0.741 0.156,-0.389 0.233,-1 0.07,-0.56 0.177,-0.488 0.34,-0.869 0.637,-1.491 0.093,-1.272 0.569,-1.856 0.17,0.083 -0.112,0.082 0.317,0.101l0.028 -0.476c0.433,-0.185 0.201,-0.141 0.81,-0.149 0.427,-0.006 0.359,-0.035 0.541,-0.224 0.013,-0.013 0.032,-0.035 0.042,-0.046l0.091 -0.1c-0.016,-0.021 -0.136,-0.015 -0.05,-0.267l0.196 -0.268c-0.094,-0.146 -0.294,-0.156 -0.185,-0.598 0.093,-0.377 0.653,-0.589 0.268,-1.931 -0.055,-0.3 -0.567,-0.679 -1.051,-0.711 -0.242,0.184 -0.343,0.404 -0.556,0.603 -0.158,0.148 -0.162,0.077 -0.346,0.221 -0.257,0.202 -0.059,-0.052 -0.187,0.316 -0.117,0.335 -0.315,0.941 -0.522,1.205 -0.163,0.209 -0.084,0.081 -0.174,0.325 -0.213,0.574 -0.285,0.053 -0.45,0.705 -0.127,0.502 -0.265,0.201 -0.422,0.65 -0.227,0.645 -0.127,0.182 -0.637,1.004 -0.352,0.566 -0.26,0.431 -0.534,1.102 -0.14,0.342 -0.246,0.429 -0.401,0.678 -0.205,0.33 -0.473,1.213 -0.621,1.599 -0.121,0.319 -0.263,0.445 -0.383,0.762l-0.565 1.589c-0.099,0.279 -0.18,0.509 -0.261,0.821 -0.268,1.033 -0.069,0.54 -0.473,1.718 -0.105,0.309 -0.244,0.58 -0.311,0.835 -0.081,0.307 -0.076,0.597 -0.165,0.914 -0.22,0.786 -0.401,1.418 -0.497,2.297 -0.038,0.349 -0.04,0.189 -0.101,0.404 -0.081,0.282 -0.052,0.63 -0.134,0.946 -0.162,0.623 -0.437,0.846 -0.452,1.744 -0.021,1.185 0.162,0.407 -0.258,1.778 -0.076,0.249 -0.039,0.148 -0.181,0.387 -0.425,0.717 -0.194,-0.029 -0.359,0.802 -0.133,0.672 -0.344,0.478 0.154,1.198 0.143,0.206 0.221,0.471 0.392,0.685 2.213,-0.469 1.384,0.131 1.978,-0.093 0.239,-0.091 0.354,-0.188 0.497,-0.29 -0.006,-0.52 -0.009,-2.218 0.143,-2.64 0.151,-0.421 0.195,-1.16 0.209,-1.632 0.011,-0.339 0.098,-0.445 0.159,-0.779 0.295,-1.638 0.236,-2.03 1.443,-2.312 0.354,-0.083 0.37,-0.14 0.664,-0.268 0.622,-0.27 0.437,-0.079 0.656,-0.043 0.275,0.046 0.866,-0.377 1.583,-0.145 0.768,0.249 1.792,-0.22 1.398,1.559 -0.176,0.792 -0.019,1.599 -0.094,2.418 -0.06,0.654 -0.452,0.786 -0.377,2.078 0.035,0.608 -0.077,0.504 0.146,1.049 0.263,0.642 -0.198,0.383 0.441,0.84 0.268,0.191 0.858,0.395 1.147,0.1 0.429,-0.437 0.355,-0.012 1.084,-0.213l-0.238 -1.224c-0.07,-0.459 -0.04,-0.944 -0.038,-1.409l0.006 -5.016 0.274 -1.225c0.119,-0.16 0.24,-0.203 0.357,-0.362 0.127,-0.173 0.133,-0.248 0.084,-0.477 -0.035,-0.166 -0.041,-0.493 -0.199,-0.438z"/>
   </g>
   <path class="fil2" d="M98.026 22.056c-0.309,-0.377 -0.28,-1.014 -0.414,-1.447 -0.117,-0.376 -0.027,-0.211 0.021,-0.391 0.125,-0.47 -0.03,-0.194 -0.04,-0.532 -0.016,-0.503 0.272,-0.482 -0.024,-1.527 -0.311,-1.097 -0.033,-1.005 -0.03,-2.046 0.002,-0.856 -0.217,-1.318 -0.065,-2.141 0.194,-1.05 0.28,-0.532 0.276,-2.085 -0.002,-0.927 0.234,-4.493 0.484,-5.434l0.375 -3.132c0.054,-0.328 0.293,-0.601 0.234,-0.922 -0.207,-1.123 -2.073,-0.706 -2.467,-0.327 -0.266,0.256 -0.041,0.13 -0.18,0.466 -0.143,0.345 -0.099,-0.121 -0.173,0.399 -0.034,0.24 -0.015,0.277 -0.069,0.508 -0.04,0.171 -0.067,0.28 -0.073,0.493 -0.017,0.53 -0.032,0.639 -0.109,1.105 -0.059,0.355 -0.01,0.738 -0.063,1.092 -0.057,0.381 -0.178,0.629 -0.193,1.025 -0.022,0.571 0,0.55 -0.123,1.017 -0.176,0.66 -0.092,1.448 -0.25,2.124 -0.249,1.069 -0.337,2.06 -0.285,3.16 0.061,1.281 -0.182,2.067 -0.298,3.285 -0.208,2.182 0.602,1.516 -0.316,3.943 -0.274,0.723 -1.009,1.47 -1.645,1.946 -0.149,0.111 -0.735,0.186 -0.935,0.176 -0.862,-0.042 -0.883,-0.6 -1.028,-1.301 -0.115,-0.552 -0.07,-1.714 -0.043,-2.32 0.066,-1.48 -0.13,-2.93 0.27,-4.304 0.134,-0.464 0.15,-0.497 0.157,-1.068 0.005,-0.443 0.125,-0.63 0.14,-1 0.018,-0.422 -0.028,-0.755 0.045,-1.177 0.303,-1.76 0.399,-3.553 0.545,-5.33 0.033,-0.406 0.265,-0.514 0.162,-0.981 -0.104,-0.469 -0.087,-0.53 0.023,-1.019 0.109,-0.478 0.299,-1.641 -0.088,-1.99 -0.194,-0.186 -0.667,-0.276 -0.925,-0.256 -0.577,0.046 -0.55,-0.144 -1.125,-0.111 -0.292,0.339 -0.373,0.362 -0.232,0.928 0.195,0.785 0.051,1.452 -0.156,2.246 -0.107,0.415 0.019,0.842 -0.077,1.218 -0.074,0.286 -0.255,0.648 -0.305,0.971 -0.062,0.408 -0.027,0.772 -0.101,1.193 -0.114,0.647 -0.299,1.571 -0.342,2.234 -0.056,0.881 0.1,1.836 0.06,2.36 -0.034,0.449 0.056,0.795 0.059,1.214 0.005,0.856 -0.148,1.384 -0.319,2.214 -0.073,0.356 -0.074,0.769 -0.149,1.145l-0.119 1.154c-0.013,1.593 0.018,1.026 -1.165,1.878 -0.216,0.157 -0.034,0.026 -0.163,0.195l-0.358 0.289c-0.241,0.195 -0.576,0.305 -0.773,0.586 -0.23,0.328 -0.393,0.501 -0.929,0.421 -0.029,-0.978 0.219,-1.82 0.08,-2.891 -0.123,-0.941 0.157,-1.5 0.288,-2.028 0.289,-1.166 0.276,-2.319 0.546,-3.453 0.109,-0.457 -0.03,-1.019 0.062,-1.502 0.053,-0.272 0.146,-0.295 0.169,-0.651l-0.135 -3.869c0.007,-1.45 0.225,-1.7 0.242,-2.074 0.053,-1.114 -0.269,-1.309 -0.247,-2.08 0.017,-0.607 0.236,-0.827 -0.145,-1.299 -0.234,-0.292 -0.472,-0.598 -0.871,-0.721 -0.549,-0.169 -0.212,0.416 -1.135,0.027 -0.172,0.826 -0.406,0.661 -0.197,1.968 0.278,1.74 0.118,4.603 -0.203,6.227 -0.152,0.768 -0.102,1.28 -0.119,2.105 -0.008,0.348 0.078,0.827 0.045,1.045l-0.123 0.961c0.012,0.63 -0.125,0.544 -0.204,0.938 -0.054,0.264 -0.012,0.77 -0.015,1.066 -0.004,0.408 -0.06,0.667 -0.164,0.974l-0.494 1.698c-0.054,0.179 0.067,0.406 0.069,0.833 0.003,0.444 -0.075,0.69 -0.033,1.149 0.049,0.547 0.116,0.531 0.168,0.926 0.053,0.405 -0.06,0.748 -0.061,1.148 -0.002,0.41 -0.06,0.682 0.141,0.964 0.462,0.649 0.168,0.955 0.458,1.258 0,0 0.819,0.637 1.01,0.666 0.818,0.122 1.928,-0.411 2.533,-0.781 0.449,-0.274 1.047,-0.428 1.35,-0.868l0.84 -1.086c0.586,-0.647 0.806,1.442 1.339,1.87 0.061,0.049 0.936,0.585 0.985,0.599 0.288,0.086 0.794,-0.211 1.316,-0.166 0.572,0.049 0.673,-0.039 1.087,-0.374 0.349,-0.282 0.596,-0.333 0.812,-0.762 0.181,-0.357 0.445,-0.672 0.825,-0.764 0.737,-0.179 0.299,-0.526 0.932,-0.524 0.274,0.302 0.252,0.81 0.549,1.138 0.687,0.76 1.553,0.776 2.406,0.645 0.52,-0.08 0.645,-0.317 1.02,-0.632 0.32,-0.269 0.546,-0.498 0.675,-0.984 0.167,-0.627 0.282,-0.509 -0.052,-0.925 -0.221,-0.277 -0.217,-0.536 -0.661,-0.558 -1.062,-0.053 -1.327,0.665 -1.79,0.643z"/>
   <path class="fil3" d="M74.314 10.383c0,-0.82 -0.187,-1.441 0.059,-2.253 0.191,-0.632 0.062,-1.459 0.292,-2.143 0.12,-0.359 0.136,-0.669 0.229,-0.991 0.086,-0.299 0.209,-0.62 0.34,-0.881 0.196,-0.393 0.005,-0.763 0.267,-0.945 0.391,-0.273 0.189,0.225 0.722,-0.494 0.386,-0.051 0.787,-0.048 1.101,0.069 1.274,0.474 0.596,0.644 0.883,1.415 0.467,1.255 0.035,1.143 0.349,2.735 0.074,0.378 -0.123,0.891 -0.124,1.269 0,0.406 0.006,0.814 0.007,1.22 0.001,0.508 -0.125,0.563 -0.145,0.998 -0.018,0.412 -0.027,0.739 -0.06,1.09 -0.058,0.615 0.128,0.593 0.128,0.987 0.001,0.769 -0.352,0.807 -0.357,1.5 -0.005,0.579 -0.125,1.026 -0.21,1.524 -0.043,0.251 -0.119,0.499 -0.144,0.711 -0.033,0.285 0.017,0.533 -0.05,0.815 -0.117,0.493 -0.405,0.817 -0.41,1.321 -0.116,0.333 -0.016,-0.006 -0.223,0.27 -0.154,0.206 -0.159,0.461 -0.477,0.878 -0.228,0.3 -0.35,0.849 -0.549,1.233 -0.424,0.817 -0.211,0.475 -0.768,1.03 -0.4,0.398 -0.747,0.837 -1.049,0.785 -0.199,-0.034 -0.386,-0.26 -0.461,-0.454 -0.14,-0.362 -0.161,-3.759 -0.111,-4.088 0.045,-0.298 0.116,-0.242 0.113,-0.725 -0.005,-0.965 0.351,-2.15 0.359,-3.797 0.004,-0.797 0.167,-1.55 0.276,-2.307 0.036,-0.245 0.013,-0.522 0.013,-0.772zm-0.537 -7.02c0.138,-0.054 0.159,-0.032 0.321,-0.036 0.461,0.681 0.092,0.521 0.226,0.869l0.055 0.102c-0.179,0.322 -0.121,0.04 -0.232,0.388 -0.051,0.162 0.021,-0.122 -0.049,0.162 -0.322,0.008 -0.508,0.07 -0.739,-0.056 -0.334,-0.181 -0.142,-0.595 -0.132,-0.995l0.55 -0.434zm-0.654 -0.722c-0.753,0.566 -0.131,1.932 -0.296,2.845 -0.073,0.406 -0.07,0.587 -0.123,1.022l-0.167 2.126c-0.061,0.395 -0.074,0.602 -0.119,1.029 -0.041,0.383 -0.196,0.542 -0.279,0.873 -0.099,0.391 -0.038,0.634 -0.093,1.051 -0.145,1.105 -0.528,0.49 -1.592,0.727 -0.672,0.149 -1.157,0.344 -2.059,0.244 -0.378,-0.042 -0.524,-0.216 -0.571,-0.617 -0.042,-0.353 0.063,-1.743 0.152,-2.112 0.116,-0.477 -0.087,-0.648 0.002,-0.997 0.051,-0.198 0.095,-0.104 0.072,-0.403 -0.029,-0.373 0.104,-1.121 0.165,-1.501 0.062,-0.388 0.2,-0.59 0.227,-0.916 0.028,-0.351 -0.003,-0.781 0.01,-1.145 0.014,-0.379 0.104,-0.637 0.147,-1.004 0.12,-1.04 0.467,-1.386 0.347,-1.755 -0.216,-0.659 -0.44,-0.995 -1.234,-1.061 -0.122,-0.011 -0.699,0.043 -0.902,0.155 -0.492,0.274 -0.079,1.829 -0.44,2.983l-0.236 3.182c0.031,0.356 0.098,0.633 0.048,1.075l-0.466 4.494c0.099,1.37 -0.074,0.74 -0.095,1.525 -0.01,0.378 0.007,0.776 -0.009,1.151 -0.017,0.385 -0.128,0.575 -0.14,0.997 -0.028,0.915 -0.362,2.745 -0.362,3.08 0.001,0.447 -0.124,0.774 -0.12,1.009 0.005,0.284 0.17,0.506 0.107,0.99 -0.036,0.288 -0.19,0.526 -0.213,0.937 -0.024,0.428 0.037,0.705 -0.064,1.077 -0.106,0.387 -0.405,1.638 -0.057,1.915 0.423,0.337 1.307,0.429 1.794,0.101 0.22,-0.149 0.291,-0.487 0.367,-0.776 0.073,-0.277 0.096,-0.764 0.02,-1.072 -0.096,-0.392 -0.245,-0.354 -0.168,-0.94 0.117,-0.887 0.325,-0.772 0.343,-1.948 0.021,-1.265 0.272,-0.996 0.096,-2.11 -0.064,-0.402 0.042,-0.657 0.057,-1.045 0.025,-0.612 0.164,-0.489 0.253,-0.875l0.223 -1.835c0.203,-0.808 2.481,-0.191 2.983,-0.404 0.278,-0.118 0.504,-0.346 0.905,-0.128 0.458,0.261 0.068,1.244 0.061,1.668 -0.007,0.402 -0.063,0.572 -0.072,0.929 -0.007,0.294 0.012,0.636 -0.016,0.925 -0.081,0.814 -0.765,2.449 -0.329,3.925 0.231,0.781 0.034,2.926 1.17,3.276 0.483,0.148 0.28,0.209 0.64,0.36 0.475,0.198 1.219,0.13 1.822,0.1 0.136,-0.107 0.139,-0.166 0.33,-0.301l1.016 -0.78c0.574,-0.47 1.168,-1.386 1.565,-2.011 0.176,-0.277 0.394,-0.378 0.474,-0.666 0.064,-0.228 0.03,-0.311 0.112,-0.536 0.039,-0.108 0.121,-0.278 0.183,-0.395 0.19,-0.364 1.076,-4.352 1.086,-4.752 0.02,-0.78 0.292,-1.223 0.287,-2.078 -0.004,-0.714 0.257,-1.416 0.286,-2.077 0.039,-0.872 -0.139,-1.384 -0.136,-2.219 0.001,-0.445 0.082,-0.757 0.066,-1.14 -0.016,-0.376 -0.116,-0.61 -0.051,-1.072 0.252,-1.797 0.044,-0.926 0.048,-2.153 0.003,-0.629 0.098,-1.745 -0.08,-2.248 -0.136,-0.384 -0.094,-0.174 -0.27,-0.379 -0.373,-0.435 0.235,-0.192 -0.904,-0.814 -1.055,-0.576 -2.399,-1.259 -3.583,-0.715 -0.879,0.403 -0.341,0.089 -1.044,0.75 -0.466,0.438 0.164,0.263 -1.174,0.459z"/>
   <path class="fil4" d="M58.497 20.211c0.019,-0.372 0.101,-0.26 0.173,-0.541 0.115,-0.45 -0.125,-0.461 0.317,-0.715l0.101 -0.051c0.179,-0.117 0.225,-0.248 0.293,-0.453 0.201,-0.6 -0.044,0.034 0.232,-0.391 0.127,-0.197 0.066,-0.324 0.134,-0.516 0.29,0.131 -0.044,0.08 0.357,0.157 0.154,0.029 0.241,0.005 0.428,0.053 0.024,0.222 0.038,0.711 -0.134,0.843 -0.178,0.156 -0.039,0.72 -0.066,1.02 -0.028,0.316 -0.101,0.536 -0.14,0.931 -0.104,1.047 0.11,0.173 0.077,1.937 -0.009,0.506 -0.092,0.499 -0.023,1.009 0.057,0.419 0.02,0.65 -0.074,0.99 -0.169,0.612 0.267,1.17 0.643,1.367 0.614,0.321 1.338,-0.215 1.397,-0.658 0.181,-1.348 -0.253,-1.168 -0.281,-1.847 -0.028,-0.668 -0.014,-1.388 -0.108,-2.03l0.105 -4.207c0.029,-0.653 0.294,-1.224 0.191,-1.889 -0.074,-0.471 0.035,-0.677 0.01,-1.012 -0.129,-1.72 0.191,-1.184 0.322,-2.82 0.032,-0.394 0.145,-0.637 0.197,-0.948 0.051,-0.309 0.011,-0.736 0.023,-1.061 0.027,-0.713 0.216,-1.553 0.22,-1.932 0.006,-0.684 0.27,-1.236 0.338,-1.8 0.078,-0.643 0.191,-1.796 0.344,-2.382 0.109,-0.42 -0.002,-1.05 -0.111,-1.465 -0.084,-0.324 -0.156,-0.481 -0.422,-0.663l-0.588 -0.482c-0.488,-0.398 -1.261,0.162 -1.521,0.395 -0.597,0.534 0.072,1.017 0.211,1.408 0.18,0.504 0.467,0.796 0.373,1.331 -0.072,0.41 -0.036,0.002 -0.165,0.328 -0.082,0.206 -0.038,0.641 -0.136,0.944 -0.224,0.692 -0.04,0.768 -0.259,1.873 -0.063,0.319 -0.012,0.678 -0.037,1.017 -0.022,0.295 -0.109,0.648 -0.13,0.938 -0.06,0.819 -0.057,2.087 -0.15,2.668 -0.1,0.625 0.016,1.385 -0.278,2.367 -0.333,1.117 -0.795,1.501 -1.24,2.064l-3.464 4.129c-0.313,0.45 -0.259,0.211 -0.589,0.483 -0.39,0.321 -0.012,0.505 -0.549,0.533 -0.165,-0.312 0.039,-0.353 -0.095,-1.199 -0.139,-0.879 0.037,-3.121 -0.03,-4.113 -0.056,-0.837 0.207,-2.616 0.42,-3.148 0.129,-0.319 0.137,-0.065 0.149,-0.567 0.011,-0.468 0.089,-0.792 0.089,-1.217 0,-0.982 0.054,-1.834 0.256,-2.629 0.2,-0.785 0.107,-1.845 0.339,-2.537 0.118,-0.354 0.287,-0.663 0.334,-1.084 0.122,-1.098 -0.134,-2.417 -0.074,-2.659 0.073,-0.29 -0.005,-0.31 -0.243,-0.902 -0.292,0.066 -0.65,0.199 -0.98,0.04 -0.341,-0.165 -0.568,-0.137 -0.88,0.029 -0.102,0.294 -0.016,0.56 -0.117,0.884 -0.319,1.023 -0.112,2.274 -0.178,2.683l-0.19 0.821c-0.063,0.327 -0.155,0.48 -0.219,0.786 -0.314,1.505 0.039,1.959 -0.204,2.656 -0.103,0.299 -0.099,0.505 -0.201,0.801 -0.323,0.944 0.066,0.789 -0.054,1.665 -0.064,0.469 -0.168,1.248 -0.303,1.708 -0.216,0.73 0.027,0.958 -0.158,1.701 -0.167,0.669 -0.043,1.091 -0.05,1.834 -0.006,0.678 -0.153,1.055 -0.13,1.859 0.009,0.325 -0.006,0.679 -0.016,1.006 -0.014,0.413 -0.138,0.415 -0.154,0.853 -0.025,0.728 0.361,0.977 0.031,1.722 -0.17,0.385 -0.255,1.175 -0.343,1.633 -0.186,0.968 -0.129,0.664 0.197,1.526 0.255,0.671 0.214,0.915 1.014,0.959 0.496,0.028 1.192,0.316 1.615,0.009l0.459 -0.84c0.187,-0.304 0.29,-0.555 0.463,-0.827 0.185,-0.291 0.343,-0.406 0.529,-0.745 0.305,-0.556 0.404,-0.479 0.541,-0.749 0.377,-0.741 0.73,-0.74 1.162,-1.421 0.088,-0.137 0.969,-1.207 1,-1.46z"/>
   <path class="fil5" d="M104.904 10.584c-0.107,-0.74 0.045,-1.627 0.048,-2.42 0.008,-1.789 0.247,-1.417 0.29,-2.147 0.045,-0.748 -0.002,-1.686 0.102,-2.406 0.054,-0.366 0.014,-0.806 0.084,-1.145 0.081,-0.39 0.188,-0.566 0.164,-1.026 -0.522,-0.416 -1.043,-0.77 -1.886,-0.64 -0.99,0.153 -0.637,1.057 -0.637,1.777 0,2.122 0.02,1.257 -0.204,3.18 -0.207,1.771 0.06,3.117 -0.212,4.807 -0.086,0.542 0.029,1.164 -0.094,1.629 -0.148,0.559 -0.026,1.024 -0.095,1.619 -0.082,0.709 -0.125,0.696 -0.051,1.499 0.021,0.226 0.087,0.504 0.052,0.798 -0.037,0.308 -0.12,0.265 -0.138,0.644 -0.049,1.07 -0.422,1.836 -0.274,3.065 0.077,0.641 0.084,0.945 -0.08,1.53 -0.125,0.445 -0.095,1.029 -0.094,1.564 -0.183,0.363 -0.427,0.288 -0.677,0.513l0.143 0.233c0.256,0.478 0.665,1.332 0.769,1.833 0.487,-0.171 0.966,0.151 2.32,-0.164l0.205 -1.513c0.145,-0.632 0.072,-0.765 -0.065,-1.377 -0.172,-0.763 0.091,-2.2 0.088,-3.105 -0.002,-0.577 -0.015,-1.142 -0.002,-1.72 0.012,-0.593 0.147,-0.899 0.144,-1.5 -0.009,-1.666 0.3,-1.469 1.885,-1.453 0.445,0.005 0.403,0.005 0.652,0.224 0.771,0.677 0.469,0.155 0.852,1.654l0.285 3.013c0.008,0.591 0.146,0.361 0.152,1.574 0.001,0.368 -0.063,0.503 -0.071,0.79 -0.009,0.353 0.124,0.399 0.128,0.652 0.006,0.43 -0.171,0.061 -0.1,0.671 0.071,0.605 0.268,1.446 0.469,1.955 0.289,0.04 0.553,0.021 0.842,0.038 0.485,0.028 0.185,0.045 0.553,-0.192 0.369,-0.237 0.905,-0.272 1.222,-0.493 -0.029,-0.325 -0.251,-0.413 -0.367,-0.678l-0.119 -1.884c-0.021,-0.386 -0.076,-0.613 -0.076,-1.002 0,-0.932 0.082,-3.437 -0.091,-4.134 -0.155,-0.623 -0.354,-0.596 -0.628,-1.525 -0.105,-0.36 -0.2,-0.442 -0.337,-0.732 -0.123,-0.26 -0.131,-0.5 -0.246,-0.756 -0.133,-0.296 -0.242,-0.341 -0.395,-0.662 -0.142,-0.3 -0.211,-0.438 -0.514,-0.552 -0.122,-0.046 -0.711,-0.209 -0.857,-0.203 0,0 -1.186,0.489 -0.838,-0.494 0.508,-1.437 0.316,-0.902 0.984,-2.108 0.385,-0.695 0.271,-0.39 0.499,-0.72 0.586,-0.85 0.423,-1.084 0.872,-1.563 0.509,-0.542 0.614,-1.355 1.245,-1.832 0.187,-0.14 0.158,-0.066 0.294,-0.275 0.223,-0.343 0.206,-0.422 0.52,-0.703 0.231,-0.207 0.346,-0.176 0.655,-0.56 0.692,-0.859 0.115,0.159 1.54,-0.893 0.384,-0.284 0.264,-0.302 0.484,-0.727 0.159,-0.308 0.254,-0.54 0.07,-0.922 -0.133,-0.276 -0.126,-0.181 -0.386,-0.266 -0.367,-0.12 -0.193,-0.17 -0.356,-0.22 -0.496,-0.008 -0.509,0.072 -0.906,0.25 -0.271,0.122 -0.571,0.23 -0.792,0.36 -0.167,0.099 -1.043,0.855 -1.224,1.061 -0.851,0.967 -2.126,1.952 -2.448,3.203 -0.189,0.733 -0.035,0.254 -0.493,0.658 -0.202,0.178 -0.056,0.142 -0.56,0.588 -0.346,0.307 -0.671,1.277 -0.804,1.479 -0.228,0.345 -0.229,0.208 -0.455,0.687 -0.144,0.303 -0.434,0.773 -0.706,1.011 -0.189,0.166 0.047,0.14 -0.334,0.153z"/>
   <path class="fil6" d="M120.886 5.228c-0.058,0.322 -0.196,0.4 -0.392,0.573 0.263,0.458 0.576,1.551 0.557,2.148 -0.032,0.996 0.216,0.884 0.238,1.681 0.017,0.605 0.041,0.079 0.198,0.467l-0.242 1.2c-0.031,0.087 -0.007,-0.148 -0.066,0.197l0.412 0.249 -0.099 0.877c-0.129,0.316 0.233,-0.228 -0.089,0.124 -0.01,0.011 -0.034,0.028 -0.043,0.037 -0.01,0.009 -0.033,0.023 -0.048,0.036 0.037,0.561 0.296,0.695 -0.766,0.898 -0.233,0.045 -1.108,-0.137 -1.409,-0.171 -0.362,-0.039 -0.838,0 -1.24,-0.028 -0.048,0.091 -0.074,0.174 -0.121,0.271 -0.865,0.02 -0.394,-0.259 -0.783,-0.209 -0.239,0.031 0.064,-0.051 -0.11,0.055 -0.333,0.204 0.195,-0.007 -0.109,0.082 -0.058,-0.049 -0.115,-0.09 -0.173,-0.149 -0.237,-0.243 -0.267,-0.711 -0.24,-0.82 0.05,-0.204 0.345,-0.132 0.505,-1.143 0.026,-0.158 0.014,-0.103 0.052,-0.232 0.444,-1.504 -0.114,-0.773 0.733,-1.761 0.36,-0.419 0.14,-0.296 0.107,-0.659 -0.046,-0.493 0.254,-0.321 0.24,-0.926 -0.023,-0.98 -0.167,-0.163 0.278,-1.365 0.151,-0.409 -0.061,-0.067 0.257,-0.286 -0.095,-0.274 -0.033,-0.467 -0.009,-0.788 0.282,-0.185 0.194,0.054 0.305,-0.3 0.041,-0.133 0.073,-0.485 0.079,-0.631 0.029,-0.679 -0.108,-0.869 0.528,-0.773 0.006,-0.468 -0.013,-0.24 0.136,-0.367l0.086 -0.056c0.011,-0.009 0.03,-0.02 0.041,-0.028 0.147,-0.11 -0.062,-0.009 0.131,-0.114l0.09 0.057c0.02,0.014 0.117,0.08 0.126,0.087 0.347,0.304 0.169,0.831 0.352,1.221l0.183 0.391c0.105,0.115 0.199,0.092 0.305,0.155zm-5.571 17.828c-0.08,-0.345 0.018,-0.493 -0.2,-0.712 -0.155,-0.155 -0.026,0.104 -0.199,-0.148 -0.105,-0.235 -0.024,-0.22 -0.087,-0.477 -0.068,-0.275 -0.019,0.009 -0.07,-0.21 -0.042,-0.178 -0.032,-0.035 -0.026,-0.243l0.277 -0.129c0.089,-1.778 -0.454,-1.233 0.034,-2.321 0.342,-0.761 -0.024,-0.423 0.095,-0.836 0.087,-0.305 0.065,-0.076 0.309,-0.223 -0.401,-0.434 -0.108,-1.265 -0.051,-1.164l0.234 -0.061c0.2,-0.024 0.613,0.055 0.786,-0.421 0.28,0.018 0.288,0.051 0.489,0.072l2.294 -0.295c0.343,-0.169 0.57,-0.163 1.153,-0.195 0.491,-0.027 0.799,0 1.152,0.203 0.263,0.909 -0.016,3.235 0.017,4.367 0.012,0.397 -0.014,0.758 0.001,1.146 0.056,1.498 -0.18,1.251 0.154,2.559 0.215,0.842 1.443,0.6 2.111,0.585 0.337,-0.681 0.647,-1.123 0.575,-1.992 -0.029,-0.347 -0.12,-0.801 -0.135,-1.152l-0.163 -1.782c-0.028,-0.22 -0.094,-0.33 -0.124,-0.52 -0.06,-0.391 0.008,-0.868 -0.028,-1.275 -0.041,-0.459 -0.264,-0.506 -0.193,-1.063 0.148,-1.15 0.127,-5.095 -0.072,-5.971 -0.196,-0.86 -0.748,-1.707 -0.932,-2.942 -0.064,-0.433 0.047,-0.721 -0.228,-0.98l-0.092 -0.072c-0.01,-0.493 -0.073,-0.45 -0.122,-0.794 -0.113,-0.794 0.14,0.071 -0.192,-0.799 -0.149,-0.389 -0.023,-1.367 -0.076,-1.848 -0.041,-0.367 -0.148,-0.279 -0.32,-0.61 -0.1,-0.193 -0.216,-0.501 -0.272,-0.725 -0.09,-0.36 0.006,-0.554 -0.132,-0.879 -0.278,-0.655 -0.025,-0.432 -0.22,-0.768 -0.126,-0.215 0.144,-0.006 -0.455,-0.268 -0.371,-0.161 -1.466,-0.159 -1.872,0.066 -0.662,0.367 -1.157,0.767 -1.397,1.453 -0.294,0.837 -0.147,0.848 -0.236,1.207 0,0 -0.687,1.274 -0.825,2.048 -0.045,0.256 0.009,0.385 -0.069,0.647 -0.231,0.77 -0.23,-0.023 -0.399,1.775 -0.069,0.727 -0.183,1.073 -0.3,1.857 -0.049,0.329 -0.169,0.266 -0.257,0.472 -0.126,0.294 -0.15,0.955 -0.176,1.317 -0.047,0.647 -0.437,1.703 -0.52,2.352 -0.076,0.584 -0.292,0.581 -0.44,1 -0.072,0.205 -0.139,1.069 -0.143,1.378 -0.292,0.192 -0.261,-0.027 -0.28,0.418 -0.01,0.23 0.015,0.484 0.003,0.727 -0.023,0.446 -0.185,0.664 -0.262,1.17 -0.04,0.267 -0.024,0.383 -0.112,0.605 -0.055,0.138 -0.173,0.273 -0.209,0.478 -0.043,0.247 0.015,0.392 -0.059,0.661 -0.056,0.2 -0.147,0.29 -0.203,0.507 -0.112,0.431 -0.005,0.928 -0.067,1.377 -0.029,0.209 -0.107,0.372 -0.124,0.577 -0.026,0.301 0.018,0.364 -0.065,0.67 -0.144,0.529 0.182,1.054 0.456,1.466 0.113,0.168 0.219,0.193 0.36,0.405 0.296,-0.089 -0.061,-0.053 0.299,-0.102 0.386,-0.053 0.648,-0.019 1.018,-0.273 0.187,-0.128 0.053,-0.023 0.172,-0.256l0.213 -0.294c0.185,-0.212 0.255,-0.461 0.202,-0.765z"/>
   <path class="fil7" d="M22.614 17.999c-0.016,-0.016 -0.03,-0.042 -0.04,-0.057 -0.349,-0.514 -0.166,-0.185 -0.535,-0.472 -0.001,-0.32 0.185,-0.753 0.117,-1.047 -0.044,-0.191 -0.102,-0.125 -0.112,-0.452 -0.004,-0.159 0.012,-0.392 0.024,-0.554 0,-0.001 0.674,-0.277 0.101,-0.726 0.381,-0.383 0.389,-0.095 0.39,-0.395 -0.048,0.183 -0.095,0.121 -0.399,0.119 -0.01,-0.172 -0.066,-0.51 -0.06,-0.599 0.033,-0.475 0.087,0.015 0.132,-0.426 -0.102,-0.282 -0.14,-0.084 -0.181,-0.503 -0.053,-0.539 -0.33,-0.999 -0.135,-1.77 0.172,-0.68 -0.093,-0.255 -0.098,-0.965 -0.003,-0.386 0.122,-0.164 0.036,-0.52 -0.049,-0.206 -0.105,-0.018 -0.108,-0.537 0.402,-0.261 0.361,-0.161 0.484,-0.701 -0.162,-0.088 -0.138,-0.054 -0.352,-0.004 -0.001,-0.305 -0.043,-0.505 -0.144,-0.729l-0.561 0.076c-0.033,-0.641 -0.022,-0.377 0.337,-0.581 -0.038,-0.663 -0.2,-0.428 0.12,-0.894 0.156,-0.226 0.073,-0.414 0.22,-0.929 0.112,-0.394 0.248,-1.319 0.075,-1.738 -0.006,-0.015 -0.018,-0.035 -0.024,-0.049 -0.006,-0.014 -0.019,-0.04 -0.024,-0.051l-0.046 -0.107c-0.711,-0.777 -0.907,-0.376 -1.486,0.723 -0.243,0.463 -0.425,0.855 -0.654,1.275 -0.136,0.249 -0.259,0.372 -0.34,0.666 -0.286,1.035 -0.665,1.174 -0.928,1.854 -0.111,0.289 -0.155,0.402 -0.323,0.686l-0.778 2.012c-0.401,0.922 -0.417,2.117 -0.828,2.971 -1.159,2.409 -1.544,5.136 -1.837,5.813 -0.181,0.417 -0.246,2.04 -0.365,2.503 -0.056,0.215 -0.184,0.339 -0.272,0.656 -0.116,0.42 -0.272,1.159 -0.457,1.491 -0.206,0.371 -0.212,0.161 -0.199,0.602 0.006,0.188 0.007,0.304 -0.056,0.437 -0.119,0.254 0.033,0.035 -0.194,0.198 0.409,0.38 -0.169,0.595 -0.354,1.332 -0.234,0.928 -0.126,0.437 0.044,1.018 0.024,0.081 0.046,0.243 0.087,0.347 0.116,0.292 0.749,0.725 1.322,0.294 0.566,-0.428 0.508,-0.429 0.654,-1.216l0.458 -3.343c0.091,-0.318 0.152,-0.434 0.239,-0.755 0.109,-0.401 0.27,-1.124 0.421,-1.425 0.669,-1.336 0.202,-0.439 0.405,-1.529 0.296,-1.589 0.704,-1.22 0.828,-1.958 0.097,-0.575 0.255,-0.987 0.433,-1.506 0.35,-1.017 0.296,-0.212 0.382,-1.5 0.021,-0.319 0.132,-0.413 0.249,-0.745 0.282,-0.797 0.243,-0.756 0.384,-1.459 0.111,-0.552 0.401,-0.634 0.481,-1.372 0.051,-0.479 0.182,-0.344 0.269,-0.674 0.111,-0.418 -0.011,-0.305 0.216,-0.722 0.347,-0.636 0.007,-0.45 0.323,-0.624 0.338,0.162 0.059,-0.014 0.194,0.546 0.267,1.111 -0.007,1.398 0.033,2.047 0.026,0.425 0.148,0.335 0.154,0.854 0.013,1.185 0.071,2.897 -0.063,3.962 -0.043,0.344 -0.085,0.587 -0.021,0.833 0.104,0.402 0.011,1.54 -0.095,1.778 -1.007,2.263 0.153,1.764 -0.839,4.027 0.128,0.292 0.159,-0.012 0.207,0.43 0.019,0.175 -0.012,0.379 -0.05,0.526 -0.109,0.422 -0.16,0.549 -0.178,1.049 -0.028,0.783 -0.5,1.408 -0.488,1.939l1.07 0.359c0.949,0.027 0.751,-0.176 1.006,0.346 0.908,0.099 1.355,0.005 1.187,-1.713 -0.059,-0.603 0.188,-0.931 0.127,-1.482l-0.125 -3.101c0.003,-0.623 0.214,-0.761 0.373,-1.215 0.124,-0.353 0.171,-0.985 0.268,-1.378 0.085,-0.347 0.08,-0.912 -0.101,-1.246z"/>
   <path class="fil8" d="M26.035 27.598c0.326,0.021 0.367,0.027 0.683,-0.021 0.444,-0.068 0.59,0.143 1.034,0.049 0.452,-0.096 0.009,0.011 0.237,-0.119 0.397,-0.227 0.295,0.026 0.564,-0.156l0.317 -0.644 -0.229 -0.117c-0.761,-0.336 -0.875,-0.403 -0.886,-0.957 -0.086,-0.001 -0.277,0.01 -0.351,0.002 -0.007,-0.001 -0.212,-0.043 -0.223,-0.047l-0.213 -0.132 -0.111 -0.038c-0.079,-0.611 0.066,-0.525 0.235,-0.949 0.074,-0.186 0.168,-0.748 0.174,-0.984 0.017,-0.671 0.147,-0.575 0.208,-1.008 0.108,-0.767 -0.132,-0.533 0.241,-2.116 0.074,-0.315 -0.005,-0.239 0.022,-0.519 0.027,-0.275 0.071,-0.147 0.106,-0.511 0.219,-2.299 0.07,-1.238 0.485,-1.794 0.213,-0.599 0.388,-0.991 0.305,-1.722 -0.348,-0.12 -0.563,0.041 -0.677,-0.348 -0.094,-0.318 -0.083,-0.735 0.025,-0.974 0.388,-0.858 -0.198,-0.68 0.13,-1.462 0.194,-0.461 0.06,-1.318 0.144,-1.89 0.046,-0.317 0.124,-0.406 0.226,-0.722 0.15,-0.465 0.004,-0.432 0.014,-0.878l0.199 -0.126c0.23,-0.37 0.097,-1.669 0.482,-2.977 0.08,-0.273 0.173,-3.057 0.082,-3.2 -0.143,-0.26 -1.12,-0.89 -1.585,-0.376 -0.217,0.239 -0.49,2.375 -0.521,2.67 -0.063,0.608 -0.045,1.135 -0.148,1.717 -0.043,0.246 -0.132,0.555 -0.102,0.734 0.161,0.937 0.164,1.547 -0.123,2.487 -0.132,0.43 -0.086,1.788 -0.264,2.53 -0.245,1.018 -0.153,1.532 -0.263,2.533 -0.045,0.414 -0.299,1.044 -0.396,1.465 -0.1,0.437 -0.11,1.199 -0.18,1.682 -0.06,0.405 -0.28,1.03 -0.403,1.467 -0.057,0.2 -0.199,0.579 -0.203,0.711 -0.011,0.325 0.154,0.103 0.028,0.684 -0.135,0.615 0.086,1.162 -0.312,1.549 -0.395,0.384 -0.168,0.347 -0.419,1.453 -0.095,0.417 0.014,0.485 -0.008,0.884 -0.024,0.46 -0.149,0.261 -0.431,0.491 -0.011,0.258 0.055,0.725 0.072,1.074 0.732,0.477 0.482,0.508 0.835,0.538 0.229,0.019 0.251,-0.074 0.603,-0.025 0.23,0.032 0.392,0.101 0.597,0.092z"/>
   <path class="fil9" d="M28.328 17.537c0.195,-0.094 0.381,-0.189 0.583,-0.225 1.43,-0.259 0.02,-0.223 1.505,-0.427 1.14,-0.158 1.242,0.025 2.026,0.62l0.746 0.615c0.566,0.428 0.437,2.965 0.323,3.307 -0.119,0.357 -0.332,0.553 -0.47,0.893 -0.16,0.395 -0.193,0.573 -0.364,0.926 -0.61,1.256 -1.02,1.184 -1.3,1.362 -0.313,0.198 0.089,0.117 -0.387,0.332 -0.831,0.375 -0.615,0.299 -1.661,0.297 -1.943,-0.004 -0.531,0.189 -2.361,0.219l0.213 0.132c0.011,0.004 0.216,0.046 0.223,0.047 0.074,0.008 0.265,-0.003 0.351,-0.002 0.011,0.554 0.125,0.621 0.886,0.957l0.229 0.117 -0.317 0.644 0.093 -0.079c0.197,-0.144 0.439,-0.353 0.684,-0.369 0.857,-0.056 0.447,-0.031 1.003,-0.26 0.275,-0.113 0.252,-0.024 0.435,-0.039 0.277,-0.022 0.153,-0.151 0.428,-0.163 0.473,-0.02 -0.064,0.163 0.472,0.111 0.241,-0.023 0.431,-0.135 0.506,-0.301 0.214,-0.476 0.228,-0.204 0.838,-0.502 0.375,-0.184 0.513,-0.612 0.52,-1.075l0.376 -0.263c0.309,-0.356 0.197,-0.382 0.314,-0.926 0.136,-0.08 0.21,-0.065 0.349,-0.123 -0.141,-0.916 -0.15,-0.083 0.33,-1.034l0.256 -0.27c0.076,-0.222 0.131,-0.504 0.209,-0.766 0.397,-1.321 0.167,-0.911 0.216,-1.65 0.022,-0.328 0.074,-0.603 0.043,-0.956 -0.061,-0.693 -1.154,-2.113 -1.555,-2.452 -0.321,-0.271 -0.796,-0.581 -1.213,-0.784 -0.858,-0.417 -0.563,-0.332 -1.291,-0.496 -0.629,-0.143 -0.947,-0.347 -1.853,-0.166 -1.063,0.213 -1.026,0.462 -1.478,0.477 -0.035,-1.039 0.265,-1.823 0.286,-2.875 0.012,-0.609 -0.005,-0.935 0.095,-1.491 0.087,-0.484 0.031,-0.961 0.078,-1.484l-0.199 0.126c-0.01,0.446 0.136,0.413 -0.014,0.878 -0.102,0.316 -0.18,0.405 -0.226,0.722 -0.084,0.572 0.05,1.429 -0.144,1.89 -0.328,0.782 0.258,0.604 -0.13,1.462 -0.108,0.239 -0.119,0.656 -0.025,0.974 0.114,0.389 0.329,0.228 0.677,0.348 0.083,0.731 -0.092,1.123 -0.305,1.722z"/>
   <path class="fil10" d="M5.028 17.947c-0.046,-0.707 0.444,-1.038 0.786,-1.808 0.15,-0.338 0.114,-0.886 0.66,-2.065 0.3,-0.648 0.061,-1.152 0.672,-2.042 0.164,-0.239 0.23,-0.297 0.331,-0.593 0.158,-0.463 0.313,-0.797 0.493,-1.304 0.216,-0.608 0.116,-0.799 0.48,-1.313 0.24,-0.337 0.136,-0.251 0.246,-0.694 0.074,-0.293 0.199,-0.421 0.525,-0.388 0.349,1.27 -0.157,1.216 0.166,2.037 0.059,0.15 0.043,0.144 0.077,0.269 0.081,0.298 0.028,0.22 0.155,0.331l-0.003 -0.483c0.285,-0.005 0.373,-0.046 0.577,-0.056 0.149,0.404 -0.007,0.236 0.313,0.909 0.28,-0.006 0.19,0.027 0.346,-0.128l-0.033 0.439 0.599 -0.004c0.039,0.494 -0.333,0.506 -0.29,1.192 0.036,0.574 0.26,0.107 0.061,1.271 -0.101,0.588 -0.298,0.663 -0.012,1.286 0.157,0.342 0.051,0.194 -0.02,0.47 -0.17,0.668 0.062,0.283 0.174,0.551l-0.187 0.802c-0.065,0.317 0.067,0.553 0.063,0.941 0.849,0.17 0.059,0.431 0.822,0.548l-0.329 -0.823c-0.061,-0.32 -0.01,-0.624 0.029,-0.905 0.07,-0.506 0.051,-0.205 0.141,-0.411 0.066,-0.152 0.032,-0.116 0.019,-0.365 -0.026,-0.486 -0.019,-0.478 -0.122,-0.902 -0.127,-0.523 -0.047,-2.386 0.081,-3.002 0.091,-0.44 -0.042,-0.49 -0.093,-0.837 -0.096,-0.646 0.094,-1.378 -0.103,-1.986 -0.18,-0.553 -0.254,-1.153 -0.338,-1.731 -0.059,-0.407 -0.136,-0.551 -0.227,-0.857 -0.131,-0.436 -0.075,-0.685 -0.392,-1.182 -0.083,-0.128 -0.168,-0.192 -0.212,-0.29 -0.092,-0.204 -0.034,-0.23 -0.072,-0.436 -0.052,-0.279 -0.131,-0.277 -0.21,-0.328 0.385,1.342 -0.175,1.554 -0.268,1.931 -0.109,0.442 0.091,0.452 0.185,0.598l-0.196 0.268c-0.086,0.252 0.034,0.246 0.05,0.267l-0.091 0.1c-0.01,0.011 -0.029,0.033 -0.042,0.046 -0.182,0.189 -0.114,0.218 -0.541,0.224 -0.609,0.008 -0.377,-0.036 -0.81,0.149l-0.028 0.476c-0.429,-0.019 -0.147,-0.018 -0.317,-0.101 -0.476,0.584 0.068,0.365 -0.569,1.856 -0.163,0.381 -0.27,0.309 -0.34,0.869 -0.077,0.611 -0.206,0.259 -0.233,1l-0.526 0.43c-0.02,0.291 -0.05,0.594 -0.111,0.85l-0.449 1.414c-0.137,0.71 -0.246,0.654 -0.402,0.972 -0.135,0.276 -0.043,0.11 -0.032,0.361 0.011,0.231 -0.078,0.49 -0.163,0.721 -0.27,0.739 -0.578,1.095 -0.29,1.456z"/>
   <path class="fil11" d="M22.614 17.999c-0.063,-1.032 0.31,-4.091 0.182,-4.59 -0.291,-1.126 -0.167,-4.551 -0.448,-6.513 -0.147,-1.025 -0.212,-0.434 -0.203,-1.811 0.004,-0.719 0.142,-1.542 -0.314,-1.697l0.046 0.107c0.005,0.011 0.018,0.037 0.024,0.051 0.006,0.014 0.018,0.034 0.024,0.049 0.173,0.419 0.037,1.344 -0.075,1.738 -0.147,0.515 -0.064,0.703 -0.22,0.929 -0.32,0.466 -0.158,0.231 -0.12,0.894 -0.359,0.204 -0.37,-0.06 -0.337,0.581l0.561 -0.076c0.101,0.224 0.143,0.424 0.144,0.729 0.214,-0.05 0.19,-0.084 0.352,0.004 -0.123,0.54 -0.082,0.44 -0.484,0.701 0.003,0.519 0.059,0.331 0.108,0.537 0.086,0.356 -0.039,0.134 -0.036,0.52 0.005,0.71 0.27,0.285 0.098,0.965 -0.195,0.771 0.082,1.231 0.135,1.77 0.041,0.419 0.079,0.221 0.181,0.503 -0.045,0.441 -0.099,-0.049 -0.132,0.426 -0.006,0.089 0.05,0.427 0.06,0.599 0.304,0.002 0.351,0.064 0.399,-0.119 -0.001,0.3 -0.009,0.012 -0.39,0.395 0.573,0.449 -0.101,0.725 -0.101,0.726 -0.012,0.162 -0.028,0.395 -0.024,0.554 0.01,0.327 0.068,0.261 0.112,0.452 0.068,0.294 -0.118,0.727 -0.117,1.047 0.369,0.287 0.186,-0.042 0.535,0.472 0.01,0.015 0.024,0.041 0.04,0.057z"/>
   <path class="fil12" d="M28.553 27.351c-0.269,0.182 -0.167,-0.071 -0.564,0.156 -0.228,0.13 0.215,0.023 -0.237,0.119 -0.444,0.094 -0.59,-0.117 -1.034,-0.049 -0.316,0.048 -0.357,0.042 -0.683,0.021 0.077,0.1 0.119,0.159 0.332,0.215 0.157,0.042 0.29,0.043 0.456,0.038 0.531,-0.016 1.316,-0.211 1.645,-0.222 0.296,-0.009 0.632,0.05 0.923,-0.006 0.396,-0.077 0.022,-0.128 0.784,-0.23 0.324,-0.043 0.377,-0.122 0.801,-0.136 0.522,-0.018 0.336,-0.059 0.735,-0.179 0.264,-0.079 0.542,-0.1 0.767,-0.173 0.671,-0.216 1.279,-1.575 1.643,-2.13 0.429,-0.652 0.882,-1.772 1.036,-2.717l-0.256 0.27c-0.48,0.951 -0.471,0.118 -0.33,1.034 -0.139,0.058 -0.213,0.043 -0.349,0.123 -0.117,0.544 -0.005,0.57 -0.314,0.926l-0.376 0.263c-0.007,0.463 -0.145,0.891 -0.52,1.075 -0.61,0.298 -0.624,0.026 -0.838,0.502 -0.075,0.166 -0.265,0.278 -0.506,0.301 -0.536,0.052 0.001,-0.131 -0.472,-0.111 -0.275,0.012 -0.151,0.141 -0.428,0.163 -0.183,0.015 -0.16,-0.074 -0.435,0.039 -0.556,0.229 -0.146,0.204 -1.003,0.26 -0.245,0.016 -0.487,0.225 -0.684,0.369l-0.093 0.079z"/>
   <path class="fil13" d="M115.315 23.056c0.116,-0.107 0.027,0.097 0.139,-0.182 0.051,-0.128 0.036,-0.099 0.026,-0.233 -0.01,-0.128 -0.087,-0.318 -0.126,-0.449 -0.26,-0.872 0.135,-1.654 0.148,-1.925 0.015,-0.335 -0.066,-0.724 0.031,-1.036 0.242,-0.772 0.376,-0.869 0.408,-1.764 0.015,-0.401 0.162,-0.523 0.309,-0.799 0.287,-0.537 0.276,-0.042 0.656,-0.485 -0.201,-0.021 -0.209,-0.054 -0.489,-0.072 -0.173,0.476 -0.586,0.397 -0.786,0.421l-0.234 0.061c-0.057,-0.101 -0.35,0.73 0.051,1.164 -0.244,0.147 -0.222,-0.082 -0.309,0.223 -0.119,0.413 0.247,0.075 -0.095,0.836 -0.488,1.088 0.055,0.543 -0.034,2.321l-0.277 0.129c-0.006,0.208 -0.016,0.065 0.026,0.243 0.051,0.219 0.002,-0.065 0.07,0.21 0.063,0.257 -0.018,0.242 0.087,0.477 0.173,0.252 0.044,-0.007 0.199,0.148 0.218,0.219 0.12,0.367 0.2,0.712z"/>
   <path class="fil14" d="M73.227 3.797c-0.01,0.4 -0.202,0.814 0.132,0.995 0.231,0.126 0.417,0.064 0.739,0.056 0.07,-0.284 -0.002,0 0.049,-0.162 0.111,-0.348 0.053,-0.066 0.232,-0.388l-0.055 -0.102c-0.134,-0.348 0.235,-0.188 -0.226,-0.869 -0.162,0.004 -0.183,-0.018 -0.321,0.036l-0.55 0.434z"/>
  </g>
 </g>
</svg>
