<?xml version="1.0" encoding="UTF-8"?>
<!DOCTYPE svg PUBLIC "-//W3C//DTD SVG 1.1//EN" "http://www.w3.org/Graphics/SVG/1.1/DTD/svg11.dtd">
<!-- Creator: CorelDRAW 2017 -->
<svg xmlns="http://www.w3.org/2000/svg" xml:space="preserve" width="1024px" height="768px" version="1.1" style="shape-rendering:geometricPrecision; text-rendering:geometricPrecision; image-rendering:optimizeQuality; fill-rule:evenodd; clip-rule:evenodd"
viewBox="0 0 60.198 22.238"
 xmlns:xlink="http://www.w3.org/1999/xlink">
 <defs>
  <style type="text/css">
   <![CDATA[
    .str0 {stroke:#450303;stroke-width:0.006;stroke-miterlimit:22.9256}
    .fil0 {fill:#450303}
   ]]>
  </style>
 </defs>
 <g id="Слой_x0020_1">
  <metadata id="CorelCorpID_0Corel-Layer"/>
  <g id="_2589935156800">
   <g>
    <path class="fil0 str0" d="M47.895 4.634c0.815,-0.142 0.81,1.529 0.958,2.172 0.111,0.478 0.272,0.747 0.286,1.3 0.013,0.516 -0.031,1.009 0.027,1.524 0.04,0.353 0.178,1.094 0.118,1.418 -0.083,0.452 -0.718,0.548 -0.77,-0.069 -0.043,-0.498 0.015,-1.04 0.029,-1.54 0.008,-0.304 0.011,-0.531 -0.28,-0.504l-0.675 0.103c-1.282,0.206 -0.354,1.577 -0.888,2.232 -0.162,0.199 -0.412,0.192 -0.524,0.05 -0.285,-0.363 0.067,-1.496 0.159,-1.957 0.205,-1.022 0.635,-3.442 1.145,-4.361 0.097,-0.175 0.186,-0.328 0.415,-0.368zm-16.11 -4.631l1.535 0c0.554,0 1.546,0.205 2.14,0.336l2.563 0.606c2.399,0.6 4.912,1.286 7.342,1.818 0.1,0.022 0.184,0.043 0.28,0.066 0.577,0.138 1.158,0.25 1.74,0.373 0.688,0.145 1.393,0.26 2.083,0.375l0.928 0.129c1.27,0.152 2.928,0.286 4.084,-0.292 0.055,-0.028 0.102,-0.051 0.162,-0.081 0.065,-0.032 0.097,-0.06 0.151,-0.092 0.176,-0.104 0.323,-0.239 0.473,-0.374l0.281 -0.309 0.63 -1.048c0.129,-0.254 0.305,-0.511 0.55,-0.663 0.332,-0.205 0.816,-0.061 1.137,0.049 0.149,0.052 0.284,0.123 0.414,0.192l0.363 0.226c0.412,0.313 0.671,0.596 0.961,1.03l0.148 0.25c0.242,0.482 0.416,0.986 0.445,1.508l0 0.299c-0.011,0.186 -0.041,0.374 -0.094,0.564 -0.086,0.308 -0.271,0.607 -0.519,0.797 -0.199,0.151 -0.416,0.252 -0.64,0.364l-0.86 0.457c-0.076,0.039 -0.138,0.067 -0.215,0.114l-0.766 0.411c-0.459,0.243 -0.905,0.516 -1.351,0.779 -0.416,0.244 -0.813,0.51 -1.214,0.777l-0.956 0.706c-0.037,0.028 -0.056,0.045 -0.097,0.076l-0.262 0.223c-0.042,0.04 -0.056,0.042 -0.096,0.078 -0.03,0.027 -0.048,0.049 -0.077,0.078 -0.042,0.04 -0.056,0.042 -0.096,0.077l-0.242 0.243c-0.062,0.062 -0.111,0.111 -0.174,0.173l-0.233 0.268c-0.58,0.65 -1.047,1.52 -1.044,2.42 0.004,0.834 -0.526,1.38 -1.2,1.778 -1.409,0.832 -4.225,1.271 -5.813,1.477 -0.387,0.05 -0.77,0.106 -1.159,0.157l-0.889 0.116c-0.1,0.015 -0.198,0.029 -0.29,0.038 -0.778,0.08 -1.563,0.204 -2.34,0.31 -1.966,0.27 -4.187,0.628 -6.047,1.243 -0.177,0.058 -0.31,0.122 -0.461,0.197 -0.14,0.07 -0.282,0.152 -0.394,0.264 -0.466,0.463 -0.147,0.895 0.183,1.314 0.073,0.092 0.205,0.207 0.293,0.296l1.091 0.97c0.263,0.261 0.56,0.648 0.045,0.867 -0.306,0.13 -0.671,0.143 -1.012,0.183 -0.072,0.008 -0.225,0.014 -0.418,0.019l-1.614 0c-0.087,-0.003 -0.149,-0.006 -0.173,-0.01 -0.177,-0.03 -0.381,0.012 -0.554,-0.018 -0.105,-0.017 -0.865,-0.022 -1.088,-0.054l-1.589 -0.126c-0.292,-0.015 -0.718,-0.091 -1.02,-0.122 -0.951,-0.096 -2.485,-0.412 -3.368,-0.633l-0.922 -0.238 -3.696 -1.169c-0.072,-0.024 -0.143,-0.046 -0.208,-0.069l-1.264 -0.451c-0.53,-0.169 -1.945,-0.102 -2.562,-0.089l-3.255 0.191c-0.133,0.002 -0.296,0.035 -0.432,0.035l-1.07 0.073c-0.126,0.019 -0.274,0.024 -0.42,0.03l-5.143 0.364c-0.076,0.006 -0.165,-0.007 -0.24,0.002 -0.072,0.008 -0.112,0.016 -0.21,0.016 -0.1,-0.001 -0.134,0.011 -0.208,0.017 -0.067,0.005 -0.156,0 -0.225,0 -0.105,-0.001 -0.126,0.017 -0.224,0.018 -0.075,0 -0.151,-0.001 -0.226,-0.001 -0.101,0 -0.119,0.016 -0.207,0.018 -0.074,0.002 -0.151,0 -0.226,0 -0.673,0 -1.81,0.067 -2.431,-0.115 -0.216,-0.064 -0.27,-0.147 -0.27,-0.37 0,-0.568 1.203,-1.173 1.651,-1.397l3.742 -1.574c0.099,-0.04 0.177,-0.074 0.269,-0.111l2.35 -1.045c0.046,-0.023 0.086,-0.04 0.126,-0.064l0.368 -0.204c0.234,-0.144 0.472,-0.286 0.692,-0.451 0.296,-0.222 0.541,-0.472 0.73,-0.793 0.052,-0.088 0.088,-0.159 0.133,-0.248l0.18 -0.391c0.426,-1.068 0.83,-2.791 0.824,-3.903 -0.002,-0.335 0.081,-0.666 0.18,-0.963 0.036,-0.11 0.066,-0.173 0.107,-0.274 0.105,-0.255 0.253,-0.503 0.428,-0.715l0.258 -0.296c0.084,-0.107 0.192,-0.188 0.287,-0.284l0.205 -0.177c0.042,-0.032 0.062,-0.051 0.106,-0.084 0.608,-0.455 0.918,-0.589 1.564,-0.912 0.343,-0.173 0.719,-0.314 1.088,-0.436 0.177,-0.058 0.383,-0.137 0.56,-0.184 0.104,-0.029 0.195,-0.059 0.293,-0.088 0.701,-0.21 1.403,-0.384 2.123,-0.526 0.205,-0.041 0.417,-0.083 0.635,-0.127 0.222,-0.045 0.421,-0.076 0.644,-0.119 0.43,-0.082 0.859,-0.147 1.288,-0.217 1.298,-0.214 2.627,-0.398 3.924,-0.631l1.512 -0.376c0.092,-0.031 0.189,-0.057 0.29,-0.091 0.195,-0.065 0.381,-0.131 0.563,-0.199 0.708,-0.264 1.436,-0.533 2.058,-0.971 0.069,-0.049 0.151,-0.108 0.212,-0.17l0.149 -0.145c0.067,-0.086 0.149,-0.171 0.191,-0.276 0.029,-0.074 0.071,-0.196 0.071,-0.293 0,-0.303 -0.123,-0.477 0.156,-0.606 0.364,-0.168 1.221,-0.152 1.663,-0.172 0.07,-0.004 0.089,-0.016 0.162,-0.018zm-13.844 6.032l0.177 1.641 0.038 0.026c-0.044,0.007 -0.02,-0.016 -0.028,0.038l0.115 1.092c0.021,0.189 0.043,0.383 0.063,0.573 0.044,0.412 -0.111,2.448 -0.141,2.978l0.071 0.03c-0.171,0.048 -0.513,0.142 -0.637,-0.015 -0.341,-0.431 0.152,-1.393 0.013,-2.06 -0.457,-0.154 -1.353,-0.11 -1.505,0.296 -0.173,0.463 -0.157,1.226 -0.218,1.759 -0.099,0.108 -0.365,0.139 -0.547,0.096 -0.525,-0.126 -0.225,-0.642 -0.149,-0.847 0.083,-0.225 0.071,-0.314 0.098,-0.559 0.039,-0.352 0.146,-0.749 0.234,-1.084 0.223,-0.845 0.327,-1.184 0.654,-1.994 0.123,-0.304 0.254,-0.635 0.394,-0.923 0.217,-0.448 0.624,-1.431 1.057,-1.576l0.311 0.529zm2.616 1.204c-0.288,0.306 -0.512,1.396 -0.664,1.899 -0.102,0.336 -0.229,0.618 -0.334,0.948l-0.292 0.988c-0.071,0.33 -0.067,0.827 -0.172,1.11 -0.146,0.398 -0.639,0.324 -0.568,-0.186 0.021,-0.154 0.103,-0.341 0.153,-0.488 0.201,-0.588 0.259,-0.905 0.412,-1.494l0.567 -1.994c0.105,-0.339 0.205,-0.629 0.334,-0.948l0.602 -1.302c0.052,-0.098 0.173,-0.369 0.32,-0.313 0.295,0.113 0.309,1.921 0.324,2.238 0.035,0.752 0.083,1.526 -0.013,2.276 -0.042,0.326 -0.117,0.578 -0.117,0.921 -0.002,0.278 0.085,1.371 -0.15,1.486 -0.127,0.016 -0.252,-0.064 -0.394,-0.093 -0.117,-0.024 -0.286,-0.039 -0.347,-0.13l0.1 0.002 0.364 -4.907 -0.125 -0.013zm6.199 -1.02c-0.001,-0.371 0.015,-1.013 0.161,-1.312 0.121,-0.247 0.325,-0.135 0.414,0.045 0.186,0.375 0.052,1.439 0.019,1.874 -0.049,0.651 -0.126,0.564 0.475,0.765 0.179,0.06 0.306,0.118 0.463,0.196 0.187,0.093 0.264,0.133 0.371,0.287 0.558,0.806 0.02,2.653 -0.267,3.451 -0.13,0.364 -0.34,0.632 -0.753,0.702 -0.206,0.034 -0.447,0.025 -0.637,0.089 -0.105,0.036 -0.101,0.123 -0.122,0.243 -0.138,0.788 -0.225,2.114 -0.291,2.946 -0.035,0.443 -0.064,0.898 -0.117,1.334 -0.026,0.219 -0.055,0.432 -0.083,0.647 -0.089,0.672 0.051,0.699 -0.186,0.693 -0.379,-0.01 -0.554,0.042 -0.519,-0.619 0.02,-0.394 0.111,-0.763 0.148,-1.144 0.107,-1.131 0.338,-2.301 0.476,-3.444 0.075,-0.621 0.126,-0.575 -0.379,-0.817 -0.158,-0.076 -0.284,-0.143 -0.42,-0.239 -1.179,-0.827 -0.396,-2.658 0.04,-3.649 0.146,-0.331 0.349,-0.737 0.625,-0.865 0.421,-0.196 0.587,0.243 0.582,-1.183zm-3.949 2.571c0.136,-0.005 0.296,-0.066 0.449,-0.083 0.689,-0.078 1.42,0.429 1.553,1.016 0.067,0.298 -0.009,0.63 -0.086,0.905 -0.127,0.451 -0.397,1.192 -0.7,1.376 -0.203,0.124 -1.548,0.361 -1.772,0.242 -0.278,0.002 -0.721,-0.055 -0.624,-0.44 0.076,-0.3 0.129,-0.565 0.226,-0.847 0.069,-0.202 0.249,-1.426 0.338,-1.826 0.179,-0.806 0.253,-3.422 0.514,-3.798 0.132,0.027 0.333,0.098 0.416,0.174 -0.004,0.209 -0.142,1.326 -0.176,1.628 -0.061,0.549 -0.082,1.104 -0.138,1.653zm11.97 -0.164c-0.127,-0.02 -0.299,0.049 -0.453,0.049 -0.148,0.001 -0.335,-0.036 -0.48,-0.007 -0.159,0.032 -0.153,0.166 -0.174,0.322 -0.093,0.702 -0.275,1.597 -0.196,2.285 0.036,0.321 -0.125,0.598 -0.466,0.467 -0.284,-0.109 -0.162,-0.499 -0.108,-0.766 0.055,-0.268 0.071,-0.627 0.096,-0.91 0.026,-0.301 0.051,-0.604 0.076,-0.905 0.071,-0.879 0.122,-3.453 0.405,-4.118 0.058,-0.138 0.155,-0.207 0.33,-0.108 0.445,0.249 -0.117,1.704 -0.119,2.531 -0.001,1.032 1.055,0.46 1.14,0.365 0.158,-0.176 0.17,-0.508 0.182,-0.802 0.013,-0.312 0.056,-0.621 0.056,-0.931 0,-0.175 -0.039,-0.459 0.04,-0.586 0.065,-0.105 0.225,-0.21 0.338,-0.286 0.304,-0.205 0.454,-0.353 0.943,-0.204 0.296,0.09 0.619,0.311 0.707,0.557 0.066,0.183 0.046,1.392 0.045,1.835 -0.003,1.218 -0.163,2.502 -0.699,3.483 -0.222,0.405 -0.608,0.827 -1.112,0.831 -0.629,0.005 -0.657,-0.704 -0.658,-1.284 0,-0.318 0.027,-0.629 0.062,-0.942 0.023,-0.205 0.126,-0.726 0.045,-0.876zm4.777 2.268c-0.119,-0.011 -0.242,0.183 -0.323,0.284 -0.166,0.207 -0.897,0.643 -1.23,0.403 -0.381,-0.276 -0.421,-1.428 -0.31,-1.996 0.069,-0.352 0.156,-0.635 0.18,-1.011 0.023,-0.379 0.038,-0.763 0.054,-1.143 0.021,-0.49 0.068,-1.817 0.143,-2.23 0.021,-0.109 0.051,-0.123 0.148,-0.163 0.554,-0.229 0.452,1.355 0.441,1.579 -0.036,0.778 0.013,1.517 -0.11,2.284 -0.058,0.356 -0.124,0.667 -0.151,1.04 -0.013,0.172 -0.03,0.414 -0.011,0.582 0.038,0.356 0.338,0.051 0.492,-0.081 0.195,-0.167 0.273,-0.19 0.388,-0.495 0.272,-0.724 0.158,-1.47 0.178,-2.153 0.023,-0.772 0.28,-1.345 0.267,-2.129 -0.003,-0.196 -0.02,-0.396 0.136,-0.47 0.13,-0.061 0.394,-0.024 0.46,0.064 0.159,0.212 0.067,0.756 0.029,1.032 -0.098,0.714 -0.106,1.477 -0.215,2.174 -0.09,0.57 -0.239,1.616 -0.093,2.163 0.051,0.189 0.103,0.277 0.323,0.285 0.21,0.007 0.311,-0.072 0.415,-0.175 0.335,-0.333 0.314,-1.485 0.354,-2.017 0.028,-0.372 0.052,-0.737 0.093,-1.107 0.039,-0.354 0.112,-0.701 0.136,-1.055 0.023,-0.342 0.054,-1.217 0.347,-1.437 0.136,-0.101 0.322,-0.094 0.462,0.006 0.01,0.146 -0.06,1.163 -0.073,1.402 -0.018,0.334 -0.245,4.014 -0.224,4.156 0.355,0.079 0.484,-0.282 0.735,-0.15 0.091,0.048 0.176,0.181 0.161,0.322 -0.026,0.26 -0.516,0.698 -0.852,0.543 -0.257,-0.12 -0.389,-0.479 -0.463,-0.505 -0.133,-0.048 -0.543,0.508 -0.999,0.679 -0.267,0.1 -0.46,0.017 -0.615,-0.123 -0.225,-0.204 -0.155,-0.419 -0.273,-0.558zm-7.917 -0.139c-0.001,-0.196 -0.006,-0.392 -0.001,-0.588 0.004,-0.149 0.058,-0.408 -0.015,-0.513 -0.072,0.022 -0.129,0.126 -0.186,0.204 -0.171,0.235 -0.23,0.262 -0.346,0.415 -0.272,0.358 -0.543,0.752 -0.795,1.128 -0.308,0.46 -0.257,0.541 -0.663,0.497 -0.118,-0.012 -0.202,-0.045 -0.27,-0.111 -0.287,-0.281 -0.052,-0.892 -0.013,-1.277 0.05,-0.488 0.021,-1.011 0.04,-1.503 0.025,-0.617 0.354,-3.595 0.502,-4.105l0.567 0.038 -0.415 5.486c0.084,-0.032 0.254,-0.212 0.317,-0.276l0.493 -0.546c0.276,-0.324 0.635,-0.719 0.767,-1.121 0.206,-0.632 0.152,-1.469 0.222,-2.119 0.039,-0.368 0.185,-0.616 0.052,-0.987 -0.046,-0.13 -0.178,-0.296 -0.095,-0.455 0.065,-0.122 0.256,-0.178 0.422,-0.114 0.139,0.053 0.239,0.157 0.271,0.317 0.097,0.498 -0.186,2.039 -0.244,2.635 -0.07,0.72 -0.138,1.436 -0.173,2.164 -0.021,0.425 0.004,0.712 0.059,1.122 0.019,0.144 0.061,0.412 0.01,0.542 -0.046,0.119 -0.219,0.242 -0.38,0.152 -0.24,-0.135 -0.123,-0.583 -0.126,-0.985zm13.446 0.793c-0.157,-0.448 -0.183,-1.618 -0.22,-2.161 -0.025,-0.371 -0.076,-0.695 -0.443,-0.73 -0.586,-0.055 -0.499,0.175 -0.535,0.65 -0.027,0.367 0.023,2.08 -0.109,2.259 -0.158,0.211 -0.521,0.153 -0.725,-0.204 -0.174,-0.303 0.063,-0.443 0.092,-0.953 0.042,-0.754 0.062,-1.512 0.097,-2.268 0.035,-0.75 0.098,-1.448 0.17,-2.182 0.023,-0.233 -0.067,-0.965 0.11,-1.089 0.152,-0.106 0.652,-0.105 0.57,0.466 -0.057,0.394 -0.214,1.87 -0.115,2.191 0.063,-0.057 0.217,-0.31 0.278,-0.401l0.559 -0.809c0.101,-0.135 0.183,-0.255 0.288,-0.387 0.055,-0.069 0.099,-0.129 0.153,-0.194l0.322 -0.371c0.178,-0.201 0.825,-0.814 0.97,-0.285 -0.252,0.299 -0.821,1.079 -1.075,1.41 -0.074,0.098 -1.042,1.348 -1.071,1.426 0.217,0.178 0.131,0.152 0.453,0.139 0.194,-0.009 0.299,0.126 0.371,0.252 0.071,0.126 0.132,0.293 0.192,0.432 0.357,0.831 0.198,0.704 0.23,1.601 0.014,0.379 0.117,0.715 0.154,1.067 -0.132,0.033 -0.615,0.156 -0.716,0.141z"/>
    <path class="fil0 str0" d="M36.652 6.808c0.019,-0.476 0.02,-1.164 -0.282,-1.423 -0.235,-0.203 -0.444,0.038 -0.541,0.192 -0.296,0.472 -0.351,1.591 -0.399,2.164 -0.045,0.53 -0.085,1.062 -0.114,1.596 -0.08,1.498 0.07,2.208 0.897,0.467 0.392,-0.824 0.398,-2.001 0.439,-2.996z"/>
    <path class="fil0 str0" d="M26.998 11.696c0.254,0.071 0.437,0.056 0.615,-0.102 0.437,-0.388 0.604,-1.102 0.708,-1.696 0.074,-0.419 0.226,-0.99 0.03,-1.377 -0.097,-0.192 -0.758,-0.545 -1.094,-0.517 -0.072,0.258 -0.134,0.559 -0.146,0.844 -0.04,0.919 -0.094,1.949 -0.113,2.848z"/>
    <path class="fil0 str0" d="M22.756 9.488c-0.028,0.269 -0.365,2.067 -0.319,2.147 0.915,-0.01 1.574,-0.125 1.829,-1.173 0.131,-0.539 -0.075,-0.834 -0.365,-1.059 -0.425,-0.329 -0.743,-0.021 -1.145,0.085z"/>
    <path class="fil0 str0" d="M26.798 7.964c-0.277,-0.05 -0.344,-0.007 -0.483,0.134 -0.64,0.652 -1.026,2.757 -0.525,3.399 0.091,0.116 0.202,0.217 0.4,0.237 0.323,0.033 0.245,-0.046 0.266,-0.338 0.027,-0.366 0.045,-0.806 0.094,-1.16 0.012,-0.092 0.023,-0.037 0.038,-0.135l0.041 -0.424c0.02,-0.19 0.039,-0.378 0.057,-0.567 0.035,-0.373 0.095,-0.776 0.112,-1.146z"/>
    <path class="fil0 str0" d="M17.658 7.478l-0.072 -0.541c-0.015,-0.057 -0.031,-0.165 -0.061,-0.209l-0.07 -0.007c-0.067,0.225 -0.186,0.504 -0.272,0.729l-0.686 1.825c-0.082,0.221 -0.18,0.356 -0.01,0.366l1.236 -0.064 -0.065 -2.099z"/>
    <path class="fil0 str0" d="M47.914 8.301l0.522 0.02 -0.012 -0.343c-0.074,-0.114 -0.285,-1.885 -0.368,-2.045l-0.143 0.009 -0.562 2.313c0.122,0.007 0.484,0.004 0.563,0.046z"/>
   </g>
  </g>
 </g>
</svg>
